%TF.GenerationSoftware,KiCad,Pcbnew,10.0.5*%
%TF.CreationDate,2026-08-16T21:16:09+09:00*%
%TF.ProjectId,CANLogger,43414e4c-6f67-4676-9572-2e6b69636164,rev?*%
%TF.SameCoordinates,Original*%
%TF.FileFunction,Soldermask,Bot*%
%TF.FilePolarity,Negative*%
%FSLAX46Y46*%
G04 Gerber Fmt 4.6, Leading zero omitted, Abs format (unit mm)*
G04 Created by KiCad (PCBNEW 10.0.5) date 2026-08-16 21:16:09*
%MOMM*%
%LPD*%
G01*
G04 APERTURE LIST*
G04 Aperture macros list*
%AMRoundRect*
0 Rectangle with rounded corners*
0 $1 Rounding radius*
0 $2 $3 $4 $5 $6 $7 $8 $9 X,Y pos of 4 corners*
0 Add a 4 corners polygon primitive as box body*
4,1,4,$2,$3,$4,$5,$6,$7,$8,$9,$2,$3,0*
0 Add four circle primitives for the rounded corners*
1,1,$1+$1,$2,$3*
1,1,$1+$1,$4,$5*
1,1,$1+$1,$6,$7*
1,1,$1+$1,$8,$9*
0 Add four rect primitives between the rounded corners*
20,1,$1+$1,$2,$3,$4,$5,0*
20,1,$1+$1,$4,$5,$6,$7,0*
20,1,$1+$1,$6,$7,$8,$9,0*
20,1,$1+$1,$8,$9,$2,$3,0*%
G04 Aperture macros list end*
%ADD10R,1.612000X1.612000*%
%ADD11C,1.612000*%
%ADD12C,0.750000*%
%ADD13C,1.155000*%
%ADD14C,0.600000*%
%ADD15C,1.250000*%
%ADD16RoundRect,0.250000X-0.600000X-0.725000X0.600000X-0.725000X0.600000X0.725000X-0.600000X0.725000X0*%
%ADD17O,1.700000X1.950000*%
%ADD18C,0.650000*%
%ADD19O,1.204000X2.004000*%
%ADD20O,1.204000X2.304000*%
%ADD21R,1.900000X1.100000*%
%ADD22RoundRect,0.200000X0.200000X0.275000X-0.200000X0.275000X-0.200000X-0.275000X0.200000X-0.275000X0*%
%ADD23RoundRect,0.225000X-0.250000X0.225000X-0.250000X-0.225000X0.250000X-0.225000X0.250000X0.225000X0*%
%ADD24R,1.500000X0.650000*%
%ADD25RoundRect,0.225000X0.250000X-0.225000X0.250000X0.225000X-0.250000X0.225000X-0.250000X-0.225000X0*%
%ADD26R,3.600000X2.600000*%
%ADD27R,7.000000X11.000000*%
G04 APERTURE END LIST*
D10*
%TO.C,PS1*%
X177870000Y-72560000D03*
D11*
X177870000Y-70020000D03*
X177870000Y-67480000D03*
X177870000Y-64940000D03*
%TD*%
D12*
%TO.C,SW3*%
X204000000Y-123500000D03*
X205800000Y-123500000D03*
%TD*%
%TO.C,SW1*%
X167300000Y-83000000D03*
X165500000Y-83000000D03*
%TD*%
%TO.C,SW4*%
X198200000Y-123500000D03*
X200000000Y-123500000D03*
%TD*%
D10*
%TO.C,PS2*%
X196870000Y-72620000D03*
D11*
X196870000Y-70080000D03*
X196870000Y-67540000D03*
X196870000Y-65000000D03*
%TD*%
D13*
%TO.C,Y1*%
X191500000Y-88000000D03*
X191500000Y-83200000D03*
%TD*%
D12*
%TO.C,SW2*%
X173000000Y-83000000D03*
X171200000Y-83000000D03*
%TD*%
D14*
%TO.C,U1*%
X170260000Y-102650000D03*
X171660000Y-102650000D03*
X169560000Y-101950000D03*
X170960000Y-101950000D03*
X172360000Y-101950000D03*
X170260000Y-101250000D03*
X171660000Y-101250000D03*
X169560000Y-100550000D03*
X170960000Y-100550000D03*
X172360000Y-100550000D03*
X170260000Y-99850000D03*
X171660000Y-99850000D03*
%TD*%
D15*
%TO.C,J3*%
X199400000Y-52600000D03*
D16*
X201000000Y-51000000D03*
D17*
X203500000Y-51000000D03*
%TD*%
D18*
%TO.C,J1*%
X173790000Y-126320000D03*
X179570000Y-126320000D03*
D19*
X172360000Y-130000000D03*
X181000000Y-130000000D03*
D20*
X172360000Y-125820000D03*
X181000000Y-125820000D03*
%TD*%
D15*
%TO.C,J2*%
X180400000Y-52600000D03*
D16*
X182000000Y-51000000D03*
D17*
X184500000Y-51000000D03*
%TD*%
D21*
%TO.C,Y2*%
X187500000Y-88700000D03*
X187500000Y-85300000D03*
%TD*%
D22*
%TO.C,R15*%
X184325000Y-83500000D03*
X182675000Y-83500000D03*
%TD*%
D23*
%TO.C,C42*%
X189500000Y-88225000D03*
X189500000Y-89775000D03*
%TD*%
D24*
%TO.C,IC1*%
X184700000Y-85095000D03*
X184700000Y-86365000D03*
X184700000Y-87635000D03*
X184700000Y-88905000D03*
X179300000Y-88905000D03*
X179300000Y-87635000D03*
X179300000Y-86365000D03*
X179300000Y-85095000D03*
%TD*%
D25*
%TO.C,C26*%
X189500000Y-86775000D03*
X189500000Y-85225000D03*
%TD*%
D26*
%TO.C,H1*%
X205000000Y-91350000D03*
X205000000Y-120650000D03*
D27*
X205000000Y-106000000D03*
%TD*%
D22*
%TO.C,R14*%
X184325000Y-82000000D03*
X182675000Y-82000000D03*
%TD*%
D25*
%TO.C,C33*%
X177000000Y-84275000D03*
X177000000Y-82725000D03*
%TD*%
M02*
