%TF.GenerationSoftware,KiCad,Pcbnew,10.0.5*%
%TF.CreationDate,2026-08-16T21:16:08+09:00*%
%TF.ProjectId,CANLogger,43414e4c-6f67-4676-9572-2e6b69636164,rev?*%
%TF.SameCoordinates,Original*%
%TF.FileFunction,Copper,L2,Bot*%
%TF.FilePolarity,Positive*%
%FSLAX46Y46*%
G04 Gerber Fmt 4.6, Leading zero omitted, Abs format (unit mm)*
G04 Created by KiCad (PCBNEW 10.0.5) date 2026-08-16 21:16:08*
%MOMM*%
%LPD*%
G01*
G04 APERTURE LIST*
G04 Aperture macros list*
%AMRoundRect*
0 Rectangle with rounded corners*
0 $1 Rounding radius*
0 $2 $3 $4 $5 $6 $7 $8 $9 X,Y pos of 4 corners*
0 Add a 4 corners polygon primitive as box body*
4,1,4,$2,$3,$4,$5,$6,$7,$8,$9,$2,$3,0*
0 Add four circle primitives for the rounded corners*
1,1,$1+$1,$2,$3*
1,1,$1+$1,$4,$5*
1,1,$1+$1,$6,$7*
1,1,$1+$1,$8,$9*
0 Add four rect primitives between the rounded corners*
20,1,$1+$1,$2,$3,$4,$5,0*
20,1,$1+$1,$4,$5,$6,$7,0*
20,1,$1+$1,$6,$7,$8,$9,0*
20,1,$1+$1,$8,$9,$2,$3,0*%
G04 Aperture macros list end*
%TA.AperFunction,ComponentPad*%
%ADD10R,1.612000X1.612000*%
%TD*%
%TA.AperFunction,ComponentPad*%
%ADD11C,1.612000*%
%TD*%
%TA.AperFunction,ComponentPad*%
%ADD12C,1.155000*%
%TD*%
%TA.AperFunction,HeatsinkPad*%
%ADD13C,0.600000*%
%TD*%
%TA.AperFunction,ComponentPad*%
%ADD14RoundRect,0.250000X-0.600000X-0.725000X0.600000X-0.725000X0.600000X0.725000X-0.600000X0.725000X0*%
%TD*%
%TA.AperFunction,ComponentPad*%
%ADD15O,1.700000X1.950000*%
%TD*%
%TA.AperFunction,ComponentPad*%
%ADD16O,1.000000X1.800000*%
%TD*%
%TA.AperFunction,ComponentPad*%
%ADD17O,1.000000X2.100000*%
%TD*%
%TA.AperFunction,SMDPad,CuDef*%
%ADD18R,1.900000X1.100000*%
%TD*%
%TA.AperFunction,SMDPad,CuDef*%
%ADD19RoundRect,0.200000X0.200000X0.275000X-0.200000X0.275000X-0.200000X-0.275000X0.200000X-0.275000X0*%
%TD*%
%TA.AperFunction,SMDPad,CuDef*%
%ADD20RoundRect,0.225000X-0.250000X0.225000X-0.250000X-0.225000X0.250000X-0.225000X0.250000X0.225000X0*%
%TD*%
%TA.AperFunction,SMDPad,CuDef*%
%ADD21R,1.500000X0.650000*%
%TD*%
%TA.AperFunction,SMDPad,CuDef*%
%ADD22RoundRect,0.225000X0.250000X-0.225000X0.250000X0.225000X-0.250000X0.225000X-0.250000X-0.225000X0*%
%TD*%
%TA.AperFunction,SMDPad,CuDef*%
%ADD23R,3.600000X2.600000*%
%TD*%
%TA.AperFunction,SMDPad,CuDef*%
%ADD24R,7.000000X11.000000*%
%TD*%
%TA.AperFunction,ViaPad*%
%ADD25C,1.000000*%
%TD*%
%TA.AperFunction,ViaPad*%
%ADD26C,0.600000*%
%TD*%
%TA.AperFunction,Conductor*%
%ADD27C,0.400000*%
%TD*%
%TA.AperFunction,Conductor*%
%ADD28C,0.600000*%
%TD*%
%TA.AperFunction,Conductor*%
%ADD29C,1.000000*%
%TD*%
%TA.AperFunction,Conductor*%
%ADD30C,0.200000*%
%TD*%
G04 APERTURE END LIST*
D10*
%TO.P,PS1,1,-VIN_1*%
%TO.N,GND*%
X177870000Y-72560000D03*
D11*
%TO.P,PS1,2,+VIN_2*%
%TO.N,+5V*%
X177870000Y-70020000D03*
%TO.P,PS1,3,-VOUT_3*%
%TO.N,GND2_CH1*%
X177870000Y-67480000D03*
%TO.P,PS1,4,+VOUT_4*%
%TO.N,+5V_CH1*%
X177870000Y-64940000D03*
%TD*%
D10*
%TO.P,PS2,1,-VIN_1*%
%TO.N,GND*%
X196870000Y-72620000D03*
D11*
%TO.P,PS2,2,+VIN_2*%
%TO.N,+5V*%
X196870000Y-70080000D03*
%TO.P,PS2,3,-VOUT_3*%
%TO.N,GND2_CH2*%
X196870000Y-67540000D03*
%TO.P,PS2,4,+VOUT_4*%
%TO.N,+5V_CH2*%
X196870000Y-65000000D03*
%TD*%
D12*
%TO.P,Y1,1,1_1*%
%TO.N,Net-(U5-OSC1)*%
X191500000Y-88000000D03*
%TO.P,Y1,2,2_2*%
%TO.N,Net-(U5-OSC2)*%
X191500000Y-83200000D03*
%TD*%
D13*
%TO.P,U1,39,GND_39*%
%TO.N,GND*%
X170260000Y-102650000D03*
X171660000Y-102650000D03*
X169560000Y-101950000D03*
X170960000Y-101950000D03*
X172360000Y-101950000D03*
X170260000Y-101250000D03*
X171660000Y-101250000D03*
X169560000Y-100550000D03*
X170960000Y-100550000D03*
X172360000Y-100550000D03*
X170260000Y-99850000D03*
X171660000Y-99850000D03*
%TD*%
D14*
%TO.P,J3,1,Pin_1_1*%
%TO.N,Net-(J3-Pin_1)*%
X201000000Y-51000000D03*
D15*
%TO.P,J3,2,Pin_2_2*%
%TO.N,Net-(J3-Pin_2)*%
X203500000Y-51000000D03*
%TD*%
D16*
%TO.P,J1,S1,SHIELD_S1*%
%TO.N,GND*%
X172360000Y-130000000D03*
%TO.P,J1,S2,SHIELD_S2*%
X181000000Y-130000000D03*
D17*
%TO.P,J1,S3,SHIELD_S3*%
X172360000Y-125820000D03*
%TO.P,J1,S4,SHIELD_S4*%
X181000000Y-125820000D03*
%TD*%
D14*
%TO.P,J2,1,Pin_1_1*%
%TO.N,Net-(J2-Pin_1)*%
X182000000Y-51000000D03*
D15*
%TO.P,J2,2,Pin_2_2*%
%TO.N,Net-(J2-Pin_2)*%
X184500000Y-51000000D03*
%TD*%
D18*
%TO.P,Y2,1,1_1*%
%TO.N,Net-(IC1-X2)*%
X187500000Y-88700000D03*
%TO.P,Y2,2,2_2*%
%TO.N,Net-(IC1-X1)*%
X187500000Y-85300000D03*
%TD*%
D19*
%TO.P,R15,1*%
%TO.N,+3.3V*%
X184325000Y-83500000D03*
%TO.P,R15,2*%
%TO.N,RTC_SDA*%
X182675000Y-83500000D03*
%TD*%
D20*
%TO.P,C42,1*%
%TO.N,GND*%
X189500000Y-88225000D03*
%TO.P,C42,2*%
%TO.N,Net-(IC1-X2)*%
X189500000Y-89775000D03*
%TD*%
D21*
%TO.P,IC1,1,X1_1*%
%TO.N,Net-(IC1-X1)*%
X184700000Y-85095000D03*
%TO.P,IC1,2,X2_2*%
%TO.N,Net-(IC1-X2)*%
X184700000Y-86365000D03*
%TO.P,IC1,3,VBAT_3*%
%TO.N,Net-(H1-+)*%
X184700000Y-87635000D03*
%TO.P,IC1,4,VSS_4*%
%TO.N,GND*%
X184700000Y-88905000D03*
%TO.P,IC1,5,SDA_5*%
%TO.N,RTC_SDA*%
X179300000Y-88905000D03*
%TO.P,IC1,6,SCL_6*%
%TO.N,RTC_SCL*%
X179300000Y-87635000D03*
%TO.P,IC1,7,MFP_7*%
%TO.N,unconnected-(IC1-MFP-Pad7)*%
X179300000Y-86365000D03*
%TO.P,IC1,8,VCC_8*%
%TO.N,+3.3V*%
X179300000Y-85095000D03*
%TD*%
D22*
%TO.P,C26,1*%
%TO.N,GND*%
X189500000Y-86775000D03*
%TO.P,C26,2*%
%TO.N,Net-(IC1-X1)*%
X189500000Y-85225000D03*
%TD*%
D23*
%TO.P,H1,1,+_1*%
%TO.N,Net-(H1-+)*%
X205000000Y-91350000D03*
%TO.P,H1,2,-_2*%
%TO.N,GND*%
X205000000Y-120650000D03*
D24*
%TO.P,H1,3,EP_3*%
%TO.N,unconnected-(H1-EP-Pad3)*%
X205000000Y-106000000D03*
%TD*%
D19*
%TO.P,R14,1*%
%TO.N,+3.3V*%
X184325000Y-82000000D03*
%TO.P,R14,2*%
%TO.N,RTC_SCL*%
X182675000Y-82000000D03*
%TD*%
D22*
%TO.P,C33,1*%
%TO.N,+3.3V*%
X177000000Y-84275000D03*
%TO.P,C33,2*%
%TO.N,GND*%
X177000000Y-82725000D03*
%TD*%
D25*
%TO.N,GND*%
X181500000Y-112000000D03*
X213000000Y-74500000D03*
X215500000Y-74500000D03*
X215500000Y-72000000D03*
X213000000Y-72000000D03*
X165500000Y-76000000D03*
X169000000Y-76000000D03*
X169000000Y-73000000D03*
X165500000Y-73000000D03*
X166500000Y-112500000D03*
X191000000Y-86500000D03*
D26*
%TO.N,RTC_SCL*%
X177000000Y-88000000D03*
%TO.N,RTC_SDA*%
X177500000Y-89000000D03*
D25*
%TO.N,GND*%
X175500000Y-100500000D03*
X192000000Y-113500000D03*
X184500000Y-102000000D03*
X183000000Y-102000000D03*
X177000000Y-102000000D03*
X184500000Y-100500000D03*
X183000000Y-100500000D03*
X190500000Y-77000000D03*
X178500000Y-102000000D03*
X190500000Y-78500000D03*
X210000000Y-88500000D03*
X189500000Y-118500000D03*
X192500000Y-78500000D03*
X194500000Y-93500000D03*
X192500000Y-93500000D03*
X175500000Y-102000000D03*
X192000000Y-110500000D03*
X199500000Y-100500000D03*
X192000000Y-112000000D03*
X178500000Y-100500000D03*
X199500000Y-107225000D03*
X186000000Y-102000000D03*
X186000000Y-100500000D03*
X177000000Y-100500000D03*
X190500000Y-93500000D03*
X192500000Y-77000000D03*
%TO.N,+5V*%
X187500000Y-123500000D03*
X184500000Y-125000000D03*
X186000000Y-123500000D03*
D26*
%TO.N,BTN_START*%
X208000000Y-120500000D03*
X181500000Y-117500000D03*
D25*
%TO.N,+3.3V*%
X185000000Y-115000000D03*
X185000000Y-113500000D03*
X183500000Y-113500000D03*
X208000000Y-95000000D03*
X165000000Y-115000000D03*
X183500000Y-115000000D03*
X200500000Y-79000000D03*
X168000000Y-115000000D03*
X166500000Y-115000000D03*
X206500000Y-93500000D03*
X208000000Y-93500000D03*
X188000000Y-78000000D03*
X169500000Y-115000000D03*
X206500000Y-95000000D03*
D26*
%TO.N,MCP_INT*%
X188500000Y-102000000D03*
X207000000Y-97000000D03*
X194000000Y-95300000D03*
X170000000Y-110500000D03*
%TO.N,CH1_TXD*%
X180000000Y-80000000D03*
X180000000Y-83000000D03*
%TO.N,Net-(U1-EN)*%
X166500000Y-86500000D03*
X166000000Y-95000000D03*
%TO.N,D-*%
X176500000Y-121500000D03*
X176500000Y-127000000D03*
X174000000Y-121000000D03*
%TO.N,BTN_STOP*%
X181500000Y-116500000D03*
X194000000Y-116500000D03*
%TO.N,Net-(U5-OSC2)*%
X197000000Y-84000000D03*
%TO.N,CH2_TXD*%
X205000000Y-79500000D03*
X202500000Y-79000000D03*
%TO.N,SD_MISO*%
X206000000Y-99000000D03*
X172500000Y-93500000D03*
%TO.N,BOOT*%
X175000000Y-85000000D03*
X181500000Y-91000000D03*
%TO.N,SD_CS*%
X203000000Y-99000000D03*
X175000000Y-93000000D03*
%TO.N,SD_MOSI*%
X204000000Y-99000000D03*
X178500000Y-95000000D03*
%TO.N,SD_SCK*%
X173500000Y-93000000D03*
X205000000Y-99000000D03*
D25*
%TO.N,Net-(J4-DAT1)*%
X199500000Y-110500000D03*
X197000000Y-109500000D03*
D26*
%TO.N,Net-(J1-CC2)*%
X178000000Y-127500000D03*
X182000000Y-128000000D03*
%TO.N,UART_RXD*%
X168000000Y-93500000D03*
X170012149Y-112385421D03*
%TO.N,UART_TXD*%
X169500000Y-113000000D03*
X167000000Y-93500000D03*
%TO.N,Net-(J1-CC1)*%
X175500000Y-127500000D03*
X171500000Y-128000000D03*
%TO.N,MCP_MISO*%
X188500000Y-105500000D03*
X171500000Y-110500000D03*
%TO.N,MCP_SCK*%
X188500000Y-103000000D03*
X178500000Y-109800000D03*
%TD*%
%TO.N,Net-(H1-+)*%
D27*
X186000000Y-89500000D02*
X187850000Y-91350000D01*
X186000000Y-88330000D02*
X186000000Y-89500000D01*
X187850000Y-91350000D02*
X205000000Y-91350000D01*
X185305000Y-87635000D02*
X186000000Y-88330000D01*
X184700000Y-87635000D02*
X185305000Y-87635000D01*
%TO.N,Net-(IC1-X2)*%
X188425000Y-88700000D02*
X189500000Y-89775000D01*
X187500000Y-88700000D02*
X188425000Y-88700000D01*
X185165000Y-86365000D02*
X187500000Y-88700000D01*
X184700000Y-86365000D02*
X185165000Y-86365000D01*
%TO.N,Net-(IC1-X1)*%
X187575000Y-85225000D02*
X187500000Y-85300000D01*
X189500000Y-85225000D02*
X187575000Y-85225000D01*
X187295000Y-85095000D02*
X187500000Y-85300000D01*
X184700000Y-85095000D02*
X187295000Y-85095000D01*
%TO.N,+3.3V*%
D28*
X179200000Y-82075000D02*
X177000000Y-84275000D01*
X179200000Y-79668629D02*
X179200000Y-82075000D01*
X188000000Y-78000000D02*
X180868629Y-78000000D01*
X180868629Y-78000000D02*
X179200000Y-79668629D01*
%TO.N,RTC_SDA*%
D27*
X182675000Y-86680000D02*
X180450000Y-88905000D01*
X180450000Y-88905000D02*
X179300000Y-88905000D01*
X182675000Y-83500000D02*
X182675000Y-86680000D01*
%TO.N,RTC_SCL*%
X181500000Y-82500000D02*
X182000000Y-82000000D01*
X181500000Y-86000000D02*
X181500000Y-82500000D01*
X179865000Y-87635000D02*
X181500000Y-86000000D01*
X179300000Y-87635000D02*
X179865000Y-87635000D01*
X182000000Y-82000000D02*
X182675000Y-82000000D01*
%TO.N,+3.3V*%
X177820000Y-85095000D02*
X177000000Y-84275000D01*
X179300000Y-85095000D02*
X177820000Y-85095000D01*
%TO.N,RTC_SCL*%
X179300000Y-87635000D02*
X177365000Y-87635000D01*
X177365000Y-87635000D02*
X177000000Y-88000000D01*
%TO.N,RTC_SDA*%
X179205000Y-89000000D02*
X179300000Y-88905000D01*
X177500000Y-89000000D02*
X179205000Y-89000000D01*
%TO.N,+5V*%
D29*
X209000000Y-125500000D02*
X189500000Y-125500000D01*
X177870000Y-70020000D02*
X196810000Y-70020000D01*
X215000000Y-119500000D02*
X209000000Y-125500000D01*
X200080000Y-70080000D02*
X215000000Y-85000000D01*
X196810000Y-70020000D02*
X196870000Y-70080000D01*
X215000000Y-85000000D02*
X215000000Y-119500000D01*
X196870000Y-70080000D02*
X200080000Y-70080000D01*
X189500000Y-125500000D02*
X187500000Y-123500000D01*
%TO.N,BTN_START*%
D27*
X206500000Y-117500000D02*
X181500000Y-117500000D01*
X208000000Y-120500000D02*
X208000000Y-119000000D01*
X208000000Y-119000000D02*
X206500000Y-117500000D01*
%TO.N,+3.3V*%
D28*
X204125000Y-86375000D02*
X204025000Y-86275000D01*
X184325000Y-83500000D02*
X190225000Y-83500000D01*
X204025000Y-86275000D02*
X193000000Y-86275000D01*
X184325000Y-82000000D02*
X184325000Y-81675000D01*
X208000000Y-90250000D02*
X204125000Y-86375000D01*
X208000000Y-93500000D02*
X208000000Y-90250000D01*
X200500000Y-82750000D02*
X200500000Y-79000000D01*
X204125000Y-86375000D02*
X200500000Y-82750000D01*
X190225000Y-83500000D02*
X193000000Y-86275000D01*
X184325000Y-83500000D02*
X184325000Y-82000000D01*
X184325000Y-81675000D02*
X188000000Y-78000000D01*
%TO.N,MCP_INT*%
D27*
X172000000Y-108500000D02*
X170000000Y-110500000D01*
X205300000Y-95300000D02*
X207000000Y-97000000D01*
X182000000Y-108500000D02*
X172000000Y-108500000D01*
X194000000Y-95300000D02*
X205300000Y-95300000D01*
X188500000Y-102000000D02*
X182000000Y-108500000D01*
%TO.N,CH1_TXD*%
X180000000Y-80000000D02*
X180000000Y-83000000D01*
%TO.N,Net-(U1-EN)*%
X166000000Y-87000000D02*
X166500000Y-86500000D01*
X166000000Y-95000000D02*
X166000000Y-87000000D01*
%TO.N,D-*%
D30*
X176500000Y-121500000D02*
X174500000Y-121500000D01*
X176500000Y-127000000D02*
X176500000Y-121500000D01*
X174500000Y-121500000D02*
X174000000Y-121000000D01*
%TO.N,BTN_STOP*%
D27*
X194000000Y-116500000D02*
X181500000Y-116500000D01*
%TO.N,Net-(U5-OSC2)*%
X196200000Y-83200000D02*
X191500000Y-83200000D01*
X197000000Y-84000000D02*
X196200000Y-83200000D01*
%TO.N,CH2_TXD*%
X202500000Y-79000000D02*
X204500000Y-79000000D01*
X204500000Y-79000000D02*
X205000000Y-79500000D01*
%TO.N,SD_MISO*%
X182500000Y-96000000D02*
X178000000Y-91500000D01*
X178000000Y-91500000D02*
X174010050Y-91500000D01*
X203000000Y-96000000D02*
X182500000Y-96000000D01*
X172500000Y-93010050D02*
X172500000Y-93500000D01*
X174010050Y-91500000D02*
X172500000Y-93010050D01*
X206000000Y-99000000D02*
X203000000Y-96000000D01*
%TO.N,BOOT*%
X175000000Y-88500000D02*
X177000000Y-90500000D01*
X175000000Y-85000000D02*
X175000000Y-88500000D01*
X181000000Y-90500000D02*
X181500000Y-91000000D01*
X177000000Y-90500000D02*
X181000000Y-90500000D01*
%TO.N,SD_CS*%
D28*
X181000000Y-99000000D02*
X175000000Y-93000000D01*
X203000000Y-99000000D02*
X181000000Y-99000000D01*
%TO.N,SD_MOSI*%
D27*
X203000000Y-98000000D02*
X181500000Y-98000000D01*
X204000000Y-99000000D02*
X203000000Y-98000000D01*
X181500000Y-98000000D02*
X178500000Y-95000000D01*
%TO.N,SD_SCK*%
X182000000Y-97000000D02*
X177300000Y-92300000D01*
X177300000Y-92300000D02*
X174200000Y-92300000D01*
X205000000Y-99000000D02*
X203000000Y-97000000D01*
X203000000Y-97000000D02*
X182000000Y-97000000D01*
X174200000Y-92300000D02*
X173500000Y-93000000D01*
%TO.N,Net-(J4-DAT1)*%
D28*
X197000000Y-109500000D02*
X198500000Y-109500000D01*
X198500000Y-109500000D02*
X199500000Y-110500000D01*
%TO.N,Net-(J1-CC2)*%
D30*
X178000000Y-127500000D02*
X178500000Y-128000000D01*
X178500000Y-128000000D02*
X182000000Y-128000000D01*
%TO.N,UART_RXD*%
X170012149Y-112385421D02*
X168000000Y-110373272D01*
X168000000Y-110373272D02*
X168000000Y-93500000D01*
%TO.N,UART_TXD*%
X167000000Y-110500000D02*
X167000000Y-93500000D01*
X169500000Y-113000000D02*
X167000000Y-110500000D01*
%TO.N,Net-(J1-CC1)*%
X175000000Y-128000000D02*
X171500000Y-128000000D01*
X175500000Y-127500000D02*
X175000000Y-128000000D01*
%TO.N,MCP_MISO*%
D27*
X183500000Y-110500000D02*
X171500000Y-110500000D01*
X188500000Y-105500000D02*
X183500000Y-110500000D01*
%TO.N,MCP_SCK*%
X188500000Y-103000000D02*
X181700000Y-109800000D01*
X181700000Y-109800000D02*
X178500000Y-109800000D01*
%TO.N,unconnected-(IC1-MFP-Pad7)*%
X179810000Y-86365000D02*
X178775850Y-86365000D01*
%TO.N,+3.3V*%
X178775850Y-85095000D02*
X179580000Y-85095000D01*
%TD*%
%TA.AperFunction,Conductor*%
%TO.N,GND*%
G36*
X183384347Y-87074780D02*
G01*
X183436330Y-87121466D01*
X183454819Y-87184416D01*
X183455114Y-87200852D01*
X183454424Y-87216327D01*
X183449500Y-87262127D01*
X183449500Y-87262132D01*
X183449500Y-88007876D01*
X183449659Y-88009806D01*
X183449885Y-88011454D01*
X183455907Y-88067482D01*
X183455908Y-88067484D01*
X183492393Y-88165304D01*
X183492944Y-88173012D01*
X183507394Y-88211777D01*
X183507394Y-88211778D01*
X183513246Y-88227477D01*
X183518217Y-88297169D01*
X183518216Y-88297173D01*
X183514639Y-88313598D01*
X183507957Y-88333673D01*
X183508193Y-88333761D01*
X183456402Y-88472620D01*
X183456400Y-88472628D01*
X183450000Y-88532146D01*
X183450000Y-88532155D01*
X183450000Y-88655000D01*
X184558170Y-88655000D01*
X184593106Y-88660023D01*
X184608104Y-88664427D01*
X184666855Y-88702172D01*
X184668042Y-88703541D01*
X184695518Y-88758402D01*
X184697163Y-88765960D01*
X184700000Y-88792331D01*
X184700000Y-88905000D01*
X184808170Y-88905000D01*
X184843106Y-88910023D01*
X184858104Y-88914427D01*
X184916855Y-88952172D01*
X184918042Y-88953541D01*
X184945518Y-89008402D01*
X184947163Y-89015960D01*
X184950000Y-89042331D01*
X184950000Y-89730000D01*
X185236370Y-89730000D01*
X185271306Y-89735023D01*
X185286304Y-89739427D01*
X185345081Y-89777202D01*
X185353999Y-89787494D01*
X185374840Y-89821227D01*
X185375795Y-89823531D01*
X185376991Y-89826418D01*
X185378683Y-89830504D01*
X185379225Y-89831812D01*
X185379241Y-89831837D01*
X185455885Y-89946543D01*
X185455891Y-89946550D01*
X187403451Y-91894110D01*
X187403454Y-91894112D01*
X187518192Y-91970777D01*
X187640072Y-92021260D01*
X187644498Y-92023354D01*
X187645229Y-92023495D01*
X187645971Y-92023640D01*
X187781000Y-92050500D01*
X187781003Y-92050500D01*
X187781006Y-92050500D01*
X187781007Y-92050500D01*
X201972934Y-92050500D01*
X202039973Y-92070185D01*
X202050395Y-92077671D01*
X202652963Y-92559727D01*
X202693015Y-92616977D01*
X202699501Y-92656554D01*
X202699501Y-92697882D01*
X202705907Y-92757481D01*
X202705908Y-92757483D01*
X202756202Y-92892328D01*
X202756206Y-92892335D01*
X202765170Y-92904309D01*
X202842450Y-93007542D01*
X202842456Y-93007548D01*
X202859337Y-93020185D01*
X202957664Y-93093793D01*
X202957671Y-93093797D01*
X203007155Y-93112253D01*
X203042513Y-93138721D01*
X203099444Y-93144835D01*
X203099443Y-93144839D01*
X203099458Y-93144836D01*
X203152127Y-93150500D01*
X203871458Y-93150499D01*
X203938497Y-93170183D01*
X203984252Y-93222987D01*
X203995142Y-93283341D01*
X203994500Y-93292315D01*
X203994500Y-94462165D01*
X203994859Y-94468861D01*
X203978792Y-94536858D01*
X203928514Y-94585374D01*
X203871037Y-94599500D01*
X194680606Y-94599500D01*
X194659287Y-94597654D01*
X194508318Y-94571306D01*
X194137944Y-94506666D01*
X194137931Y-94506663D01*
X194137886Y-94506656D01*
X194128798Y-94505155D01*
X194128437Y-94505099D01*
X194128380Y-94505092D01*
X194093549Y-94501775D01*
X194081130Y-94499954D01*
X194078851Y-94499501D01*
X194078849Y-94499500D01*
X194078845Y-94499500D01*
X194078842Y-94499500D01*
X194078841Y-94499500D01*
X194075547Y-94499500D01*
X194072998Y-94499378D01*
X194062380Y-94499444D01*
X194062379Y-94499432D01*
X194061118Y-94499500D01*
X193921153Y-94499500D01*
X193766527Y-94530257D01*
X193766496Y-94530264D01*
X193620833Y-94590598D01*
X193620824Y-94590603D01*
X193620807Y-94590613D01*
X193489708Y-94678211D01*
X193489707Y-94678212D01*
X193489701Y-94678217D01*
X193378217Y-94789701D01*
X193378212Y-94789707D01*
X193378211Y-94789708D01*
X193290613Y-94920807D01*
X193290603Y-94920824D01*
X193290598Y-94920833D01*
X193230272Y-95066475D01*
X193230264Y-95066499D01*
X193230259Y-95066513D01*
X193207247Y-95182204D01*
X193195505Y-95215488D01*
X193188258Y-95229342D01*
X193139755Y-95279613D01*
X193133375Y-95283247D01*
X193072003Y-95299500D01*
X182859349Y-95299500D01*
X182824413Y-95294477D01*
X182799171Y-95287065D01*
X182746426Y-95255769D01*
X178915445Y-91424788D01*
X178894296Y-91396538D01*
X178888874Y-91386608D01*
X178874021Y-91318338D01*
X178898435Y-91252873D01*
X178954365Y-91211001D01*
X178958244Y-91209554D01*
X178961580Y-91208311D01*
X179004894Y-91200500D01*
X180592284Y-91200500D01*
X180659323Y-91220185D01*
X180693733Y-91253198D01*
X180841473Y-91463409D01*
X180846028Y-91469786D01*
X180846264Y-91470111D01*
X180846266Y-91470113D01*
X180869343Y-91498131D01*
X180876719Y-91508057D01*
X180878210Y-91510288D01*
X180878213Y-91510292D01*
X180878215Y-91510294D01*
X180880480Y-91512559D01*
X180882135Y-91514382D01*
X180889823Y-91521985D01*
X180889818Y-91521989D01*
X180890717Y-91522796D01*
X180989707Y-91621786D01*
X180989711Y-91621789D01*
X181120814Y-91709390D01*
X181120827Y-91709397D01*
X181266498Y-91769735D01*
X181266503Y-91769737D01*
X181413513Y-91798979D01*
X181416247Y-91799703D01*
X181421155Y-91800500D01*
X181578844Y-91800500D01*
X181582964Y-91800500D01*
X181590814Y-91798118D01*
X181733497Y-91769737D01*
X181879179Y-91709394D01*
X182010289Y-91621789D01*
X182121789Y-91510289D01*
X182209394Y-91379179D01*
X182269737Y-91233497D01*
X182300500Y-91078842D01*
X182300500Y-90921158D01*
X182300500Y-90921155D01*
X182300500Y-90920973D01*
X182300065Y-90918971D01*
X182280590Y-90821064D01*
X182269737Y-90766503D01*
X182249992Y-90718834D01*
X182209397Y-90620827D01*
X182209390Y-90620814D01*
X182121789Y-90489711D01*
X182121786Y-90489707D01*
X182121781Y-90489701D01*
X182010294Y-90378214D01*
X181991807Y-90365861D01*
X181975689Y-90353032D01*
X181963434Y-90341491D01*
X181963426Y-90341484D01*
X181530453Y-90037184D01*
X181514073Y-90023415D01*
X181446545Y-89955887D01*
X181331810Y-89879224D01*
X181331809Y-89879223D01*
X181331807Y-89879222D01*
X181331805Y-89879221D01*
X181331803Y-89879220D01*
X181204347Y-89826426D01*
X181204336Y-89826423D01*
X181204332Y-89826421D01*
X181204322Y-89826418D01*
X181204317Y-89826416D01*
X181068998Y-89799500D01*
X181068996Y-89799500D01*
X181068994Y-89799500D01*
X181068993Y-89799500D01*
X180762200Y-89799500D01*
X180727264Y-89794477D01*
X180718631Y-89791942D01*
X180659853Y-89754167D01*
X180630829Y-89690610D01*
X180640773Y-89621452D01*
X180681040Y-89572387D01*
X180685204Y-89569385D01*
X180710266Y-89555409D01*
X180777745Y-89527459D01*
X180781243Y-89526153D01*
X180781803Y-89525778D01*
X180781807Y-89525777D01*
X180781808Y-89525776D01*
X180781811Y-89525775D01*
X180896543Y-89449114D01*
X181067813Y-89277844D01*
X183450000Y-89277844D01*
X183456400Y-89337370D01*
X183456401Y-89337372D01*
X183456403Y-89337379D01*
X183506645Y-89472086D01*
X183506649Y-89472093D01*
X183528774Y-89501648D01*
X183592807Y-89587185D01*
X183592813Y-89587191D01*
X183618209Y-89606202D01*
X183707906Y-89673350D01*
X183707913Y-89673354D01*
X183842620Y-89723596D01*
X183842627Y-89723598D01*
X183849468Y-89724333D01*
X183902138Y-89729998D01*
X183902155Y-89729999D01*
X183902172Y-89730000D01*
X184450000Y-89730000D01*
X184450000Y-89155000D01*
X183450000Y-89155000D01*
X183450000Y-89277844D01*
X181067813Y-89277844D01*
X181112160Y-89233497D01*
X181329701Y-89015957D01*
X183219111Y-87126546D01*
X183219113Y-87126544D01*
X183219114Y-87126543D01*
X183221506Y-87122962D01*
X183245085Y-87096706D01*
X183251318Y-87091497D01*
X183315377Y-87063609D01*
X183384347Y-87074780D01*
G37*
%TD.AperFunction*%
%TA.AperFunction,Conductor*%
G36*
X190654186Y-85076116D02*
G01*
X190661179Y-85079310D01*
X190697343Y-85104421D01*
X192489701Y-86896781D01*
X192489707Y-86896786D01*
X192489711Y-86896789D01*
X192620814Y-86984390D01*
X192620818Y-86984392D01*
X192620821Y-86984394D01*
X192766503Y-87044738D01*
X192815253Y-87054434D01*
X192859922Y-87063320D01*
X192859959Y-87063327D01*
X192905829Y-87072451D01*
X192918182Y-87074908D01*
X192920417Y-87075409D01*
X192921155Y-87075500D01*
X192921157Y-87075500D01*
X192921158Y-87075500D01*
X193078843Y-87075500D01*
X203624230Y-87075500D01*
X203659162Y-87080521D01*
X203684406Y-87087934D01*
X203737152Y-87119230D01*
X203958181Y-87340259D01*
X203991666Y-87401582D01*
X203994500Y-87427940D01*
X203994500Y-89412165D01*
X203994859Y-89418861D01*
X203978792Y-89486858D01*
X203928514Y-89535374D01*
X203871037Y-89549500D01*
X203152123Y-89549500D01*
X203150192Y-89549659D01*
X203148545Y-89549885D01*
X203092516Y-89555908D01*
X202957666Y-89606204D01*
X202957665Y-89606205D01*
X202842456Y-89692450D01*
X202842450Y-89692456D01*
X202756205Y-89807665D01*
X202756203Y-89807668D01*
X202705907Y-89942516D01*
X202699501Y-90002116D01*
X202699500Y-90002139D01*
X202699500Y-90043446D01*
X202679815Y-90110485D01*
X202652962Y-90140274D01*
X202050395Y-90622328D01*
X201985749Y-90648836D01*
X201972933Y-90649500D01*
X190441587Y-90649500D01*
X190406649Y-90644476D01*
X190394938Y-90641037D01*
X190336161Y-90603261D01*
X190307138Y-90539705D01*
X190315947Y-90473110D01*
X190321352Y-90460532D01*
X190321351Y-90460531D01*
X190324642Y-90452873D01*
X190333026Y-90436737D01*
X190409058Y-90313471D01*
X190411527Y-90309848D01*
X190414315Y-90304947D01*
X190423516Y-90290029D01*
X190423106Y-90288223D01*
X190429161Y-90256916D01*
X190465279Y-90147918D01*
X190465349Y-90147708D01*
X190475500Y-90048345D01*
X190475499Y-89501656D01*
X190472478Y-89472086D01*
X190470131Y-89449112D01*
X190465350Y-89402300D01*
X190465349Y-89402298D01*
X190465349Y-89402292D01*
X190465348Y-89402289D01*
X190424111Y-89277844D01*
X190412003Y-89241303D01*
X190412002Y-89241301D01*
X190411983Y-89241244D01*
X190411901Y-89241072D01*
X190410861Y-89239450D01*
X190322980Y-89096974D01*
X190322975Y-89096967D01*
X190322970Y-89096959D01*
X190322967Y-89096955D01*
X190322964Y-89096952D01*
X190320086Y-89093633D01*
X190320322Y-89093427D01*
X190320321Y-89093426D01*
X190320348Y-89093405D01*
X190320779Y-89093031D01*
X190304791Y-89071673D01*
X190297301Y-89057955D01*
X190282451Y-88989683D01*
X190282580Y-88987880D01*
X190301945Y-88929695D01*
X190306139Y-88923169D01*
X190320503Y-88905348D01*
X190322569Y-88902734D01*
X190322573Y-88902731D01*
X190411542Y-88758492D01*
X190411548Y-88758479D01*
X190426113Y-88714522D01*
X190441865Y-88682951D01*
X190449298Y-88672215D01*
X190503644Y-88628304D01*
X190573104Y-88620745D01*
X190631381Y-88648176D01*
X190634969Y-88651214D01*
X190638345Y-88654073D01*
X190658525Y-88675812D01*
X190677748Y-88702270D01*
X190797730Y-88822252D01*
X190935005Y-88921988D01*
X191086192Y-88999021D01*
X191247568Y-89051456D01*
X191415160Y-89078000D01*
X191415161Y-89078000D01*
X191584839Y-89078000D01*
X191584840Y-89078000D01*
X191752432Y-89051456D01*
X191913808Y-88999021D01*
X192064995Y-88921988D01*
X192202270Y-88822252D01*
X192322252Y-88702270D01*
X192421988Y-88564995D01*
X192499021Y-88413808D01*
X192551456Y-88252432D01*
X192578000Y-88084840D01*
X192578000Y-87915160D01*
X192551456Y-87747568D01*
X192499021Y-87586192D01*
X192421988Y-87435005D01*
X192322252Y-87297730D01*
X192202270Y-87177748D01*
X192064995Y-87078012D01*
X191932070Y-87010284D01*
X191913812Y-87000981D01*
X191913811Y-87000980D01*
X191913808Y-87000979D01*
X191752432Y-86948544D01*
X191584840Y-86922000D01*
X191584839Y-86922000D01*
X191415161Y-86922000D01*
X191415160Y-86922000D01*
X191367807Y-86929500D01*
X191358292Y-86931007D01*
X191257214Y-86947016D01*
X191256759Y-86947051D01*
X191247554Y-86948545D01*
X191247132Y-86948684D01*
X191086218Y-87000970D01*
X191086187Y-87000980D01*
X191086186Y-87000981D01*
X190935000Y-87078014D01*
X190856683Y-87134914D01*
X190856684Y-87134915D01*
X190809601Y-87169123D01*
X190802222Y-87173254D01*
X190677746Y-87297731D01*
X190674366Y-87302383D01*
X190649768Y-87327693D01*
X190644399Y-87331833D01*
X190579290Y-87357181D01*
X190510812Y-87343305D01*
X190460707Y-87294609D01*
X190444810Y-87227962D01*
X190445083Y-87221998D01*
X190451247Y-87188675D01*
X190461241Y-87158512D01*
X190464855Y-87147606D01*
X190474999Y-87048322D01*
X190475000Y-87048309D01*
X190475000Y-87025000D01*
X189750000Y-87025000D01*
X189750000Y-88083170D01*
X189748400Y-88088617D01*
X189749510Y-88094188D01*
X189744975Y-88118114D01*
X189740570Y-88133112D01*
X189730929Y-88148116D01*
X189730315Y-88150209D01*
X189728668Y-88151636D01*
X189702827Y-88191855D01*
X189701458Y-88193042D01*
X189646597Y-88220518D01*
X189639039Y-88222163D01*
X189612668Y-88225000D01*
X189391830Y-88225000D01*
X189356889Y-88219975D01*
X189341890Y-88215570D01*
X189329648Y-88207704D01*
X189315501Y-88204366D01*
X189300880Y-88189221D01*
X189283144Y-88177827D01*
X189281957Y-88176458D01*
X189274844Y-88162255D01*
X189266971Y-88154100D01*
X189264467Y-88141532D01*
X189254477Y-88121583D01*
X189252832Y-88114021D01*
X189250000Y-88087668D01*
X189250000Y-87025000D01*
X188525001Y-87025000D01*
X188525001Y-87048331D01*
X188535144Y-87147608D01*
X188588449Y-87308473D01*
X188588453Y-87308483D01*
X188588458Y-87308493D01*
X188657069Y-87419728D01*
X188671133Y-87452093D01*
X188675586Y-87468371D01*
X188674960Y-87536036D01*
X188671119Y-87549116D01*
X188657704Y-87579238D01*
X188657553Y-87579483D01*
X188634919Y-87606614D01*
X188622868Y-87617454D01*
X188560906Y-87647478D01*
X188546414Y-87649964D01*
X188512184Y-87651037D01*
X188511236Y-87650935D01*
X188504368Y-87650002D01*
X188497655Y-87648897D01*
X188481553Y-87649432D01*
X188477443Y-87649500D01*
X187890650Y-87649500D01*
X187833682Y-87635639D01*
X187480397Y-87452906D01*
X187480336Y-87452875D01*
X187006910Y-87207999D01*
X186976198Y-87185541D01*
X186358823Y-86568166D01*
X186337674Y-86539916D01*
X186332252Y-86529986D01*
X186317399Y-86461716D01*
X186341813Y-86396251D01*
X186397743Y-86354379D01*
X186401734Y-86352891D01*
X186458310Y-86345788D01*
X186502127Y-86350500D01*
X188385301Y-86350499D01*
X188420237Y-86355522D01*
X188434360Y-86359669D01*
X188493138Y-86397444D01*
X188521775Y-86458488D01*
X188523801Y-86470785D01*
X188525133Y-86499738D01*
X188525138Y-86499739D01*
X188525001Y-86501660D01*
X188525001Y-86501665D01*
X188525000Y-86501690D01*
X188525000Y-86525000D01*
X190474999Y-86525000D01*
X190474999Y-86501692D01*
X190474998Y-86501677D01*
X190464855Y-86402392D01*
X190411547Y-86241518D01*
X190411542Y-86241507D01*
X190337097Y-86120814D01*
X190322585Y-86097286D01*
X190322578Y-86097277D01*
X190322575Y-86097271D01*
X190322572Y-86097267D01*
X190322570Y-86097265D01*
X190322566Y-86097259D01*
X190322565Y-86097257D01*
X190320012Y-86094314D01*
X190304850Y-86072488D01*
X190297301Y-86058662D01*
X190282451Y-85990395D01*
X190282580Y-85988591D01*
X190301944Y-85930403D01*
X190306134Y-85923883D01*
X190322772Y-85903239D01*
X190322968Y-85903044D01*
X190412003Y-85758697D01*
X190465349Y-85597708D01*
X190475500Y-85498345D01*
X190475499Y-85199764D01*
X190480519Y-85164839D01*
X190481353Y-85161999D01*
X190483706Y-85153985D01*
X190521475Y-85095208D01*
X190585028Y-85066178D01*
X190654186Y-85076116D01*
G37*
%TD.AperFunction*%
%TA.AperFunction,Conductor*%
G36*
X176769892Y-69005023D02*
G01*
X176782316Y-69008671D01*
X176841094Y-69046445D01*
X176870119Y-69110001D01*
X176862279Y-69174279D01*
X176858794Y-69182866D01*
X176844214Y-69209120D01*
X176752582Y-69335241D01*
X176752581Y-69335242D01*
X176659225Y-69518461D01*
X176659220Y-69518471D01*
X176659220Y-69518473D01*
X176595669Y-69714060D01*
X176595668Y-69714063D01*
X176595668Y-69714065D01*
X176563500Y-69917164D01*
X176563500Y-70122834D01*
X176595668Y-70325933D01*
X176595669Y-70325939D01*
X176659220Y-70521526D01*
X176752581Y-70704755D01*
X176873458Y-70871128D01*
X177018872Y-71016542D01*
X177018878Y-71016546D01*
X177028398Y-71023464D01*
X177053704Y-71048057D01*
X177060608Y-71057010D01*
X177085958Y-71122119D01*
X177072084Y-71190597D01*
X177023402Y-71240696D01*
X177018302Y-71243577D01*
X176970568Y-71258902D01*
X176956626Y-71260400D01*
X176956616Y-71260404D01*
X176821910Y-71310646D01*
X176821907Y-71310648D01*
X176706813Y-71396807D01*
X176706807Y-71396813D01*
X176620648Y-71511907D01*
X176620646Y-71511910D01*
X176570402Y-71646621D01*
X176570400Y-71646628D01*
X176564000Y-71706146D01*
X176564000Y-71706155D01*
X176564000Y-72310000D01*
X177218927Y-72310000D01*
X177285966Y-72329685D01*
X177331721Y-72382489D01*
X177341665Y-72451647D01*
X177338704Y-72466081D01*
X177332500Y-72489237D01*
X177332500Y-72630763D01*
X177338701Y-72653908D01*
X177337039Y-72723756D01*
X177297877Y-72781618D01*
X177233649Y-72809123D01*
X177218927Y-72810000D01*
X176564000Y-72810000D01*
X176564000Y-73413852D01*
X176570400Y-73473370D01*
X176570402Y-73473377D01*
X176620646Y-73608088D01*
X176620648Y-73608091D01*
X176706807Y-73723185D01*
X176706809Y-73723187D01*
X176706812Y-73723190D01*
X176821906Y-73809350D01*
X176821913Y-73809354D01*
X176956620Y-73859596D01*
X176956627Y-73859598D01*
X176963468Y-73860333D01*
X177016138Y-73865998D01*
X177016155Y-73865999D01*
X177016172Y-73866000D01*
X177620000Y-73866000D01*
X177620000Y-73211073D01*
X177639685Y-73144034D01*
X177692489Y-73098279D01*
X177761647Y-73088335D01*
X177776081Y-73091295D01*
X177799237Y-73097500D01*
X177940760Y-73097500D01*
X177940763Y-73097500D01*
X177963908Y-73091298D01*
X178033756Y-73092961D01*
X178091618Y-73132123D01*
X178119123Y-73196351D01*
X178120000Y-73211073D01*
X178120000Y-73866000D01*
X178723828Y-73866000D01*
X178723836Y-73866000D01*
X178723847Y-73865999D01*
X178759560Y-73862158D01*
X178783372Y-73859598D01*
X178783379Y-73859596D01*
X178918086Y-73809354D01*
X178918093Y-73809350D01*
X179033187Y-73723190D01*
X179033190Y-73723187D01*
X179119350Y-73608093D01*
X179119354Y-73608086D01*
X179169596Y-73473379D01*
X179169598Y-73473372D01*
X179171069Y-73459689D01*
X179175998Y-73413860D01*
X179176000Y-73413827D01*
X179176000Y-72810000D01*
X178521073Y-72810000D01*
X178454034Y-72790315D01*
X178408279Y-72737511D01*
X178398335Y-72668353D01*
X178401295Y-72653918D01*
X178407500Y-72630763D01*
X178407500Y-72489237D01*
X178401298Y-72466091D01*
X178402961Y-72396244D01*
X178442123Y-72338382D01*
X178506351Y-72310877D01*
X178521073Y-72310000D01*
X179176000Y-72310000D01*
X179176000Y-71706172D01*
X179175998Y-71706138D01*
X179169598Y-71646628D01*
X179169596Y-71646621D01*
X179141731Y-71571910D01*
X179119354Y-71511913D01*
X179119350Y-71511906D01*
X179033190Y-71396812D01*
X179033187Y-71396809D01*
X179033182Y-71396805D01*
X178966974Y-71347241D01*
X178925104Y-71291307D01*
X178920120Y-71221615D01*
X178953606Y-71160292D01*
X179014930Y-71126808D01*
X179017143Y-71126349D01*
X179540977Y-71022852D01*
X179565012Y-71020500D01*
X195166335Y-71020500D01*
X195195396Y-71023953D01*
X195763265Y-71160861D01*
X195823824Y-71195709D01*
X195855929Y-71257766D01*
X195849386Y-71327329D01*
X195808515Y-71380673D01*
X195706816Y-71456805D01*
X195706810Y-71456810D01*
X195706807Y-71456813D01*
X195620648Y-71571907D01*
X195620646Y-71571910D01*
X195570402Y-71706621D01*
X195570400Y-71706628D01*
X195564000Y-71766146D01*
X195564000Y-71766155D01*
X195564000Y-72370000D01*
X196218927Y-72370000D01*
X196285966Y-72389685D01*
X196331721Y-72442489D01*
X196341665Y-72511647D01*
X196338704Y-72526081D01*
X196332500Y-72549237D01*
X196332500Y-72690763D01*
X196338701Y-72713908D01*
X196337039Y-72783756D01*
X196297877Y-72841618D01*
X196233649Y-72869123D01*
X196218927Y-72870000D01*
X195564000Y-72870000D01*
X195564000Y-73473852D01*
X195570400Y-73533370D01*
X195570402Y-73533377D01*
X195620646Y-73668088D01*
X195620648Y-73668091D01*
X195706807Y-73783185D01*
X195706809Y-73783187D01*
X195706812Y-73783190D01*
X195821906Y-73869350D01*
X195821913Y-73869354D01*
X195956620Y-73919596D01*
X195956627Y-73919598D01*
X195963468Y-73920333D01*
X196016138Y-73925998D01*
X196016155Y-73925999D01*
X196016172Y-73926000D01*
X196620000Y-73926000D01*
X196620000Y-73271073D01*
X196639685Y-73204034D01*
X196692489Y-73158279D01*
X196761647Y-73148335D01*
X196776081Y-73151295D01*
X196799237Y-73157500D01*
X196940760Y-73157500D01*
X196940763Y-73157500D01*
X196963908Y-73151298D01*
X197033756Y-73152961D01*
X197091618Y-73192123D01*
X197119123Y-73256351D01*
X197120000Y-73271073D01*
X197120000Y-73926000D01*
X197723828Y-73926000D01*
X197723836Y-73926000D01*
X197723847Y-73925999D01*
X197759560Y-73922158D01*
X197783372Y-73919598D01*
X197783379Y-73919596D01*
X197918086Y-73869354D01*
X197918093Y-73869350D01*
X198033187Y-73783190D01*
X198033190Y-73783187D01*
X198119350Y-73668093D01*
X198119354Y-73668086D01*
X198169596Y-73533379D01*
X198169598Y-73533372D01*
X198171069Y-73519689D01*
X198175998Y-73473860D01*
X198176000Y-73473827D01*
X198176000Y-72870000D01*
X197521073Y-72870000D01*
X197454034Y-72850315D01*
X197408279Y-72797511D01*
X197398335Y-72728353D01*
X197401295Y-72713918D01*
X197407500Y-72690763D01*
X197407500Y-72549237D01*
X197401298Y-72526091D01*
X197402961Y-72456244D01*
X197442123Y-72398382D01*
X197506351Y-72370877D01*
X197521073Y-72370000D01*
X198176000Y-72370000D01*
X198176000Y-71766172D01*
X198175998Y-71766138D01*
X198169598Y-71706628D01*
X198169596Y-71706621D01*
X198169429Y-71706172D01*
X198119354Y-71571913D01*
X198119350Y-71571906D01*
X198033190Y-71456812D01*
X198033187Y-71456809D01*
X198033182Y-71456805D01*
X197966974Y-71407241D01*
X197925104Y-71351307D01*
X197920120Y-71281615D01*
X197953606Y-71220292D01*
X198014930Y-71186808D01*
X198017143Y-71186349D01*
X198540977Y-71082852D01*
X198565012Y-71080500D01*
X199596388Y-71080500D01*
X199631320Y-71085521D01*
X199656564Y-71092934D01*
X199709310Y-71124230D01*
X213950573Y-85365493D01*
X213971723Y-85393745D01*
X213984331Y-85416834D01*
X213999500Y-85476263D01*
X213999500Y-119016387D01*
X213994476Y-119051324D01*
X213987064Y-119076565D01*
X213955769Y-119129309D01*
X208634506Y-124450573D01*
X208606255Y-124471722D01*
X208583167Y-124484330D01*
X208523737Y-124499500D01*
X191629500Y-124499500D01*
X191562461Y-124479815D01*
X191516706Y-124427011D01*
X191505500Y-124375500D01*
X191505500Y-123438384D01*
X197574500Y-123438384D01*
X197574500Y-123561614D01*
X197598533Y-123682437D01*
X197598534Y-123682441D01*
X197598535Y-123682444D01*
X197598538Y-123682454D01*
X197598541Y-123682462D01*
X197598546Y-123682476D01*
X197645681Y-123796272D01*
X197645696Y-123796299D01*
X197714145Y-123898738D01*
X197801257Y-123985850D01*
X197801263Y-123985855D01*
X197801264Y-123985856D01*
X197903710Y-124054309D01*
X197903713Y-124054310D01*
X197903714Y-124054311D01*
X198017548Y-124101463D01*
X198057439Y-124109397D01*
X198135434Y-124124912D01*
X198137649Y-124125408D01*
X198138391Y-124125500D01*
X198261607Y-124125500D01*
X198265729Y-124125500D01*
X198273583Y-124123117D01*
X198382452Y-124101463D01*
X198496286Y-124054311D01*
X198598733Y-123985858D01*
X198685858Y-123898733D01*
X198754311Y-123796286D01*
X198801463Y-123682452D01*
X198825500Y-123561606D01*
X198825500Y-123438394D01*
X198825498Y-123438384D01*
X199374500Y-123438384D01*
X199374500Y-123561614D01*
X199398533Y-123682437D01*
X199398534Y-123682441D01*
X199398535Y-123682444D01*
X199398538Y-123682454D01*
X199398541Y-123682462D01*
X199398546Y-123682476D01*
X199445681Y-123796272D01*
X199445696Y-123796299D01*
X199514145Y-123898738D01*
X199601257Y-123985850D01*
X199601263Y-123985855D01*
X199601264Y-123985856D01*
X199703710Y-124054309D01*
X199703713Y-124054310D01*
X199703714Y-124054311D01*
X199817548Y-124101463D01*
X199857439Y-124109397D01*
X199935434Y-124124912D01*
X199937649Y-124125408D01*
X199938391Y-124125500D01*
X200061607Y-124125500D01*
X200065729Y-124125500D01*
X200073583Y-124123117D01*
X200182452Y-124101463D01*
X200296286Y-124054311D01*
X200398733Y-123985858D01*
X200485858Y-123898733D01*
X200554311Y-123796286D01*
X200601463Y-123682452D01*
X200625500Y-123561606D01*
X200625500Y-123438394D01*
X200625498Y-123438384D01*
X203374500Y-123438384D01*
X203374500Y-123561614D01*
X203398533Y-123682437D01*
X203398534Y-123682441D01*
X203398535Y-123682444D01*
X203398538Y-123682454D01*
X203398541Y-123682462D01*
X203398546Y-123682476D01*
X203445681Y-123796272D01*
X203445696Y-123796299D01*
X203514145Y-123898738D01*
X203601257Y-123985850D01*
X203601263Y-123985855D01*
X203601264Y-123985856D01*
X203703710Y-124054309D01*
X203703713Y-124054310D01*
X203703714Y-124054311D01*
X203817548Y-124101463D01*
X203857439Y-124109397D01*
X203935434Y-124124912D01*
X203937649Y-124125408D01*
X203938391Y-124125500D01*
X204061607Y-124125500D01*
X204065729Y-124125500D01*
X204073583Y-124123117D01*
X204182452Y-124101463D01*
X204296286Y-124054311D01*
X204398733Y-123985858D01*
X204485858Y-123898733D01*
X204554311Y-123796286D01*
X204601463Y-123682452D01*
X204625500Y-123561606D01*
X204625500Y-123438394D01*
X204625498Y-123438384D01*
X205174500Y-123438384D01*
X205174500Y-123561614D01*
X205198533Y-123682437D01*
X205198534Y-123682441D01*
X205198535Y-123682444D01*
X205198538Y-123682454D01*
X205198541Y-123682462D01*
X205198546Y-123682476D01*
X205245681Y-123796272D01*
X205245696Y-123796299D01*
X205314145Y-123898738D01*
X205401257Y-123985850D01*
X205401263Y-123985855D01*
X205401264Y-123985856D01*
X205503710Y-124054309D01*
X205503713Y-124054310D01*
X205503714Y-124054311D01*
X205617548Y-124101463D01*
X205657439Y-124109397D01*
X205735434Y-124124912D01*
X205737649Y-124125408D01*
X205738391Y-124125500D01*
X205861607Y-124125500D01*
X205865729Y-124125500D01*
X205873583Y-124123117D01*
X205982452Y-124101463D01*
X206096286Y-124054311D01*
X206198733Y-123985858D01*
X206285858Y-123898733D01*
X206354311Y-123796286D01*
X206401463Y-123682452D01*
X206425500Y-123561606D01*
X206425500Y-123438394D01*
X206401463Y-123317548D01*
X206354311Y-123203714D01*
X206354310Y-123203713D01*
X206354309Y-123203710D01*
X206285856Y-123101264D01*
X206285855Y-123101263D01*
X206285850Y-123101257D01*
X206198738Y-123014145D01*
X206096299Y-122945696D01*
X206096294Y-122945693D01*
X206096292Y-122945692D01*
X206096283Y-122945687D01*
X206096276Y-122945684D01*
X206096274Y-122945683D01*
X206073120Y-122936092D01*
X206057603Y-122923587D01*
X205982454Y-122898538D01*
X205982455Y-122898538D01*
X205982452Y-122898537D01*
X205982448Y-122898536D01*
X205982444Y-122898535D01*
X205982442Y-122898534D01*
X205982418Y-122898529D01*
X205861614Y-122874500D01*
X205861610Y-122874500D01*
X205861606Y-122874500D01*
X205738394Y-122874500D01*
X205738389Y-122874500D01*
X205738384Y-122874500D01*
X205617561Y-122898533D01*
X205617555Y-122898535D01*
X205617545Y-122898538D01*
X205617540Y-122898539D01*
X205617522Y-122898546D01*
X205503726Y-122945681D01*
X205503699Y-122945696D01*
X205401260Y-123014145D01*
X205314145Y-123101260D01*
X205245696Y-123203699D01*
X205245681Y-123203726D01*
X205198546Y-123317522D01*
X205198533Y-123317561D01*
X205174500Y-123438384D01*
X204625498Y-123438384D01*
X204601463Y-123317548D01*
X204554311Y-123203714D01*
X204554310Y-123203713D01*
X204554309Y-123203710D01*
X204485856Y-123101264D01*
X204485855Y-123101263D01*
X204485850Y-123101257D01*
X204398738Y-123014145D01*
X204296299Y-122945696D01*
X204296294Y-122945693D01*
X204296292Y-122945692D01*
X204296283Y-122945687D01*
X204296276Y-122945684D01*
X204296274Y-122945683D01*
X204273120Y-122936092D01*
X204257603Y-122923587D01*
X204182454Y-122898538D01*
X204182455Y-122898538D01*
X204182452Y-122898537D01*
X204182448Y-122898536D01*
X204182444Y-122898535D01*
X204182442Y-122898534D01*
X204182418Y-122898529D01*
X204061614Y-122874500D01*
X204061610Y-122874500D01*
X204061606Y-122874500D01*
X203938394Y-122874500D01*
X203938389Y-122874500D01*
X203938384Y-122874500D01*
X203817561Y-122898533D01*
X203817555Y-122898535D01*
X203817545Y-122898538D01*
X203817540Y-122898539D01*
X203817522Y-122898546D01*
X203703726Y-122945681D01*
X203703699Y-122945696D01*
X203601260Y-123014145D01*
X203514145Y-123101260D01*
X203445696Y-123203699D01*
X203445681Y-123203726D01*
X203398546Y-123317522D01*
X203398533Y-123317561D01*
X203374500Y-123438384D01*
X200625498Y-123438384D01*
X200601463Y-123317548D01*
X200554311Y-123203714D01*
X200554310Y-123203713D01*
X200554309Y-123203710D01*
X200485856Y-123101264D01*
X200485855Y-123101263D01*
X200485850Y-123101257D01*
X200398738Y-123014145D01*
X200296299Y-122945696D01*
X200296294Y-122945693D01*
X200296292Y-122945692D01*
X200296283Y-122945687D01*
X200296276Y-122945684D01*
X200296274Y-122945683D01*
X200273120Y-122936092D01*
X200257603Y-122923587D01*
X200182454Y-122898538D01*
X200182455Y-122898538D01*
X200182452Y-122898537D01*
X200182448Y-122898536D01*
X200182444Y-122898535D01*
X200182442Y-122898534D01*
X200182418Y-122898529D01*
X200061614Y-122874500D01*
X200061610Y-122874500D01*
X200061606Y-122874500D01*
X199938394Y-122874500D01*
X199938389Y-122874500D01*
X199938384Y-122874500D01*
X199817561Y-122898533D01*
X199817555Y-122898535D01*
X199817545Y-122898538D01*
X199817540Y-122898539D01*
X199817522Y-122898546D01*
X199703726Y-122945681D01*
X199703699Y-122945696D01*
X199601260Y-123014145D01*
X199514145Y-123101260D01*
X199445696Y-123203699D01*
X199445681Y-123203726D01*
X199398546Y-123317522D01*
X199398533Y-123317561D01*
X199374500Y-123438384D01*
X198825498Y-123438384D01*
X198801463Y-123317548D01*
X198754311Y-123203714D01*
X198754310Y-123203713D01*
X198754309Y-123203710D01*
X198685856Y-123101264D01*
X198685855Y-123101263D01*
X198685850Y-123101257D01*
X198598738Y-123014145D01*
X198496299Y-122945696D01*
X198496294Y-122945693D01*
X198496292Y-122945692D01*
X198496283Y-122945687D01*
X198496276Y-122945684D01*
X198496274Y-122945683D01*
X198473120Y-122936092D01*
X198457603Y-122923587D01*
X198382454Y-122898538D01*
X198382455Y-122898538D01*
X198382452Y-122898537D01*
X198382448Y-122898536D01*
X198382444Y-122898535D01*
X198382442Y-122898534D01*
X198382418Y-122898529D01*
X198261614Y-122874500D01*
X198261610Y-122874500D01*
X198261606Y-122874500D01*
X198138394Y-122874500D01*
X198138389Y-122874500D01*
X198138384Y-122874500D01*
X198017561Y-122898533D01*
X198017555Y-122898535D01*
X198017545Y-122898538D01*
X198017540Y-122898539D01*
X198017522Y-122898546D01*
X197903726Y-122945681D01*
X197903699Y-122945696D01*
X197801260Y-123014145D01*
X197714145Y-123101260D01*
X197645696Y-123203699D01*
X197645681Y-123203726D01*
X197598546Y-123317522D01*
X197598533Y-123317561D01*
X197574500Y-123438384D01*
X191505500Y-123438384D01*
X191505500Y-121997852D01*
X202700000Y-121997852D01*
X202706400Y-122057370D01*
X202706401Y-122057372D01*
X202706403Y-122057379D01*
X202756645Y-122192086D01*
X202756649Y-122192093D01*
X202779743Y-122222942D01*
X202842807Y-122307185D01*
X202842809Y-122307187D01*
X202842812Y-122307190D01*
X202957906Y-122393350D01*
X202957913Y-122393354D01*
X203092620Y-122443596D01*
X203092627Y-122443598D01*
X203099468Y-122444333D01*
X203152138Y-122449998D01*
X203152155Y-122449999D01*
X203152172Y-122450000D01*
X204750000Y-122450000D01*
X204750000Y-120900000D01*
X202700000Y-120900000D01*
X202700000Y-121997852D01*
X191505500Y-121997852D01*
X191505500Y-121624010D01*
X191505500Y-121624000D01*
X191493947Y-121516544D01*
X191482741Y-121465033D01*
X191468137Y-121421155D01*
X191448616Y-121362502D01*
X191448613Y-121362496D01*
X191408258Y-121299703D01*
X191370825Y-121241457D01*
X191358312Y-121227016D01*
X191325076Y-121188659D01*
X191325072Y-121188656D01*
X191325070Y-121188653D01*
X191216336Y-121094433D01*
X191216333Y-121094431D01*
X191216331Y-121094430D01*
X191085465Y-121034664D01*
X191085460Y-121034662D01*
X191085459Y-121034662D01*
X191018420Y-121014977D01*
X191018422Y-121014977D01*
X191018417Y-121014976D01*
X190956347Y-121006052D01*
X190876000Y-120994500D01*
X190875998Y-120994500D01*
X183624010Y-120994500D01*
X183624000Y-120994500D01*
X183623991Y-120994500D01*
X183623990Y-120994501D01*
X183516549Y-121006052D01*
X183516537Y-121006054D01*
X183465027Y-121017260D01*
X183362502Y-121051383D01*
X183362496Y-121051386D01*
X183241462Y-121129171D01*
X183241451Y-121129179D01*
X183188659Y-121174923D01*
X183094433Y-121283664D01*
X183094430Y-121283668D01*
X183034664Y-121414534D01*
X183014976Y-121481582D01*
X183009949Y-121516549D01*
X182994500Y-121624000D01*
X182994500Y-125876000D01*
X182994501Y-125876009D01*
X183006052Y-125983450D01*
X183006054Y-125983462D01*
X183017260Y-126034972D01*
X183051383Y-126137497D01*
X183051386Y-126137503D01*
X183129171Y-126258537D01*
X183129179Y-126258548D01*
X183174923Y-126311340D01*
X183174926Y-126311343D01*
X183174930Y-126311347D01*
X183283664Y-126405567D01*
X183283667Y-126405568D01*
X183283668Y-126405569D01*
X183407343Y-126462051D01*
X183414541Y-126465338D01*
X183481580Y-126485023D01*
X183481584Y-126485024D01*
X183624000Y-126505500D01*
X190875990Y-126505500D01*
X190876000Y-126505500D01*
X190915911Y-126501209D01*
X190929148Y-126500500D01*
X209098542Y-126500500D01*
X209117870Y-126496655D01*
X209195188Y-126481275D01*
X209291836Y-126462051D01*
X209345165Y-126439961D01*
X209473914Y-126386632D01*
X209637782Y-126277139D01*
X209777139Y-126137782D01*
X209777139Y-126137780D01*
X209787347Y-126127573D01*
X209787347Y-126127571D01*
X209787774Y-126127145D01*
X209787784Y-126127136D01*
X209797545Y-126117376D01*
X209797556Y-126117361D01*
X215777139Y-120137782D01*
X215819300Y-120074684D01*
X215872731Y-119994720D01*
X215879701Y-119984287D01*
X215879702Y-119984288D01*
X215879712Y-119984268D01*
X215886632Y-119973914D01*
X215962051Y-119791835D01*
X215962296Y-119790606D01*
X216000500Y-119598541D01*
X216000500Y-119401460D01*
X216000500Y-84901459D01*
X216000500Y-84901456D01*
X215980418Y-84800501D01*
X215980418Y-84800500D01*
X215964829Y-84722129D01*
X215962051Y-84708164D01*
X215911172Y-84585331D01*
X215911172Y-84585330D01*
X215886635Y-84526092D01*
X215886628Y-84526079D01*
X215810703Y-84412450D01*
X215777141Y-84362220D01*
X215777140Y-84362219D01*
X215715421Y-84300500D01*
X215637782Y-84222861D01*
X215637781Y-84222860D01*
X200874579Y-69459659D01*
X200874578Y-69459657D01*
X200872889Y-69457968D01*
X200857395Y-69439069D01*
X200840468Y-69413679D01*
X200811682Y-69396761D01*
X200717780Y-69302859D01*
X200619220Y-69237004D01*
X200592967Y-69213421D01*
X200585712Y-69204740D01*
X200557829Y-69140677D01*
X200569008Y-69071707D01*
X200615699Y-69019730D01*
X200615712Y-69019722D01*
X200617699Y-69018495D01*
X200682850Y-69000000D01*
X217357670Y-69000000D01*
X217392606Y-69005023D01*
X217407604Y-69009427D01*
X217466355Y-69047172D01*
X217467542Y-69048541D01*
X217495018Y-69103402D01*
X217496663Y-69110960D01*
X217499500Y-69137331D01*
X217499500Y-132357670D01*
X217494475Y-132392614D01*
X217490070Y-132407612D01*
X217452327Y-132466355D01*
X217450958Y-132467542D01*
X217396097Y-132495018D01*
X217388539Y-132496663D01*
X217362168Y-132499500D01*
X162642330Y-132499500D01*
X162607389Y-132494475D01*
X162592390Y-132490070D01*
X162533644Y-132452327D01*
X162532457Y-132450958D01*
X162504977Y-132396083D01*
X162503332Y-132388521D01*
X162500500Y-132362168D01*
X162500500Y-128078848D01*
X170699499Y-128078848D01*
X170730257Y-128233471D01*
X170730264Y-128233502D01*
X170790598Y-128379165D01*
X170790603Y-128379174D01*
X170790613Y-128379191D01*
X170878211Y-128510290D01*
X170878212Y-128510291D01*
X170878217Y-128510297D01*
X170989701Y-128621781D01*
X170989707Y-128621786D01*
X170989711Y-128621789D01*
X171120814Y-128709390D01*
X171120827Y-128709397D01*
X171266498Y-128769735D01*
X171266503Y-128769737D01*
X171413518Y-128798980D01*
X171416246Y-128799703D01*
X171421155Y-128800500D01*
X171421156Y-128800500D01*
X171441701Y-128800500D01*
X171476635Y-128805523D01*
X171489703Y-128809360D01*
X171548481Y-128847134D01*
X171577507Y-128910689D01*
X171570560Y-128972704D01*
X171567605Y-128980416D01*
X171554916Y-129004940D01*
X171473812Y-129126319D01*
X171473809Y-129126324D01*
X171473801Y-129126339D01*
X171398430Y-129308304D01*
X171398421Y-129308343D01*
X171360000Y-129501500D01*
X171360000Y-129501504D01*
X171360000Y-129750000D01*
X171936000Y-129750000D01*
X172003039Y-129769685D01*
X172048794Y-129822489D01*
X172060000Y-129874000D01*
X172060000Y-130126000D01*
X172040315Y-130193039D01*
X171987511Y-130238794D01*
X171936000Y-130250000D01*
X171360000Y-130250000D01*
X171360000Y-130498498D01*
X171398421Y-130691655D01*
X171398430Y-130691694D01*
X171473803Y-130873664D01*
X171473808Y-130873673D01*
X171473818Y-130873690D01*
X171583249Y-131037464D01*
X171583250Y-131037465D01*
X171583255Y-131037471D01*
X171722527Y-131176743D01*
X171722533Y-131176748D01*
X171722537Y-131176751D01*
X171886315Y-131286185D01*
X171886328Y-131286192D01*
X171966803Y-131319525D01*
X172068302Y-131361567D01*
X172068310Y-131361570D01*
X172110000Y-131369862D01*
X172110000Y-130805195D01*
X172129685Y-130738156D01*
X172182489Y-130692401D01*
X172251647Y-130682457D01*
X172266073Y-130685415D01*
X172320504Y-130700000D01*
X172399493Y-130700000D01*
X172399496Y-130700000D01*
X172453910Y-130685420D01*
X172523756Y-130687083D01*
X172581619Y-130726245D01*
X172609123Y-130790473D01*
X172610000Y-130805195D01*
X172610000Y-131369861D01*
X172610000Y-131369862D01*
X172651690Y-131361569D01*
X172651692Y-131361569D01*
X172833671Y-131286192D01*
X172833684Y-131286185D01*
X172997462Y-131176751D01*
X172997466Y-131176748D01*
X173136748Y-131037466D01*
X173136751Y-131037462D01*
X173246185Y-130873684D01*
X173246192Y-130873671D01*
X173321569Y-130691693D01*
X173321572Y-130691681D01*
X173358480Y-130506130D01*
X173359203Y-130503401D01*
X173360000Y-130498493D01*
X173360000Y-130250000D01*
X172784000Y-130250000D01*
X172716961Y-130230315D01*
X172671206Y-130177511D01*
X172660000Y-130126000D01*
X172660000Y-129874000D01*
X172679685Y-129806961D01*
X172732489Y-129761206D01*
X172784000Y-129750000D01*
X173360000Y-129750000D01*
X173360000Y-129501506D01*
X173359909Y-129500768D01*
X173359408Y-129498533D01*
X173321577Y-129308343D01*
X173321576Y-129308342D01*
X173321572Y-129308318D01*
X173321569Y-129308306D01*
X173246197Y-129126339D01*
X173246195Y-129126334D01*
X173246190Y-129126325D01*
X173246185Y-129126315D01*
X173136751Y-128962537D01*
X173136748Y-128962533D01*
X173136743Y-128962527D01*
X173000822Y-128826606D01*
X172986021Y-128808735D01*
X172981499Y-128802096D01*
X172977531Y-128796270D01*
X172956059Y-128729785D01*
X172973940Y-128662242D01*
X173025498Y-128615089D01*
X173029517Y-128613123D01*
X173084025Y-128600500D01*
X174911380Y-128600500D01*
X174911443Y-128600501D01*
X174913347Y-128600501D01*
X174920943Y-128600501D01*
X175079054Y-128600501D01*
X175079057Y-128600501D01*
X175231785Y-128559577D01*
X175281904Y-128530639D01*
X175368716Y-128480520D01*
X175368717Y-128480519D01*
X175413422Y-128435814D01*
X175449008Y-128410968D01*
X175817099Y-128240554D01*
X175853612Y-128221814D01*
X175853613Y-128221812D01*
X175858677Y-128219214D01*
X175858702Y-128219262D01*
X175871839Y-128212433D01*
X175879179Y-128209394D01*
X176010289Y-128121789D01*
X176121789Y-128010289D01*
X176209394Y-127879179D01*
X176209852Y-127878072D01*
X176211199Y-127875801D01*
X176212267Y-127873804D01*
X176212356Y-127873851D01*
X176227861Y-127847713D01*
X176237667Y-127835543D01*
X176295055Y-127795692D01*
X176295056Y-127795691D01*
X176302033Y-127793368D01*
X176365384Y-127789406D01*
X176385307Y-127793369D01*
X176421154Y-127800500D01*
X176578844Y-127800500D01*
X176582964Y-127800500D01*
X176590814Y-127798118D01*
X176733497Y-127769737D01*
X176879179Y-127709394D01*
X177009053Y-127622614D01*
X177018469Y-127616913D01*
X177038783Y-127605818D01*
X177107053Y-127590961D01*
X177172519Y-127615372D01*
X177211462Y-127664132D01*
X177214828Y-127671678D01*
X177223201Y-127698000D01*
X177230259Y-127733485D01*
X177230260Y-127733490D01*
X177230261Y-127733491D01*
X177230264Y-127733501D01*
X177230267Y-127733509D01*
X177230272Y-127733523D01*
X177290598Y-127879165D01*
X177290603Y-127879174D01*
X177290613Y-127879191D01*
X177378211Y-128010290D01*
X177378212Y-128010291D01*
X177378217Y-128010297D01*
X177489701Y-128121781D01*
X177489707Y-128121786D01*
X177489711Y-128121789D01*
X177620814Y-128209390D01*
X177620827Y-128209397D01*
X177628150Y-128212430D01*
X177649255Y-128221172D01*
X177669380Y-128231765D01*
X177682899Y-128240553D01*
X178050991Y-128410968D01*
X178050993Y-128410969D01*
X178086578Y-128435814D01*
X178131336Y-128480572D01*
X178131852Y-128480952D01*
X178134475Y-128482363D01*
X178268209Y-128559573D01*
X178268216Y-128559577D01*
X178420943Y-128600501D01*
X178420945Y-128600501D01*
X178586654Y-128600501D01*
X178588558Y-128600501D01*
X178588621Y-128600500D01*
X180269570Y-128600500D01*
X180304497Y-128605521D01*
X180315350Y-128608707D01*
X180374131Y-128646477D01*
X180403160Y-128710031D01*
X180393221Y-128779190D01*
X180393218Y-128779196D01*
X180391168Y-128783685D01*
X180364186Y-128820591D01*
X180364689Y-128821094D01*
X180223255Y-128962527D01*
X180223250Y-128962533D01*
X180223249Y-128962534D01*
X180113818Y-129126308D01*
X180113808Y-129126325D01*
X180113803Y-129126334D01*
X180038430Y-129308304D01*
X180038421Y-129308343D01*
X180000000Y-129501500D01*
X180000000Y-129501504D01*
X180000000Y-129750000D01*
X180576000Y-129750000D01*
X180643039Y-129769685D01*
X180688794Y-129822489D01*
X180700000Y-129874000D01*
X180700000Y-130126000D01*
X180680315Y-130193039D01*
X180627511Y-130238794D01*
X180576000Y-130250000D01*
X180000000Y-130250000D01*
X180000000Y-130498498D01*
X180038421Y-130691655D01*
X180038430Y-130691694D01*
X180113803Y-130873664D01*
X180113808Y-130873673D01*
X180113818Y-130873690D01*
X180223249Y-131037464D01*
X180223250Y-131037465D01*
X180223255Y-131037471D01*
X180362527Y-131176743D01*
X180362533Y-131176748D01*
X180362537Y-131176751D01*
X180526315Y-131286185D01*
X180526328Y-131286192D01*
X180606803Y-131319525D01*
X180708302Y-131361567D01*
X180708310Y-131361570D01*
X180750000Y-131369862D01*
X180750000Y-130805195D01*
X180769685Y-130738156D01*
X180822489Y-130692401D01*
X180891647Y-130682457D01*
X180906073Y-130685415D01*
X180960504Y-130700000D01*
X181039493Y-130700000D01*
X181039496Y-130700000D01*
X181093910Y-130685420D01*
X181163756Y-130687083D01*
X181221619Y-130726245D01*
X181249123Y-130790473D01*
X181250000Y-130805195D01*
X181250000Y-131369861D01*
X181250000Y-131369862D01*
X181291690Y-131361569D01*
X181291692Y-131361569D01*
X181473671Y-131286192D01*
X181473684Y-131286185D01*
X181637462Y-131176751D01*
X181637466Y-131176748D01*
X181776748Y-131037466D01*
X181776751Y-131037462D01*
X181886185Y-130873684D01*
X181886192Y-130873671D01*
X181961569Y-130691693D01*
X181961572Y-130691681D01*
X181998480Y-130506130D01*
X181999203Y-130503401D01*
X182000000Y-130498493D01*
X182000000Y-130250000D01*
X181424000Y-130250000D01*
X181356961Y-130230315D01*
X181311206Y-130177511D01*
X181300000Y-130126000D01*
X181300000Y-129874000D01*
X181319685Y-129806961D01*
X181372489Y-129761206D01*
X181424000Y-129750000D01*
X182000000Y-129750000D01*
X182000000Y-129501506D01*
X181999909Y-129500768D01*
X181999408Y-129498533D01*
X181961577Y-129308343D01*
X181961576Y-129308342D01*
X181961572Y-129308318D01*
X181961569Y-129308306D01*
X181886197Y-129126339D01*
X181886195Y-129126334D01*
X181886190Y-129126325D01*
X181886185Y-129126315D01*
X181805970Y-129006266D01*
X181790741Y-128974435D01*
X181787359Y-128963635D01*
X181786114Y-128893778D01*
X181822834Y-128834335D01*
X181885855Y-128804183D01*
X181898739Y-128802095D01*
X181918566Y-128800500D01*
X182082964Y-128800500D01*
X182090814Y-128798118D01*
X182233497Y-128769737D01*
X182379179Y-128709394D01*
X182510289Y-128621789D01*
X182621789Y-128510289D01*
X182709394Y-128379179D01*
X182769737Y-128233497D01*
X182800500Y-128078842D01*
X182800500Y-127921158D01*
X182800500Y-127921155D01*
X182800500Y-127920971D01*
X182800064Y-127918966D01*
X182792150Y-127879179D01*
X182785891Y-127847713D01*
X182769737Y-127766503D01*
X182746080Y-127709390D01*
X182709397Y-127620827D01*
X182709390Y-127620814D01*
X182621789Y-127489711D01*
X182621786Y-127489707D01*
X182621781Y-127489701D01*
X182510297Y-127378217D01*
X182510291Y-127378212D01*
X182510290Y-127378211D01*
X182379191Y-127290613D01*
X182379190Y-127290612D01*
X182379185Y-127290609D01*
X182379172Y-127290602D01*
X182379165Y-127290598D01*
X182233502Y-127230264D01*
X182233471Y-127230257D01*
X182078847Y-127199500D01*
X182078845Y-127199500D01*
X182078842Y-127199500D01*
X181921158Y-127199500D01*
X181921154Y-127199500D01*
X181917605Y-127200206D01*
X181882370Y-127202093D01*
X181871106Y-127201085D01*
X181806087Y-127175504D01*
X181765221Y-127118832D01*
X181761481Y-127049068D01*
X181762838Y-127043324D01*
X181781365Y-127001550D01*
X181797589Y-126977975D01*
X181801838Y-126969918D01*
X181843470Y-126907611D01*
X181886185Y-126843684D01*
X181886192Y-126843671D01*
X181886924Y-126841905D01*
X181902347Y-126804669D01*
X181961569Y-126661693D01*
X181961572Y-126661681D01*
X181998480Y-126476130D01*
X181999203Y-126473401D01*
X182000000Y-126468493D01*
X182000000Y-126070000D01*
X181424000Y-126070000D01*
X181356961Y-126050315D01*
X181311206Y-125997511D01*
X181300000Y-125946000D01*
X181300000Y-125694000D01*
X181319685Y-125626961D01*
X181372489Y-125581206D01*
X181424000Y-125570000D01*
X182000000Y-125570000D01*
X182000000Y-125171506D01*
X181999909Y-125170768D01*
X181999408Y-125168533D01*
X181961577Y-124978343D01*
X181961576Y-124978342D01*
X181961572Y-124978318D01*
X181961569Y-124978306D01*
X181920653Y-124879524D01*
X181886195Y-124796334D01*
X181886190Y-124796325D01*
X181886185Y-124796315D01*
X181776751Y-124632537D01*
X181776748Y-124632533D01*
X181776743Y-124632527D01*
X181637471Y-124493255D01*
X181637465Y-124493250D01*
X181637464Y-124493249D01*
X181473690Y-124383818D01*
X181473689Y-124383817D01*
X181473684Y-124383814D01*
X181473671Y-124383807D01*
X181473664Y-124383803D01*
X181291692Y-124308429D01*
X181291675Y-124308425D01*
X181250000Y-124300135D01*
X181250000Y-124864804D01*
X181230315Y-124931843D01*
X181177511Y-124977598D01*
X181108353Y-124987542D01*
X181093908Y-124984579D01*
X181039497Y-124970000D01*
X181039496Y-124970000D01*
X180960504Y-124970000D01*
X180960502Y-124970000D01*
X180906092Y-124984579D01*
X180836242Y-124982916D01*
X180778380Y-124943752D01*
X180750877Y-124879524D01*
X180750000Y-124864804D01*
X180750000Y-124300136D01*
X180749999Y-124300135D01*
X180708330Y-124308424D01*
X180708306Y-124308429D01*
X180526334Y-124383803D01*
X180526325Y-124383808D01*
X180526308Y-124383818D01*
X180362534Y-124493249D01*
X180362533Y-124493250D01*
X180362527Y-124493255D01*
X180223255Y-124632527D01*
X180223250Y-124632533D01*
X180223249Y-124632534D01*
X180113818Y-124796308D01*
X180113808Y-124796325D01*
X180113803Y-124796334D01*
X180038430Y-124978304D01*
X180038421Y-124978343D01*
X180000000Y-125171500D01*
X180000000Y-125171504D01*
X180000000Y-125570000D01*
X180576000Y-125570000D01*
X180643039Y-125589685D01*
X180688794Y-125642489D01*
X180700000Y-125694000D01*
X180700000Y-125946000D01*
X180680315Y-126013039D01*
X180627511Y-126058794D01*
X180576000Y-126070000D01*
X180179614Y-126070000D01*
X180144676Y-126064976D01*
X180126621Y-126059674D01*
X180071819Y-126026271D01*
X180064631Y-126018733D01*
X180046984Y-125995160D01*
X180040230Y-125983462D01*
X180030515Y-125966635D01*
X179923365Y-125859485D01*
X179857750Y-125821602D01*
X179792136Y-125783719D01*
X179718950Y-125764109D01*
X179718949Y-125764108D01*
X179645767Y-125744500D01*
X179645766Y-125744500D01*
X179494234Y-125744500D01*
X179347859Y-125783720D01*
X179347857Y-125783721D01*
X179216645Y-125859478D01*
X179216631Y-125859487D01*
X179216626Y-125859491D01*
X179109491Y-125966626D01*
X179109487Y-125966631D01*
X179109478Y-125966645D01*
X179033721Y-126097857D01*
X179033720Y-126097859D01*
X179023023Y-126137782D01*
X178994500Y-126244234D01*
X178994500Y-126395765D01*
X179006342Y-126439961D01*
X179033719Y-126542137D01*
X179071602Y-126607750D01*
X179109485Y-126673365D01*
X179216635Y-126780515D01*
X179347865Y-126856281D01*
X179494234Y-126895500D01*
X179494236Y-126895500D01*
X179645764Y-126895500D01*
X179645766Y-126895500D01*
X179792135Y-126856281D01*
X179907939Y-126789420D01*
X179925191Y-126781165D01*
X179949367Y-126771812D01*
X180018993Y-126765982D01*
X180080716Y-126798718D01*
X180086815Y-126804670D01*
X180113001Y-126841905D01*
X180113810Y-126843678D01*
X180113811Y-126843679D01*
X180113812Y-126843681D01*
X180113814Y-126843684D01*
X180147563Y-126894192D01*
X180223249Y-127007464D01*
X180223250Y-127007465D01*
X180223255Y-127007471D01*
X180362531Y-127146747D01*
X180362537Y-127146751D01*
X180386099Y-127162495D01*
X180412353Y-127186078D01*
X180419608Y-127194759D01*
X180447491Y-127258823D01*
X180436312Y-127327793D01*
X180389670Y-127379739D01*
X180387684Y-127380967D01*
X180322471Y-127399500D01*
X178920069Y-127399500D01*
X178853030Y-127379815D01*
X178807543Y-127327596D01*
X178790419Y-127290609D01*
X178740553Y-127182899D01*
X178721812Y-127146385D01*
X178721810Y-127146383D01*
X178719214Y-127141324D01*
X178719262Y-127141299D01*
X178712434Y-127128159D01*
X178709400Y-127120834D01*
X178709397Y-127120827D01*
X178709395Y-127120824D01*
X178709390Y-127120814D01*
X178621789Y-126989711D01*
X178621786Y-126989707D01*
X178621781Y-126989701D01*
X178510297Y-126878217D01*
X178510291Y-126878212D01*
X178510290Y-126878211D01*
X178379191Y-126790613D01*
X178379190Y-126790612D01*
X178379185Y-126790609D01*
X178379172Y-126790602D01*
X178379165Y-126790598D01*
X178233502Y-126730264D01*
X178233471Y-126730257D01*
X178078847Y-126699500D01*
X178078845Y-126699500D01*
X178078842Y-126699500D01*
X177921158Y-126699500D01*
X177921155Y-126699500D01*
X177921153Y-126699500D01*
X177766527Y-126730257D01*
X177766496Y-126730264D01*
X177620833Y-126790598D01*
X177620824Y-126790603D01*
X177620797Y-126790619D01*
X177490930Y-126877394D01*
X177481455Y-126883131D01*
X177461193Y-126894192D01*
X177392918Y-126909036D01*
X177327457Y-126884612D01*
X177288527Y-126835852D01*
X177285164Y-126828310D01*
X177276799Y-126802007D01*
X177272524Y-126780514D01*
X177269737Y-126766503D01*
X177266086Y-126757689D01*
X177259656Y-126742168D01*
X177254186Y-126725836D01*
X177247071Y-126698387D01*
X177108095Y-126319786D01*
X177100500Y-126277056D01*
X177100500Y-122222942D01*
X177108095Y-122180212D01*
X177247874Y-121799426D01*
X177260426Y-121760408D01*
X177262169Y-121754991D01*
X177262217Y-121755006D01*
X177266691Y-121740849D01*
X177269737Y-121733496D01*
X177269739Y-121733489D01*
X177300499Y-121578846D01*
X177300500Y-121578844D01*
X177300500Y-121420973D01*
X177300065Y-121418972D01*
X177292151Y-121379185D01*
X177270395Y-121269815D01*
X177269983Y-121267403D01*
X177269737Y-121266504D01*
X177269734Y-121266497D01*
X177225613Y-121159977D01*
X177209397Y-121120827D01*
X177209390Y-121120814D01*
X177121789Y-120989711D01*
X177121786Y-120989707D01*
X177121781Y-120989701D01*
X177010297Y-120878217D01*
X177010291Y-120878212D01*
X177010290Y-120878211D01*
X176879191Y-120790613D01*
X176879190Y-120790612D01*
X176879185Y-120790609D01*
X176879172Y-120790602D01*
X176879165Y-120790598D01*
X176733502Y-120730264D01*
X176733471Y-120730257D01*
X176578847Y-120699500D01*
X176578845Y-120699500D01*
X176578842Y-120699500D01*
X176421158Y-120699500D01*
X176421155Y-120699500D01*
X176421153Y-120699500D01*
X176266527Y-120730257D01*
X176266494Y-120730264D01*
X176238059Y-120742042D01*
X176216347Y-120748779D01*
X176200572Y-120752125D01*
X175819787Y-120891905D01*
X175777057Y-120899500D01*
X174920069Y-120899500D01*
X174853030Y-120879815D01*
X174807543Y-120827596D01*
X174790419Y-120790609D01*
X174740553Y-120682899D01*
X174721812Y-120646385D01*
X174721810Y-120646383D01*
X174719214Y-120641324D01*
X174719262Y-120641299D01*
X174712434Y-120628159D01*
X174709400Y-120620834D01*
X174709397Y-120620827D01*
X174709395Y-120620824D01*
X174709390Y-120620814D01*
X174621789Y-120489711D01*
X174621786Y-120489707D01*
X174621781Y-120489701D01*
X174510297Y-120378217D01*
X174510291Y-120378212D01*
X174510290Y-120378211D01*
X174379191Y-120290613D01*
X174379190Y-120290612D01*
X174379185Y-120290609D01*
X174379172Y-120290602D01*
X174379165Y-120290598D01*
X174233502Y-120230264D01*
X174233471Y-120230257D01*
X174078847Y-120199500D01*
X174078845Y-120199500D01*
X174078842Y-120199500D01*
X173921158Y-120199500D01*
X173921155Y-120199500D01*
X173921153Y-120199500D01*
X173766527Y-120230257D01*
X173766496Y-120230264D01*
X173620833Y-120290598D01*
X173620824Y-120290603D01*
X173620807Y-120290613D01*
X173489708Y-120378211D01*
X173489707Y-120378212D01*
X173489701Y-120378217D01*
X173378217Y-120489701D01*
X173378212Y-120489707D01*
X173378211Y-120489708D01*
X173290613Y-120620807D01*
X173290603Y-120620824D01*
X173290598Y-120620833D01*
X173230264Y-120766496D01*
X173230257Y-120766527D01*
X173199500Y-120921150D01*
X173199500Y-120921153D01*
X173199500Y-121078846D01*
X173199500Y-121078848D01*
X173199499Y-121078848D01*
X173230257Y-121233471D01*
X173230264Y-121233502D01*
X173290598Y-121379165D01*
X173290603Y-121379174D01*
X173290613Y-121379191D01*
X173378211Y-121510290D01*
X173378212Y-121510291D01*
X173378217Y-121510297D01*
X173489701Y-121621781D01*
X173489707Y-121621786D01*
X173489711Y-121621789D01*
X173620814Y-121709390D01*
X173620827Y-121709397D01*
X173641057Y-121717776D01*
X173649255Y-121721172D01*
X173669380Y-121731765D01*
X173682899Y-121740553D01*
X174050993Y-121910969D01*
X174086578Y-121935814D01*
X174131336Y-121980572D01*
X174131852Y-121980952D01*
X174134475Y-121982363D01*
X174220936Y-122032280D01*
X174264396Y-122057372D01*
X174264397Y-122057372D01*
X174268216Y-122059577D01*
X174420943Y-122100501D01*
X174420945Y-122100501D01*
X174586654Y-122100501D01*
X174588558Y-122100501D01*
X174588621Y-122100500D01*
X175757670Y-122100500D01*
X175792606Y-122105523D01*
X175807604Y-122109927D01*
X175866355Y-122147672D01*
X175867542Y-122149041D01*
X175895018Y-122203902D01*
X175896663Y-122211460D01*
X175899500Y-122237831D01*
X175899500Y-126277053D01*
X175891905Y-126319784D01*
X175777708Y-126630873D01*
X175736127Y-126687023D01*
X175700487Y-126705788D01*
X175697986Y-126706621D01*
X175634610Y-126710592D01*
X175578848Y-126699500D01*
X175578846Y-126699500D01*
X175578842Y-126699500D01*
X175421158Y-126699500D01*
X175421155Y-126699500D01*
X175421153Y-126699500D01*
X175266527Y-126730257D01*
X175266496Y-126730264D01*
X175120833Y-126790598D01*
X175120824Y-126790603D01*
X175120807Y-126790613D01*
X174989708Y-126878211D01*
X174989707Y-126878212D01*
X174989701Y-126878217D01*
X174878217Y-126989701D01*
X174878212Y-126989707D01*
X174878211Y-126989708D01*
X174790613Y-127120807D01*
X174790603Y-127120824D01*
X174790602Y-127120826D01*
X174778827Y-127149254D01*
X174768236Y-127169374D01*
X174759450Y-127182892D01*
X174759446Y-127182898D01*
X174742870Y-127218702D01*
X174692453Y-127327598D01*
X174646427Y-127380162D01*
X174579930Y-127399500D01*
X173045801Y-127399500D01*
X173010866Y-127394477D01*
X173000012Y-127391290D01*
X172941234Y-127353516D01*
X172912209Y-127289960D01*
X172922141Y-127220828D01*
X172923114Y-127218697D01*
X172967025Y-127167089D01*
X172997462Y-127146751D01*
X172997466Y-127146748D01*
X173136748Y-127007466D01*
X173136751Y-127007462D01*
X173246185Y-126843684D01*
X173246186Y-126843682D01*
X173246195Y-126843660D01*
X173246295Y-126843462D01*
X173246497Y-126843147D01*
X173248143Y-126840315D01*
X173248268Y-126840388D01*
X173260660Y-126821093D01*
X173270025Y-126809470D01*
X173327417Y-126769621D01*
X173397231Y-126767124D01*
X173409723Y-126770311D01*
X173441064Y-126783072D01*
X173567865Y-126856281D01*
X173714234Y-126895500D01*
X173714236Y-126895500D01*
X173865764Y-126895500D01*
X173865766Y-126895500D01*
X174012135Y-126856281D01*
X174143365Y-126780515D01*
X174250515Y-126673365D01*
X174326281Y-126542135D01*
X174365500Y-126395766D01*
X174365500Y-126244234D01*
X174326281Y-126097865D01*
X174326276Y-126097857D01*
X174298828Y-126050315D01*
X174250515Y-125966635D01*
X174143365Y-125859485D01*
X174077750Y-125821602D01*
X174012136Y-125783719D01*
X173938950Y-125764109D01*
X173938949Y-125764108D01*
X173865767Y-125744500D01*
X173865766Y-125744500D01*
X173714234Y-125744500D01*
X173567859Y-125783720D01*
X173567857Y-125783721D01*
X173436645Y-125859478D01*
X173436631Y-125859487D01*
X173436626Y-125859491D01*
X173329491Y-125966626D01*
X173329487Y-125966631D01*
X173329481Y-125966640D01*
X173314515Y-125992562D01*
X173292700Y-126020302D01*
X173279083Y-126033286D01*
X173222751Y-126064047D01*
X173212629Y-126066503D01*
X173183390Y-126070000D01*
X172784000Y-126070000D01*
X172716961Y-126050315D01*
X172671206Y-125997511D01*
X172660000Y-125946000D01*
X172660000Y-125694000D01*
X172679685Y-125626961D01*
X172732489Y-125581206D01*
X172784000Y-125570000D01*
X173360000Y-125570000D01*
X173360000Y-125171506D01*
X173359909Y-125170768D01*
X173359408Y-125168533D01*
X173321577Y-124978343D01*
X173321576Y-124978342D01*
X173321572Y-124978318D01*
X173321569Y-124978306D01*
X173280653Y-124879524D01*
X173246195Y-124796334D01*
X173246190Y-124796325D01*
X173246185Y-124796315D01*
X173136751Y-124632537D01*
X173136748Y-124632533D01*
X173136743Y-124632527D01*
X172997471Y-124493255D01*
X172997465Y-124493250D01*
X172997464Y-124493249D01*
X172833690Y-124383818D01*
X172833689Y-124383817D01*
X172833684Y-124383814D01*
X172833671Y-124383807D01*
X172833664Y-124383803D01*
X172651692Y-124308429D01*
X172651675Y-124308425D01*
X172610000Y-124300135D01*
X172610000Y-124864804D01*
X172590315Y-124931843D01*
X172537511Y-124977598D01*
X172468353Y-124987542D01*
X172453908Y-124984579D01*
X172399497Y-124970000D01*
X172399496Y-124970000D01*
X172320504Y-124970000D01*
X172320502Y-124970000D01*
X172266092Y-124984579D01*
X172196242Y-124982916D01*
X172138380Y-124943752D01*
X172110877Y-124879524D01*
X172110000Y-124864804D01*
X172110000Y-124300136D01*
X172109999Y-124300135D01*
X172068330Y-124308424D01*
X172068306Y-124308429D01*
X171886334Y-124383803D01*
X171886325Y-124383808D01*
X171886308Y-124383818D01*
X171722534Y-124493249D01*
X171722533Y-124493250D01*
X171722527Y-124493255D01*
X171583255Y-124632527D01*
X171583250Y-124632533D01*
X171583249Y-124632534D01*
X171473818Y-124796308D01*
X171473808Y-124796325D01*
X171473803Y-124796334D01*
X171398430Y-124978304D01*
X171398421Y-124978343D01*
X171360000Y-125171500D01*
X171360000Y-125171504D01*
X171360000Y-125570000D01*
X171936000Y-125570000D01*
X172003039Y-125589685D01*
X172048794Y-125642489D01*
X172060000Y-125694000D01*
X172060000Y-125946000D01*
X172040315Y-126013039D01*
X171987511Y-126058794D01*
X171936000Y-126070000D01*
X171360000Y-126070000D01*
X171360000Y-126468498D01*
X171398421Y-126661655D01*
X171398430Y-126661694D01*
X171473803Y-126843664D01*
X171473807Y-126843671D01*
X171473814Y-126843684D01*
X171572773Y-126991785D01*
X171588007Y-127023629D01*
X171592076Y-127036627D01*
X171593319Y-127106485D01*
X171556595Y-127165926D01*
X171501188Y-127194596D01*
X171498693Y-127195162D01*
X171493130Y-127196424D01*
X171465686Y-127199500D01*
X171421153Y-127199500D01*
X171266527Y-127230257D01*
X171266496Y-127230264D01*
X171120833Y-127290598D01*
X171120824Y-127290603D01*
X171120807Y-127290613D01*
X170989708Y-127378211D01*
X170989707Y-127378212D01*
X170989701Y-127378217D01*
X170878217Y-127489701D01*
X170878212Y-127489707D01*
X170878211Y-127489708D01*
X170790613Y-127620807D01*
X170790603Y-127620824D01*
X170790598Y-127620833D01*
X170730264Y-127766496D01*
X170730257Y-127766527D01*
X170699500Y-127921150D01*
X170699500Y-127921153D01*
X170699500Y-128078846D01*
X170699500Y-128078848D01*
X170699499Y-128078848D01*
X162500500Y-128078848D01*
X162500500Y-119302146D01*
X202700000Y-119302146D01*
X202700000Y-119302155D01*
X202700000Y-120400000D01*
X204750000Y-120400000D01*
X204750000Y-118850000D01*
X203152146Y-118850000D01*
X203092628Y-118856400D01*
X203092621Y-118856402D01*
X202957910Y-118906646D01*
X202957907Y-118906648D01*
X202842813Y-118992807D01*
X202842807Y-118992813D01*
X202756648Y-119107907D01*
X202756646Y-119107910D01*
X202706402Y-119242621D01*
X202706400Y-119242628D01*
X202700000Y-119302146D01*
X162500500Y-119302146D01*
X162500500Y-113641826D01*
X163494500Y-113641826D01*
X163494500Y-115862673D01*
X163497391Y-115916649D01*
X163497392Y-115916661D01*
X163500222Y-115943010D01*
X163508882Y-115996457D01*
X163508886Y-115996483D01*
X163510529Y-116004033D01*
X163510529Y-116004035D01*
X163552481Y-116122923D01*
X163552482Y-116122926D01*
X163552484Y-116122929D01*
X163579964Y-116177804D01*
X163650030Y-116282610D01*
X163651217Y-116283979D01*
X163759905Y-116378116D01*
X163818651Y-116415859D01*
X163830249Y-116421155D01*
X163949446Y-116475585D01*
X163949447Y-116475585D01*
X163949448Y-116475586D01*
X163964447Y-116479991D01*
X164034931Y-116495327D01*
X164069872Y-116500352D01*
X164141830Y-116505500D01*
X180583146Y-116505500D01*
X180650185Y-116525185D01*
X180695940Y-116577989D01*
X180704763Y-116605308D01*
X180730257Y-116733471D01*
X180730264Y-116733502D01*
X180790598Y-116879165D01*
X180790602Y-116879172D01*
X180790609Y-116879185D01*
X180815401Y-116916288D01*
X180830632Y-116948126D01*
X180835303Y-116963046D01*
X180836551Y-117032893D01*
X180832950Y-117046022D01*
X180816467Y-117082115D01*
X180790615Y-117120803D01*
X180790609Y-117120812D01*
X180790598Y-117120833D01*
X180730264Y-117266496D01*
X180730257Y-117266527D01*
X180699500Y-117421150D01*
X180699500Y-117421153D01*
X180699500Y-117578846D01*
X180699500Y-117578848D01*
X180699499Y-117578848D01*
X180730257Y-117733471D01*
X180730264Y-117733502D01*
X180790598Y-117879165D01*
X180790603Y-117879174D01*
X180790613Y-117879191D01*
X180878211Y-118010290D01*
X180878212Y-118010291D01*
X180878217Y-118010297D01*
X180989701Y-118121781D01*
X180989707Y-118121786D01*
X180989711Y-118121789D01*
X181120814Y-118209390D01*
X181120827Y-118209397D01*
X181187031Y-118236819D01*
X181266503Y-118269737D01*
X181266505Y-118269737D01*
X181266510Y-118269739D01*
X181392630Y-118294825D01*
X181413513Y-118298979D01*
X181416247Y-118299703D01*
X181421155Y-118300500D01*
X181578844Y-118300500D01*
X181582963Y-118300500D01*
X181590816Y-118298117D01*
X181600643Y-118296162D01*
X181621111Y-118293836D01*
X181637945Y-118293332D01*
X182159281Y-118202346D01*
X182180600Y-118200500D01*
X206140651Y-118200500D01*
X206175583Y-118205521D01*
X206200827Y-118212934D01*
X206253573Y-118244230D01*
X206635054Y-118625711D01*
X206656203Y-118653961D01*
X206661624Y-118663888D01*
X206676478Y-118732161D01*
X206652064Y-118797626D01*
X206596132Y-118839499D01*
X206596128Y-118839501D01*
X206588940Y-118842182D01*
X206545606Y-118850000D01*
X205250000Y-118850000D01*
X205250000Y-122450000D01*
X206847828Y-122450000D01*
X206847836Y-122450000D01*
X206847847Y-122449999D01*
X206883560Y-122446158D01*
X206907372Y-122443598D01*
X206907379Y-122443596D01*
X207042086Y-122393354D01*
X207042093Y-122393350D01*
X207157187Y-122307190D01*
X207157190Y-122307187D01*
X207243350Y-122192093D01*
X207243354Y-122192086D01*
X207293596Y-122057379D01*
X207293598Y-122057372D01*
X207295069Y-122043689D01*
X207299998Y-121997860D01*
X207300000Y-121997827D01*
X207300000Y-121244845D01*
X207305023Y-121209911D01*
X207308860Y-121196843D01*
X207346634Y-121138065D01*
X207410189Y-121109039D01*
X207472212Y-121115990D01*
X207479933Y-121118949D01*
X207504441Y-121131631D01*
X207620814Y-121209390D01*
X207620827Y-121209397D01*
X207620829Y-121209397D01*
X207620833Y-121209400D01*
X207758678Y-121266497D01*
X207766495Y-121269734D01*
X207766506Y-121269738D01*
X207836538Y-121283668D01*
X207913513Y-121298979D01*
X207916247Y-121299703D01*
X207921155Y-121300500D01*
X208078844Y-121300500D01*
X208082964Y-121300500D01*
X208090814Y-121298118D01*
X208233497Y-121269737D01*
X208379179Y-121209394D01*
X208510289Y-121121789D01*
X208621789Y-121010289D01*
X208709394Y-120879179D01*
X208709793Y-120878217D01*
X208746079Y-120790613D01*
X208769737Y-120733497D01*
X208800500Y-120578842D01*
X208800500Y-120421158D01*
X208800500Y-120421155D01*
X208800500Y-120420973D01*
X208800068Y-120418987D01*
X208796163Y-120399357D01*
X208793836Y-120378884D01*
X208793332Y-120362055D01*
X208702346Y-119840713D01*
X208700500Y-119819395D01*
X208700500Y-118931001D01*
X208679467Y-118825267D01*
X208673621Y-118795879D01*
X208673493Y-118795225D01*
X208673352Y-118794494D01*
X208671260Y-118790072D01*
X208620778Y-118668195D01*
X208620771Y-118668182D01*
X208544115Y-118553459D01*
X208544114Y-118553458D01*
X208446542Y-118455886D01*
X208112442Y-118121786D01*
X206946546Y-116955888D01*
X206946545Y-116955887D01*
X206831807Y-116879222D01*
X206831805Y-116879221D01*
X206831803Y-116879220D01*
X206704347Y-116826426D01*
X206704336Y-116826423D01*
X206704332Y-116826421D01*
X206704322Y-116826418D01*
X206704317Y-116826416D01*
X206568998Y-116799500D01*
X206568996Y-116799500D01*
X206568994Y-116799500D01*
X206568993Y-116799500D01*
X194925533Y-116799500D01*
X194890594Y-116794476D01*
X194877276Y-116790565D01*
X194818499Y-116752789D01*
X194789478Y-116689240D01*
X194787911Y-116678344D01*
X194789031Y-116636502D01*
X194800069Y-116581010D01*
X194800500Y-116579027D01*
X194800500Y-116420973D01*
X194800065Y-116418972D01*
X194770395Y-116269816D01*
X194769994Y-116267467D01*
X194769738Y-116266508D01*
X194769737Y-116266506D01*
X194769737Y-116266503D01*
X194769735Y-116266498D01*
X194709397Y-116120827D01*
X194709390Y-116120814D01*
X194621789Y-115989711D01*
X194621786Y-115989707D01*
X194621781Y-115989701D01*
X194510297Y-115878217D01*
X194510291Y-115878212D01*
X194510290Y-115878211D01*
X194379191Y-115790613D01*
X194379190Y-115790612D01*
X194379185Y-115790609D01*
X194379172Y-115790602D01*
X194379165Y-115790598D01*
X194233502Y-115730264D01*
X194233471Y-115730257D01*
X194078847Y-115699500D01*
X194078845Y-115699500D01*
X194078842Y-115699500D01*
X193921158Y-115699500D01*
X193921155Y-115699500D01*
X193921154Y-115699500D01*
X193899361Y-115703835D01*
X193878888Y-115706161D01*
X193862054Y-115706667D01*
X193340712Y-115797654D01*
X193319393Y-115799500D01*
X189128541Y-115799500D01*
X189061502Y-115779815D01*
X189015747Y-115727011D01*
X189004857Y-115666650D01*
X189005500Y-115657670D01*
X189005500Y-112637331D01*
X189002600Y-112583261D01*
X188999763Y-112556890D01*
X188991099Y-112503455D01*
X188989454Y-112495897D01*
X188973069Y-112449474D01*
X188947502Y-112377037D01*
X188920029Y-112322183D01*
X188920025Y-112322175D01*
X188849969Y-112217389D01*
X188848782Y-112216020D01*
X188740088Y-112121879D01*
X188740087Y-112121878D01*
X188740083Y-112121875D01*
X188681343Y-112084137D01*
X188681338Y-112084134D01*
X188681337Y-112084134D01*
X188550525Y-112024405D01*
X188550520Y-112024403D01*
X188550519Y-112024403D01*
X188545883Y-112023042D01*
X188535527Y-112020001D01*
X188497588Y-112011747D01*
X188465045Y-112004667D01*
X188430110Y-111999645D01*
X188358172Y-111994500D01*
X188358170Y-111994500D01*
X182637332Y-111994500D01*
X182637330Y-111994500D01*
X182583306Y-111997395D01*
X182556937Y-112000230D01*
X182503571Y-112008875D01*
X182503553Y-112008879D01*
X182495998Y-112010522D01*
X182495973Y-112010529D01*
X182377094Y-112052474D01*
X182377084Y-112052479D01*
X182322210Y-112079956D01*
X182322189Y-112079968D01*
X182217396Y-112150024D01*
X182217388Y-112150030D01*
X182216018Y-112151218D01*
X182121878Y-112259911D01*
X182121875Y-112259915D01*
X182084137Y-112318655D01*
X182024403Y-112449479D01*
X182021363Y-112459830D01*
X182020001Y-112464472D01*
X182013716Y-112493360D01*
X182004667Y-112534953D01*
X181999645Y-112569888D01*
X181994500Y-112641826D01*
X181994500Y-112870500D01*
X181974815Y-112937539D01*
X181922011Y-112983294D01*
X181870500Y-112994500D01*
X170799917Y-112994500D01*
X170732878Y-112974815D01*
X170687123Y-112922011D01*
X170677179Y-112852853D01*
X170696815Y-112801609D01*
X170721539Y-112764606D01*
X170721539Y-112764605D01*
X170721543Y-112764600D01*
X170781886Y-112618918D01*
X170812649Y-112464263D01*
X170812649Y-112306579D01*
X170812649Y-112306576D01*
X170812649Y-112306394D01*
X170812214Y-112304393D01*
X170803366Y-112259911D01*
X170782544Y-112155237D01*
X170782143Y-112152888D01*
X170781887Y-112151929D01*
X170781886Y-112151927D01*
X170781886Y-112151924D01*
X170781884Y-112151919D01*
X170721546Y-112006248D01*
X170721539Y-112006235D01*
X170633938Y-111875132D01*
X170633935Y-111875128D01*
X170633930Y-111875122D01*
X170522446Y-111763638D01*
X170522440Y-111763633D01*
X170522439Y-111763632D01*
X170391340Y-111676034D01*
X170391339Y-111676033D01*
X170391334Y-111676030D01*
X170391329Y-111676027D01*
X170391322Y-111676023D01*
X170391304Y-111676015D01*
X170367008Y-111665951D01*
X170351604Y-111658278D01*
X170327141Y-111643892D01*
X170327138Y-111643890D01*
X170327134Y-111643888D01*
X170327130Y-111643886D01*
X170327126Y-111643884D01*
X170145546Y-111559817D01*
X170079078Y-111529044D01*
X170026512Y-111483016D01*
X170007176Y-111415875D01*
X170027208Y-111348939D01*
X170080249Y-111303459D01*
X170106983Y-111294902D01*
X170116892Y-111292931D01*
X170233497Y-111269737D01*
X170379179Y-111209394D01*
X170510289Y-111121789D01*
X170621789Y-111010289D01*
X170634140Y-110991803D01*
X170646974Y-110975680D01*
X170648638Y-110973914D01*
X170655312Y-110966827D01*
X170666057Y-110956700D01*
X170671222Y-110952383D01*
X170735284Y-110924494D01*
X170804247Y-110935662D01*
X170808973Y-110937923D01*
X170858569Y-110980894D01*
X170878208Y-111010286D01*
X170878211Y-111010290D01*
X170878217Y-111010297D01*
X170989701Y-111121781D01*
X170989707Y-111121786D01*
X170989711Y-111121789D01*
X171120814Y-111209390D01*
X171120827Y-111209397D01*
X171266498Y-111269735D01*
X171266503Y-111269737D01*
X171413513Y-111298979D01*
X171416247Y-111299703D01*
X171421155Y-111300500D01*
X171578844Y-111300500D01*
X171582966Y-111300500D01*
X171590825Y-111298116D01*
X171595415Y-111297203D01*
X171610355Y-111295165D01*
X171640236Y-111292931D01*
X172118888Y-111209395D01*
X172159278Y-111202346D01*
X172180597Y-111200500D01*
X183568997Y-111200500D01*
X183584170Y-111197481D01*
X183660040Y-111182389D01*
X183660041Y-111182389D01*
X183668945Y-111180617D01*
X183704328Y-111173580D01*
X183790745Y-111137785D01*
X183827781Y-111122444D01*
X183831245Y-111121152D01*
X183831804Y-111120777D01*
X183831807Y-111120777D01*
X183831808Y-111120776D01*
X183831811Y-111120775D01*
X183946543Y-111044114D01*
X185418563Y-109572094D01*
X195994237Y-109572094D01*
X196037945Y-109791822D01*
X196037946Y-109791826D01*
X196037947Y-109791829D01*
X196037950Y-109791839D01*
X196037953Y-109791847D01*
X196037958Y-109791861D01*
X196113360Y-109973900D01*
X196113365Y-109973909D01*
X196113375Y-109973926D01*
X196222859Y-110137780D01*
X196222862Y-110137784D01*
X196222867Y-110137790D01*
X196362208Y-110277131D01*
X196362214Y-110277136D01*
X196362218Y-110277139D01*
X196526079Y-110386628D01*
X196526092Y-110386635D01*
X196702573Y-110459735D01*
X196706992Y-110461825D01*
X196707728Y-110461967D01*
X196708469Y-110462112D01*
X196901453Y-110500500D01*
X197098543Y-110500500D01*
X197098544Y-110500500D01*
X197122357Y-110495762D01*
X197144968Y-110491264D01*
X197161159Y-110489140D01*
X197181548Y-110487823D01*
X197484130Y-110424175D01*
X197662651Y-110386623D01*
X198059451Y-110303155D01*
X198084976Y-110300500D01*
X198099232Y-110300500D01*
X198134162Y-110305521D01*
X198139886Y-110307202D01*
X198198665Y-110344975D01*
X198208806Y-110358425D01*
X198673140Y-111070142D01*
X198682780Y-111084382D01*
X198683214Y-111085000D01*
X198683218Y-111085006D01*
X198704405Y-111111118D01*
X198711216Y-111120355D01*
X198722861Y-111137783D01*
X198722867Y-111137790D01*
X198862208Y-111277131D01*
X198862214Y-111277136D01*
X198862218Y-111277139D01*
X199026079Y-111386628D01*
X199026092Y-111386635D01*
X199026094Y-111386635D01*
X199026098Y-111386638D01*
X199181142Y-111450858D01*
X199202549Y-111459725D01*
X199206962Y-111461812D01*
X199401453Y-111500500D01*
X199598543Y-111500500D01*
X199598544Y-111500500D01*
X199620216Y-111496188D01*
X199728582Y-111474632D01*
X199728583Y-111474632D01*
X199741301Y-111472102D01*
X199791835Y-111462051D01*
X199973914Y-111386632D01*
X200137782Y-111277139D01*
X200277139Y-111137782D01*
X200386632Y-110973914D01*
X200462051Y-110791835D01*
X200484959Y-110676672D01*
X200500500Y-110598543D01*
X200500500Y-110401456D01*
X200500500Y-110401453D01*
X200461812Y-110206962D01*
X200459725Y-110202550D01*
X200432897Y-110137780D01*
X200386640Y-110026105D01*
X200386635Y-110026092D01*
X200386628Y-110026079D01*
X200277139Y-109862218D01*
X200277136Y-109862214D01*
X200277131Y-109862208D01*
X200137790Y-109722867D01*
X200137784Y-109722862D01*
X200137783Y-109722861D01*
X200098430Y-109696566D01*
X200085477Y-109686617D01*
X200070130Y-109673133D01*
X200070125Y-109673129D01*
X200070122Y-109673127D01*
X199318766Y-109182933D01*
X199298844Y-109166766D01*
X199010292Y-108878213D01*
X199010291Y-108878212D01*
X199010290Y-108878211D01*
X198879191Y-108790613D01*
X198879190Y-108790612D01*
X198879185Y-108790609D01*
X198879172Y-108790602D01*
X198879165Y-108790598D01*
X198733502Y-108730264D01*
X198733471Y-108730257D01*
X198578847Y-108699500D01*
X198578845Y-108699500D01*
X198578842Y-108699500D01*
X198084980Y-108699500D01*
X198059455Y-108696844D01*
X197181541Y-108512174D01*
X197164744Y-108508936D01*
X197164722Y-108508932D01*
X197164711Y-108508930D01*
X197164517Y-108508896D01*
X197163972Y-108508800D01*
X197130450Y-108505306D01*
X197119123Y-108503593D01*
X197116089Y-108502989D01*
X197098543Y-108499500D01*
X197098541Y-108499500D01*
X196901453Y-108499500D01*
X196708176Y-108537945D01*
X196708170Y-108537947D01*
X196708160Y-108537950D01*
X196708155Y-108537951D01*
X196708137Y-108537958D01*
X196526098Y-108613360D01*
X196526089Y-108613365D01*
X196526084Y-108613368D01*
X196526079Y-108613371D01*
X196460623Y-108657107D01*
X196362215Y-108722861D01*
X196362214Y-108722862D01*
X196362208Y-108722867D01*
X196222867Y-108862208D01*
X196222862Y-108862214D01*
X196222861Y-108862215D01*
X196113375Y-109026072D01*
X196113365Y-109026089D01*
X196113360Y-109026098D01*
X196037958Y-109208137D01*
X196037945Y-109208176D01*
X195999500Y-109401451D01*
X195999500Y-109554174D01*
X195994237Y-109572094D01*
X185418563Y-109572094D01*
X186377286Y-108613371D01*
X187227475Y-107763181D01*
X188514073Y-106476580D01*
X188530434Y-106462826D01*
X188963429Y-106158512D01*
X188969828Y-106153940D01*
X188970113Y-106153733D01*
X188998126Y-106130658D01*
X189008072Y-106123269D01*
X189010289Y-106121789D01*
X189012541Y-106119535D01*
X189014358Y-106117888D01*
X189022024Y-106110139D01*
X189022027Y-106110142D01*
X189022827Y-106109249D01*
X189121789Y-106010289D01*
X189209394Y-105879179D01*
X189269737Y-105733497D01*
X189300500Y-105578842D01*
X189300500Y-105421158D01*
X189300500Y-105421155D01*
X189300500Y-105420971D01*
X189300064Y-105418966D01*
X189269738Y-105266509D01*
X189269737Y-105266503D01*
X189269191Y-105265184D01*
X189209400Y-105120833D01*
X189209395Y-105120824D01*
X189209390Y-105120814D01*
X189121789Y-104989711D01*
X189121786Y-104989707D01*
X189121785Y-104989706D01*
X189121781Y-104989701D01*
X189010297Y-104878217D01*
X189010291Y-104878212D01*
X189010290Y-104878211D01*
X188879191Y-104790613D01*
X188879190Y-104790612D01*
X188879185Y-104790609D01*
X188879172Y-104790602D01*
X188879165Y-104790598D01*
X188733502Y-104730264D01*
X188733471Y-104730257D01*
X188578847Y-104699500D01*
X188578845Y-104699500D01*
X188578842Y-104699500D01*
X188421158Y-104699500D01*
X188421155Y-104699500D01*
X188421153Y-104699500D01*
X188266527Y-104730257D01*
X188266496Y-104730264D01*
X188120833Y-104790598D01*
X188120824Y-104790603D01*
X188120807Y-104790613D01*
X187989708Y-104878211D01*
X187989707Y-104878212D01*
X187989701Y-104878217D01*
X187878217Y-104989701D01*
X187878213Y-104989706D01*
X187878206Y-104989715D01*
X187865862Y-105008189D01*
X187853037Y-105024304D01*
X187841488Y-105036567D01*
X187841482Y-105036575D01*
X187537183Y-105469545D01*
X187523414Y-105485925D01*
X183258769Y-109750573D01*
X183230518Y-109771722D01*
X183207430Y-109784330D01*
X183148000Y-109799500D01*
X183008349Y-109799500D01*
X182973414Y-109794477D01*
X182962560Y-109791290D01*
X182903782Y-109753516D01*
X182874757Y-109689960D01*
X182884697Y-109620811D01*
X182887887Y-109613824D01*
X182912996Y-109577660D01*
X183991157Y-108499500D01*
X188514073Y-103976580D01*
X188530447Y-103962817D01*
X188553925Y-103946316D01*
X188961653Y-103659760D01*
X188982149Y-103641837D01*
X188994867Y-103632092D01*
X189010289Y-103621789D01*
X189121789Y-103510289D01*
X189209394Y-103379179D01*
X189269737Y-103233497D01*
X189300500Y-103078842D01*
X189300500Y-102921158D01*
X189300500Y-102921155D01*
X189300500Y-102920973D01*
X189300065Y-102918972D01*
X189270398Y-102769830D01*
X189269983Y-102767403D01*
X189269737Y-102766504D01*
X189209397Y-102620827D01*
X189209393Y-102620820D01*
X189184598Y-102583712D01*
X189169366Y-102551874D01*
X189164696Y-102536960D01*
X189163446Y-102467110D01*
X189167051Y-102453969D01*
X189183529Y-102417886D01*
X189209394Y-102379179D01*
X189269737Y-102233497D01*
X189300500Y-102078842D01*
X189300500Y-101921158D01*
X189300500Y-101921155D01*
X189300500Y-101920971D01*
X189300064Y-101918966D01*
X189269738Y-101766509D01*
X189269737Y-101766503D01*
X189269191Y-101765184D01*
X189209400Y-101620833D01*
X189209395Y-101620824D01*
X189209390Y-101620814D01*
X189121789Y-101489711D01*
X189121786Y-101489707D01*
X189121785Y-101489706D01*
X189121781Y-101489701D01*
X189010297Y-101378217D01*
X189010291Y-101378212D01*
X189010290Y-101378211D01*
X188879191Y-101290613D01*
X188879190Y-101290612D01*
X188879185Y-101290609D01*
X188879172Y-101290602D01*
X188879165Y-101290598D01*
X188733502Y-101230264D01*
X188733471Y-101230257D01*
X188578847Y-101199500D01*
X188578845Y-101199500D01*
X188578842Y-101199500D01*
X188421158Y-101199500D01*
X188421155Y-101199500D01*
X188421153Y-101199500D01*
X188266527Y-101230257D01*
X188266496Y-101230264D01*
X188120833Y-101290598D01*
X188120824Y-101290603D01*
X188120807Y-101290613D01*
X187989708Y-101378211D01*
X187989707Y-101378212D01*
X187989701Y-101378217D01*
X187878217Y-101489701D01*
X187878213Y-101489706D01*
X187878206Y-101489715D01*
X187865862Y-101508189D01*
X187853037Y-101524304D01*
X187841488Y-101536567D01*
X187841482Y-101536575D01*
X187537183Y-101969545D01*
X187523414Y-101985925D01*
X181758769Y-107750573D01*
X181730518Y-107771722D01*
X181707430Y-107784330D01*
X181648000Y-107799500D01*
X171931000Y-107799500D01*
X171795683Y-107826416D01*
X171795677Y-107826418D01*
X171795667Y-107826421D01*
X171795664Y-107826422D01*
X171795651Y-107826426D01*
X171668195Y-107879220D01*
X171668188Y-107879224D01*
X171553451Y-107955888D01*
X169985924Y-109523415D01*
X169969544Y-109537184D01*
X169536545Y-109841503D01*
X169529372Y-109846639D01*
X169529101Y-109846836D01*
X169529073Y-109846858D01*
X169501754Y-109869404D01*
X169491723Y-109876865D01*
X169489719Y-109878203D01*
X169489713Y-109878208D01*
X169489697Y-109878221D01*
X169487362Y-109880557D01*
X169485507Y-109882243D01*
X169478064Y-109889775D01*
X169478057Y-109889768D01*
X169477232Y-109890686D01*
X169378211Y-109989709D01*
X169378209Y-109989711D01*
X169290613Y-110120807D01*
X169290603Y-110120824D01*
X169290598Y-110120833D01*
X169230264Y-110266496D01*
X169230257Y-110266527D01*
X169198717Y-110425084D01*
X169196077Y-110435828D01*
X169191289Y-110452134D01*
X169153514Y-110510912D01*
X169089958Y-110539936D01*
X169020801Y-110529992D01*
X169013821Y-110526804D01*
X168977657Y-110501694D01*
X168649426Y-110173463D01*
X168628274Y-110145207D01*
X168615667Y-110122118D01*
X168600500Y-110062693D01*
X168600500Y-94222941D01*
X168608095Y-94180211D01*
X168627385Y-94127662D01*
X168747125Y-93801464D01*
X168754983Y-93771948D01*
X168760240Y-93756422D01*
X168769737Y-93733497D01*
X168800499Y-93578848D01*
X171699499Y-93578848D01*
X171730257Y-93733471D01*
X171730264Y-93733502D01*
X171790598Y-93879165D01*
X171790602Y-93879172D01*
X171790606Y-93879180D01*
X171790613Y-93879191D01*
X171878211Y-94010290D01*
X171878212Y-94010291D01*
X171878217Y-94010297D01*
X171989701Y-94121781D01*
X171989707Y-94121786D01*
X171989711Y-94121789D01*
X172120814Y-94209390D01*
X172120827Y-94209397D01*
X172218853Y-94250000D01*
X172266503Y-94269737D01*
X172266505Y-94269737D01*
X172266510Y-94269739D01*
X172413441Y-94298965D01*
X172413439Y-94298973D01*
X172416139Y-94299686D01*
X172421155Y-94300500D01*
X172578844Y-94300500D01*
X172582964Y-94300500D01*
X172590814Y-94298118D01*
X172733497Y-94269737D01*
X172879179Y-94209394D01*
X173010289Y-94121789D01*
X173121789Y-94010289D01*
X173209394Y-93879179D01*
X173209852Y-93878072D01*
X173211199Y-93875801D01*
X173212267Y-93873804D01*
X173212356Y-93873851D01*
X173227861Y-93847713D01*
X173237667Y-93835543D01*
X173295055Y-93795692D01*
X173295056Y-93795691D01*
X173302033Y-93793368D01*
X173365384Y-93789406D01*
X173385307Y-93793369D01*
X173421154Y-93800500D01*
X173578844Y-93800500D01*
X173582964Y-93800500D01*
X173590814Y-93798118D01*
X173733497Y-93769737D01*
X173879179Y-93709394D01*
X174010289Y-93621789D01*
X174053236Y-93578842D01*
X174121787Y-93510292D01*
X174121787Y-93510291D01*
X174121788Y-93510290D01*
X174121789Y-93510289D01*
X174129145Y-93499279D01*
X174131179Y-93496233D01*
X174140310Y-93484219D01*
X174152091Y-93470534D01*
X174166542Y-93456293D01*
X174171231Y-93452374D01*
X174235296Y-93424492D01*
X174304247Y-93435662D01*
X174308973Y-93437923D01*
X174358569Y-93480894D01*
X174378208Y-93510286D01*
X174378211Y-93510290D01*
X174378217Y-93510297D01*
X178891337Y-98023415D01*
X180378211Y-99510289D01*
X180489708Y-99621786D01*
X180489712Y-99621790D01*
X180565306Y-99672300D01*
X180620821Y-99709394D01*
X180723833Y-99752062D01*
X180745260Y-99760938D01*
X180766500Y-99769736D01*
X180766502Y-99769737D01*
X180889973Y-99794297D01*
X180913523Y-99798981D01*
X180916249Y-99799704D01*
X180921154Y-99800500D01*
X180921155Y-99800500D01*
X201238122Y-99800500D01*
X201273047Y-99805519D01*
X201280835Y-99807806D01*
X201339613Y-99845576D01*
X201368643Y-99909129D01*
X201358704Y-99978289D01*
X201316621Y-100028645D01*
X201312075Y-100031801D01*
X201284694Y-100046123D01*
X201257669Y-100056202D01*
X201257668Y-100056203D01*
X201257665Y-100056205D01*
X201142456Y-100142450D01*
X201142450Y-100142456D01*
X201056205Y-100257665D01*
X201056203Y-100257668D01*
X201005908Y-100392516D01*
X200999500Y-100452125D01*
X200999500Y-111547876D01*
X200999659Y-111549806D01*
X200999885Y-111551454D01*
X201005907Y-111607482D01*
X201024853Y-111658278D01*
X201056202Y-111742328D01*
X201056206Y-111742335D01*
X201072149Y-111763632D01*
X201142450Y-111857542D01*
X201142452Y-111857544D01*
X201142455Y-111857547D01*
X201257664Y-111943793D01*
X201257671Y-111943797D01*
X201307155Y-111962253D01*
X201342513Y-111988721D01*
X201399444Y-111994835D01*
X201399443Y-111994839D01*
X201399458Y-111994836D01*
X201452127Y-112000500D01*
X208547872Y-112000499D01*
X208607483Y-111994091D01*
X208742331Y-111943796D01*
X208857546Y-111857546D01*
X208943796Y-111742331D01*
X208994091Y-111607483D01*
X209000500Y-111547873D01*
X209000499Y-100452128D01*
X208994091Y-100392517D01*
X208943796Y-100257669D01*
X208943795Y-100257668D01*
X208943794Y-100257666D01*
X208943778Y-100257623D01*
X208943199Y-100256703D01*
X208942249Y-100255164D01*
X208941397Y-100253937D01*
X208941391Y-100253928D01*
X208938489Y-100250579D01*
X208857547Y-100142455D01*
X208857544Y-100142452D01*
X208857542Y-100142450D01*
X208799616Y-100099086D01*
X208742335Y-100056206D01*
X208742332Y-100056204D01*
X208742330Y-100056203D01*
X208742328Y-100056202D01*
X208692844Y-100037746D01*
X208657497Y-100011284D01*
X208555583Y-100000328D01*
X208550742Y-99999500D01*
X208547881Y-99999500D01*
X208547873Y-99999500D01*
X208547865Y-99999500D01*
X206320019Y-99999500D01*
X206285083Y-99994477D01*
X206276450Y-99991942D01*
X206217672Y-99954167D01*
X206188648Y-99890610D01*
X206198592Y-99821452D01*
X206238855Y-99772390D01*
X206243021Y-99769386D01*
X206268079Y-99755412D01*
X206285771Y-99748084D01*
X206375141Y-99711066D01*
X206378283Y-99709894D01*
X206378913Y-99709572D01*
X206434697Y-99672298D01*
X206510289Y-99621789D01*
X206621789Y-99510289D01*
X206709394Y-99379179D01*
X206769737Y-99233497D01*
X206800500Y-99078842D01*
X206800500Y-98921158D01*
X206800500Y-98921155D01*
X206800500Y-98920973D01*
X206800065Y-98918972D01*
X206770397Y-98769824D01*
X206769994Y-98767467D01*
X206769738Y-98766508D01*
X206769737Y-98766506D01*
X206769737Y-98766503D01*
X206769735Y-98766498D01*
X206709397Y-98620827D01*
X206709390Y-98620814D01*
X206621789Y-98489711D01*
X206621786Y-98489707D01*
X206621781Y-98489701D01*
X206510296Y-98378216D01*
X206510289Y-98378211D01*
X206510270Y-98378198D01*
X206496239Y-98368823D01*
X206484222Y-98359690D01*
X206461524Y-98340148D01*
X206461518Y-98340143D01*
X206030452Y-98037184D01*
X206014072Y-98023415D01*
X204215445Y-96224788D01*
X204194296Y-96196538D01*
X204188874Y-96186608D01*
X204174021Y-96118338D01*
X204198435Y-96052873D01*
X204254365Y-96011001D01*
X204258244Y-96009554D01*
X204261580Y-96008311D01*
X204304894Y-96000500D01*
X204940651Y-96000500D01*
X204975583Y-96005521D01*
X205000827Y-96012934D01*
X205053573Y-96044230D01*
X206023413Y-97014070D01*
X206037182Y-97030450D01*
X206341473Y-97463409D01*
X206346028Y-97469786D01*
X206346264Y-97470111D01*
X206346266Y-97470113D01*
X206369343Y-97498131D01*
X206376719Y-97508057D01*
X206378210Y-97510288D01*
X206378213Y-97510292D01*
X206378215Y-97510294D01*
X206380480Y-97512559D01*
X206382135Y-97514382D01*
X206389823Y-97521985D01*
X206389818Y-97521989D01*
X206390717Y-97522796D01*
X206489707Y-97621786D01*
X206489711Y-97621789D01*
X206620814Y-97709390D01*
X206620827Y-97709397D01*
X206766498Y-97769735D01*
X206766503Y-97769737D01*
X206913513Y-97798979D01*
X206916247Y-97799703D01*
X206921155Y-97800500D01*
X207078844Y-97800500D01*
X207082964Y-97800500D01*
X207090814Y-97798118D01*
X207233497Y-97769737D01*
X207379179Y-97709394D01*
X207510289Y-97621789D01*
X207621789Y-97510289D01*
X207709394Y-97379179D01*
X207769737Y-97233497D01*
X207800500Y-97078842D01*
X207800500Y-96921158D01*
X207800500Y-96921155D01*
X207800500Y-96920973D01*
X207800065Y-96918972D01*
X207770397Y-96769824D01*
X207769994Y-96767467D01*
X207769737Y-96766505D01*
X207769737Y-96766503D01*
X207769735Y-96766498D01*
X207732644Y-96676951D01*
X207725176Y-96607482D01*
X207756452Y-96545003D01*
X207816541Y-96509351D01*
X207847206Y-96505500D01*
X208862668Y-96505500D01*
X208916738Y-96502600D01*
X208943109Y-96499763D01*
X208996544Y-96491099D01*
X209004102Y-96489454D01*
X209083342Y-96461485D01*
X209122961Y-96447502D01*
X209122963Y-96447501D01*
X209177824Y-96420025D01*
X209282610Y-96349969D01*
X209283979Y-96348782D01*
X209378110Y-96240104D01*
X209415853Y-96181361D01*
X209475583Y-96050563D01*
X209479988Y-96035565D01*
X209495328Y-95965066D01*
X209500353Y-95930122D01*
X209505500Y-95858170D01*
X209505500Y-88612748D01*
X209505347Y-88600307D01*
X209505197Y-88594214D01*
X209505084Y-88591175D01*
X209505000Y-88586596D01*
X209505000Y-88413394D01*
X209505084Y-88408836D01*
X209505199Y-88405710D01*
X209505348Y-88399633D01*
X209505500Y-88387243D01*
X209505500Y-87137331D01*
X209502600Y-87083261D01*
X209499763Y-87056890D01*
X209491099Y-87003455D01*
X209489454Y-86995897D01*
X209472740Y-86948543D01*
X209447502Y-86877037D01*
X209420029Y-86822183D01*
X209420025Y-86822175D01*
X209349969Y-86717389D01*
X209348782Y-86716020D01*
X209240088Y-86621879D01*
X209240087Y-86621878D01*
X209240083Y-86621875D01*
X209181343Y-86584137D01*
X209181338Y-86584134D01*
X209181337Y-86584134D01*
X209050525Y-86524405D01*
X209050520Y-86524403D01*
X209050519Y-86524403D01*
X209045883Y-86523042D01*
X209035527Y-86520001D01*
X208997588Y-86511747D01*
X208965045Y-86504667D01*
X208930110Y-86499645D01*
X208858172Y-86494500D01*
X208858170Y-86494500D01*
X205427940Y-86494500D01*
X205360901Y-86474815D01*
X205340259Y-86458181D01*
X201349426Y-82467348D01*
X201328274Y-82439092D01*
X201315667Y-82416003D01*
X201300500Y-82356578D01*
X201300500Y-80084989D01*
X201303155Y-80059464D01*
X201313499Y-80010288D01*
X201481949Y-79209471D01*
X201515012Y-79147922D01*
X201576104Y-79114016D01*
X201645828Y-79118521D01*
X201702048Y-79160007D01*
X201716092Y-79183496D01*
X201717575Y-79186744D01*
X201726394Y-79214051D01*
X201730261Y-79233491D01*
X201730264Y-79233501D01*
X201730267Y-79233509D01*
X201730272Y-79233523D01*
X201790598Y-79379165D01*
X201790603Y-79379174D01*
X201790613Y-79379191D01*
X201878211Y-79510290D01*
X201878212Y-79510291D01*
X201878217Y-79510297D01*
X201989701Y-79621781D01*
X201989707Y-79621786D01*
X201989711Y-79621789D01*
X202120814Y-79709390D01*
X202120827Y-79709397D01*
X202120829Y-79709397D01*
X202120833Y-79709400D01*
X202258678Y-79766497D01*
X202266495Y-79769734D01*
X202266506Y-79769738D01*
X202384160Y-79793140D01*
X202413513Y-79798979D01*
X202416247Y-79799703D01*
X202421155Y-79800500D01*
X202578844Y-79800500D01*
X202582963Y-79800500D01*
X202590816Y-79798117D01*
X202600643Y-79796162D01*
X202621111Y-79793836D01*
X202637945Y-79793332D01*
X203159281Y-79702346D01*
X203180600Y-79700500D01*
X204092284Y-79700500D01*
X204159323Y-79720185D01*
X204193733Y-79753198D01*
X204282270Y-79879172D01*
X204341473Y-79963409D01*
X204346028Y-79969786D01*
X204346264Y-79970111D01*
X204346266Y-79970113D01*
X204369343Y-79998131D01*
X204376719Y-80008057D01*
X204378210Y-80010288D01*
X204378213Y-80010292D01*
X204378215Y-80010294D01*
X204380480Y-80012559D01*
X204382135Y-80014382D01*
X204389823Y-80021985D01*
X204389818Y-80021989D01*
X204390717Y-80022796D01*
X204489707Y-80121786D01*
X204489711Y-80121789D01*
X204620814Y-80209390D01*
X204620827Y-80209397D01*
X204766498Y-80269735D01*
X204766503Y-80269737D01*
X204913513Y-80298979D01*
X204916247Y-80299703D01*
X204921155Y-80300500D01*
X205078844Y-80300500D01*
X205082964Y-80300500D01*
X205090814Y-80298118D01*
X205233497Y-80269737D01*
X205379179Y-80209394D01*
X205510289Y-80121789D01*
X205621789Y-80010289D01*
X205709394Y-79879179D01*
X205769737Y-79733497D01*
X205800500Y-79578842D01*
X205800500Y-79421158D01*
X205800500Y-79421155D01*
X205800500Y-79420973D01*
X205800065Y-79418972D01*
X205792148Y-79379174D01*
X205786611Y-79351336D01*
X205769737Y-79266503D01*
X205769735Y-79266498D01*
X205756063Y-79233490D01*
X205726101Y-79161154D01*
X205709397Y-79120827D01*
X205709390Y-79120814D01*
X205621789Y-78989711D01*
X205621786Y-78989707D01*
X205621781Y-78989701D01*
X205510294Y-78878214D01*
X205491807Y-78865861D01*
X205475689Y-78853032D01*
X205463434Y-78841491D01*
X205463426Y-78841484D01*
X205030453Y-78537184D01*
X205014073Y-78523415D01*
X204946545Y-78455887D01*
X204831810Y-78379224D01*
X204831809Y-78379223D01*
X204831807Y-78379222D01*
X204831805Y-78379221D01*
X204831803Y-78379220D01*
X204704347Y-78326426D01*
X204704336Y-78326423D01*
X204704332Y-78326421D01*
X204704322Y-78326418D01*
X204704317Y-78326416D01*
X204568998Y-78299500D01*
X204568996Y-78299500D01*
X204568994Y-78299500D01*
X204568993Y-78299500D01*
X203180606Y-78299500D01*
X203159287Y-78297654D01*
X203041103Y-78277027D01*
X202637944Y-78206666D01*
X202637931Y-78206663D01*
X202637886Y-78206656D01*
X202628798Y-78205155D01*
X202628437Y-78205099D01*
X202628380Y-78205092D01*
X202593549Y-78201775D01*
X202581130Y-78199954D01*
X202578851Y-78199501D01*
X202578849Y-78199500D01*
X202578845Y-78199500D01*
X202578842Y-78199500D01*
X202578841Y-78199500D01*
X202575547Y-78199500D01*
X202572998Y-78199378D01*
X202562380Y-78199444D01*
X202562379Y-78199432D01*
X202561118Y-78199500D01*
X202421153Y-78199500D01*
X202266527Y-78230257D01*
X202266496Y-78230264D01*
X202120833Y-78290598D01*
X202120824Y-78290603D01*
X202120807Y-78290613D01*
X201989708Y-78378211D01*
X201989707Y-78378212D01*
X201989701Y-78378217D01*
X201878217Y-78489701D01*
X201878212Y-78489707D01*
X201878211Y-78489708D01*
X201790613Y-78620807D01*
X201790600Y-78620829D01*
X201790599Y-78620831D01*
X201730265Y-78766492D01*
X201730265Y-78766494D01*
X201730257Y-78766529D01*
X201727053Y-78782636D01*
X201715310Y-78815919D01*
X201711140Y-78823890D01*
X201662622Y-78874167D01*
X201594625Y-78890232D01*
X201528736Y-78866984D01*
X201488467Y-78817909D01*
X201488052Y-78817001D01*
X201486339Y-78813248D01*
X201477522Y-78785940D01*
X201461812Y-78706963D01*
X201459725Y-78702550D01*
X201425872Y-78620821D01*
X201425871Y-78620817D01*
X201386640Y-78526105D01*
X201386637Y-78526098D01*
X201386635Y-78526092D01*
X201386628Y-78526079D01*
X201277139Y-78362218D01*
X201277136Y-78362214D01*
X201277131Y-78362208D01*
X201137790Y-78222867D01*
X201137784Y-78222862D01*
X201137783Y-78222861D01*
X200973926Y-78113375D01*
X200973925Y-78113374D01*
X200973920Y-78113371D01*
X200973907Y-78113364D01*
X200973900Y-78113360D01*
X200791861Y-78037958D01*
X200791847Y-78037953D01*
X200791839Y-78037950D01*
X200791829Y-78037947D01*
X200791826Y-78037946D01*
X200791822Y-78037945D01*
X200598546Y-77999500D01*
X200598543Y-77999500D01*
X200598541Y-77999500D01*
X200401459Y-77999500D01*
X200401457Y-77999500D01*
X200401453Y-77999500D01*
X200208176Y-78037945D01*
X200208170Y-78037947D01*
X200208160Y-78037950D01*
X200208155Y-78037951D01*
X200208137Y-78037958D01*
X200026098Y-78113360D01*
X200026089Y-78113365D01*
X200026072Y-78113375D01*
X199862215Y-78222861D01*
X199862214Y-78222862D01*
X199862208Y-78222867D01*
X199722867Y-78362208D01*
X199722862Y-78362214D01*
X199722861Y-78362215D01*
X199613375Y-78526072D01*
X199613365Y-78526089D01*
X199613360Y-78526098D01*
X199537958Y-78708137D01*
X199537945Y-78708176D01*
X199499500Y-78901451D01*
X199499500Y-79054174D01*
X199494237Y-79072095D01*
X199508732Y-79144964D01*
X199510857Y-79161154D01*
X199512175Y-79181547D01*
X199512176Y-79181556D01*
X199696844Y-80059460D01*
X199699500Y-80084985D01*
X199699500Y-82828846D01*
X199699500Y-82828848D01*
X199699499Y-82828848D01*
X199730257Y-82983471D01*
X199730264Y-82983502D01*
X199790598Y-83129165D01*
X199790603Y-83129174D01*
X199790613Y-83129191D01*
X199878211Y-83260290D01*
X199878212Y-83260291D01*
X199878217Y-83260297D01*
X201868133Y-85250211D01*
X201889282Y-85278461D01*
X201894703Y-85288388D01*
X201909557Y-85356661D01*
X201885143Y-85422126D01*
X201829211Y-85463999D01*
X201829207Y-85464001D01*
X201822019Y-85466682D01*
X201778685Y-85474500D01*
X193400770Y-85474500D01*
X193365834Y-85469477D01*
X193340592Y-85462065D01*
X193287847Y-85430769D01*
X192158567Y-84301489D01*
X192125082Y-84240166D01*
X192130066Y-84170474D01*
X192171938Y-84114541D01*
X192204345Y-84097103D01*
X192545611Y-83974586D01*
X192731663Y-83907793D01*
X192773561Y-83900500D01*
X195840651Y-83900500D01*
X195875583Y-83905521D01*
X195900827Y-83912934D01*
X195953573Y-83944230D01*
X196023413Y-84014070D01*
X196037182Y-84030450D01*
X196341473Y-84463409D01*
X196346028Y-84469786D01*
X196346264Y-84470111D01*
X196346266Y-84470113D01*
X196369343Y-84498131D01*
X196376719Y-84508057D01*
X196378210Y-84510288D01*
X196378213Y-84510292D01*
X196378215Y-84510294D01*
X196380480Y-84512559D01*
X196382135Y-84514382D01*
X196389823Y-84521985D01*
X196389818Y-84521989D01*
X196390717Y-84522796D01*
X196489707Y-84621786D01*
X196489711Y-84621789D01*
X196620814Y-84709390D01*
X196620827Y-84709397D01*
X196620829Y-84709397D01*
X196620833Y-84709400D01*
X196758678Y-84766497D01*
X196766495Y-84769734D01*
X196766506Y-84769738D01*
X196884160Y-84793140D01*
X196913513Y-84798979D01*
X196916247Y-84799703D01*
X196921155Y-84800500D01*
X197078844Y-84800500D01*
X197082964Y-84800500D01*
X197090814Y-84798118D01*
X197233497Y-84769737D01*
X197379179Y-84709394D01*
X197510289Y-84621789D01*
X197621789Y-84510289D01*
X197709394Y-84379179D01*
X197709793Y-84378217D01*
X197746079Y-84290613D01*
X197769737Y-84233497D01*
X197800500Y-84078842D01*
X197800500Y-83921158D01*
X197800500Y-83921155D01*
X197800500Y-83920973D01*
X197800065Y-83918972D01*
X197776499Y-83800499D01*
X197770395Y-83769815D01*
X197769983Y-83767403D01*
X197769738Y-83766508D01*
X197769737Y-83766506D01*
X197769737Y-83766503D01*
X197746080Y-83709390D01*
X197709397Y-83620827D01*
X197709390Y-83620814D01*
X197621789Y-83489711D01*
X197621786Y-83489707D01*
X197621781Y-83489701D01*
X197510294Y-83378214D01*
X197491807Y-83365861D01*
X197475689Y-83353032D01*
X197463434Y-83341491D01*
X197463426Y-83341484D01*
X197030451Y-83037183D01*
X197014071Y-83023414D01*
X196646546Y-82655888D01*
X196646545Y-82655887D01*
X196531810Y-82579224D01*
X196531809Y-82579223D01*
X196531807Y-82579222D01*
X196531805Y-82579221D01*
X196531803Y-82579220D01*
X196404347Y-82526426D01*
X196404336Y-82526423D01*
X196404332Y-82526421D01*
X196404322Y-82526418D01*
X196404317Y-82526416D01*
X196268998Y-82499500D01*
X196268996Y-82499500D01*
X196268994Y-82499500D01*
X196268993Y-82499500D01*
X192773562Y-82499500D01*
X192731663Y-82492207D01*
X191902185Y-82194417D01*
X191864417Y-82182508D01*
X191864395Y-82182503D01*
X191864091Y-82182466D01*
X191841072Y-82177344D01*
X191752433Y-82148544D01*
X191752429Y-82148543D01*
X191623689Y-82128153D01*
X191584840Y-82122000D01*
X191584839Y-82122000D01*
X191415155Y-82122000D01*
X191342729Y-82133470D01*
X191342729Y-82133471D01*
X191257214Y-82147016D01*
X191256759Y-82147051D01*
X191247554Y-82148545D01*
X191247132Y-82148684D01*
X191086218Y-82200970D01*
X191086187Y-82200980D01*
X191086186Y-82200981D01*
X190935003Y-82278012D01*
X190861229Y-82331613D01*
X190861228Y-82331613D01*
X190809600Y-82369123D01*
X190802221Y-82373255D01*
X190673256Y-82502220D01*
X190669128Y-82509593D01*
X190665830Y-82514133D01*
X190665825Y-82514140D01*
X190578015Y-82634999D01*
X190578002Y-82635020D01*
X190573645Y-82643571D01*
X190553309Y-82672415D01*
X190542578Y-82683776D01*
X190482235Y-82718995D01*
X190473285Y-82721211D01*
X190419292Y-82722463D01*
X190303849Y-82699500D01*
X190303845Y-82699500D01*
X190303842Y-82699500D01*
X185313099Y-82699500D01*
X185246060Y-82679815D01*
X185200305Y-82627011D01*
X185190361Y-82557853D01*
X185190786Y-82555115D01*
X185195568Y-82526426D01*
X185211641Y-82429983D01*
X185215571Y-82413474D01*
X185217513Y-82407245D01*
X185219086Y-82402196D01*
X185225500Y-82331616D01*
X185225500Y-82330882D01*
X185225882Y-82321159D01*
X185229261Y-82278196D01*
X185229228Y-82274162D01*
X185226862Y-82258330D01*
X185225500Y-82240003D01*
X185225500Y-82031304D01*
X185244774Y-81964908D01*
X185371865Y-81764448D01*
X185388902Y-81743173D01*
X187798837Y-79333237D01*
X187818751Y-79317076D01*
X188570123Y-78826872D01*
X188584062Y-78817443D01*
X188584694Y-78817000D01*
X188611040Y-78795638D01*
X188620216Y-78788875D01*
X188637782Y-78777139D01*
X188777139Y-78637782D01*
X188886632Y-78473914D01*
X188962051Y-78291835D01*
X188997550Y-78113375D01*
X188997551Y-78113369D01*
X188997551Y-78113368D01*
X189000500Y-78098543D01*
X189000500Y-77901456D01*
X189000500Y-77901453D01*
X188962112Y-77708469D01*
X188961967Y-77707728D01*
X188961825Y-77706992D01*
X188959735Y-77702573D01*
X188886635Y-77526092D01*
X188886628Y-77526079D01*
X188777139Y-77362218D01*
X188777136Y-77362214D01*
X188777131Y-77362208D01*
X188637790Y-77222867D01*
X188637784Y-77222862D01*
X188637783Y-77222861D01*
X188473926Y-77113375D01*
X188473925Y-77113374D01*
X188473920Y-77113371D01*
X188473907Y-77113364D01*
X188473900Y-77113360D01*
X188291861Y-77037958D01*
X188291847Y-77037953D01*
X188291839Y-77037950D01*
X188291829Y-77037947D01*
X188291826Y-77037946D01*
X188291822Y-77037945D01*
X188098546Y-76999500D01*
X188098543Y-76999500D01*
X188098541Y-76999500D01*
X187901459Y-76999500D01*
X187901457Y-76999500D01*
X187855034Y-77008733D01*
X187838848Y-77010856D01*
X187818452Y-77012175D01*
X187818450Y-77012175D01*
X187818437Y-77012177D01*
X186940538Y-77196844D01*
X186915013Y-77199500D01*
X180789777Y-77199500D01*
X180635164Y-77230254D01*
X180635131Y-77230262D01*
X180489447Y-77290606D01*
X180489445Y-77290607D01*
X180358337Y-77378211D01*
X180358336Y-77378212D01*
X180358331Y-77378216D01*
X179246850Y-78489701D01*
X179098770Y-78637781D01*
X178689711Y-79046840D01*
X178657709Y-79078842D01*
X178657708Y-79078843D01*
X178657707Y-79078842D01*
X178578206Y-79158343D01*
X178490613Y-79289436D01*
X178490603Y-79289453D01*
X178490598Y-79289462D01*
X178430264Y-79435125D01*
X178430257Y-79435156D01*
X178399500Y-79589779D01*
X178399500Y-81674229D01*
X178394476Y-81709166D01*
X178387064Y-81734407D01*
X178355769Y-81787151D01*
X178050250Y-82092669D01*
X178021997Y-82113820D01*
X178009815Y-82120472D01*
X177941542Y-82135324D01*
X177876079Y-82110908D01*
X177871149Y-82107218D01*
X177868458Y-82105203D01*
X177837234Y-82071036D01*
X177822585Y-82047286D01*
X177822580Y-82047279D01*
X177822575Y-82047271D01*
X177822572Y-82047267D01*
X177822569Y-82047264D01*
X177822567Y-82047261D01*
X177702737Y-81927431D01*
X177702734Y-81927429D01*
X177702732Y-81927427D01*
X177702728Y-81927424D01*
X177702722Y-81927420D01*
X177702712Y-81927413D01*
X177594990Y-81860969D01*
X177558492Y-81838457D01*
X177558490Y-81838456D01*
X177558476Y-81838449D01*
X177397604Y-81785143D01*
X177298327Y-81775000D01*
X177298322Y-81775000D01*
X177250000Y-81775000D01*
X177250000Y-82583170D01*
X177244975Y-82618114D01*
X177240570Y-82633112D01*
X177202827Y-82691855D01*
X177201458Y-82693042D01*
X177146597Y-82720518D01*
X177139039Y-82722163D01*
X177112668Y-82725000D01*
X177000000Y-82725000D01*
X177000000Y-82833170D01*
X176994975Y-82868114D01*
X176990570Y-82883112D01*
X176952827Y-82941855D01*
X176951458Y-82943042D01*
X176896597Y-82970518D01*
X176889039Y-82972163D01*
X176862668Y-82975000D01*
X176025001Y-82975000D01*
X176025001Y-82998331D01*
X176035144Y-83097608D01*
X176088451Y-83258478D01*
X176088452Y-83258481D01*
X176088457Y-83258492D01*
X176108604Y-83291155D01*
X176177413Y-83402712D01*
X176177432Y-83402739D01*
X176177433Y-83402740D01*
X176179987Y-83405685D01*
X176195148Y-83427510D01*
X176202697Y-83441336D01*
X176217548Y-83509594D01*
X176217419Y-83511400D01*
X176198049Y-83569605D01*
X176193871Y-83576106D01*
X176180901Y-83592201D01*
X176180918Y-83592215D01*
X176179367Y-83594106D01*
X176177247Y-83596738D01*
X176177041Y-83596943D01*
X176177028Y-83596959D01*
X176177022Y-83596968D01*
X176088002Y-83741292D01*
X176088000Y-83741295D01*
X176087993Y-83741309D01*
X176034652Y-83902285D01*
X176034650Y-83902295D01*
X176024500Y-84001639D01*
X176024500Y-84548334D01*
X176024503Y-84548381D01*
X176034650Y-84647707D01*
X176034653Y-84647715D01*
X176034656Y-84647736D01*
X176034682Y-84647860D01*
X176034719Y-84647917D01*
X176055092Y-84709397D01*
X176087995Y-84808691D01*
X176088000Y-84808703D01*
X176088002Y-84808706D01*
X176177018Y-84953024D01*
X176177025Y-84953034D01*
X176177029Y-84953040D01*
X176177032Y-84953044D01*
X176177034Y-84953046D01*
X176177036Y-84953049D01*
X176296949Y-85072962D01*
X176296952Y-85072964D01*
X176296955Y-85072967D01*
X176296959Y-85072970D01*
X176296967Y-85072975D01*
X176296974Y-85072980D01*
X176439450Y-85160861D01*
X176441072Y-85161901D01*
X176441244Y-85161983D01*
X176441301Y-85162002D01*
X176441303Y-85162003D01*
X176602292Y-85215349D01*
X176644042Y-85219614D01*
X176648023Y-85220021D01*
X176693756Y-85233958D01*
X177265515Y-85538779D01*
X177294861Y-85560519D01*
X177332050Y-85597708D01*
X177373453Y-85639111D01*
X177373454Y-85639112D01*
X177373457Y-85639114D01*
X177373461Y-85639117D01*
X177373460Y-85639117D01*
X177373523Y-85639169D01*
X177373560Y-85639183D01*
X177451739Y-85691420D01*
X177488189Y-85715775D01*
X177488190Y-85715775D01*
X177488191Y-85715776D01*
X177488225Y-85715794D01*
X177488811Y-85716032D01*
X177591831Y-85758705D01*
X177610061Y-85766256D01*
X177614470Y-85768341D01*
X177751001Y-85795500D01*
X177751004Y-85795500D01*
X177751007Y-85795500D01*
X177914764Y-85795500D01*
X177949699Y-85800523D01*
X177963720Y-85804640D01*
X178022498Y-85842415D01*
X178051188Y-85903780D01*
X178053211Y-85916263D01*
X178054098Y-85949353D01*
X178049500Y-85992122D01*
X178049500Y-86740728D01*
X178050329Y-86745574D01*
X178053978Y-86779521D01*
X178052718Y-86814790D01*
X178050124Y-86829168D01*
X178018849Y-86891647D01*
X177960907Y-86926732D01*
X177948706Y-86930080D01*
X177915893Y-86934500D01*
X177478190Y-86934500D01*
X177460544Y-86933238D01*
X177434546Y-86929500D01*
X177434545Y-86929500D01*
X177367326Y-86929500D01*
X177367319Y-86929500D01*
X177367310Y-86929501D01*
X177326906Y-86933483D01*
X177322654Y-86933902D01*
X177310495Y-86934500D01*
X177296001Y-86934500D01*
X177281759Y-86937333D01*
X177269764Y-86939113D01*
X177268871Y-86939201D01*
X177268646Y-86939224D01*
X177264186Y-86940112D01*
X177264164Y-86940118D01*
X177263125Y-86940433D01*
X177251358Y-86943379D01*
X177160682Y-86961416D01*
X177160664Y-86961422D01*
X177033198Y-87014219D01*
X177033187Y-87014225D01*
X176991870Y-87041831D01*
X176965386Y-87059527D01*
X176959832Y-87063028D01*
X176948752Y-87069608D01*
X176943968Y-87072449D01*
X176549053Y-87333402D01*
X176543295Y-87337333D01*
X176536463Y-87341997D01*
X176535914Y-87342384D01*
X176535903Y-87342392D01*
X176505899Y-87366750D01*
X176496652Y-87373571D01*
X176489720Y-87378204D01*
X176489701Y-87378217D01*
X176378217Y-87489701D01*
X176378212Y-87489707D01*
X176378211Y-87489708D01*
X176290613Y-87620807D01*
X176290603Y-87620824D01*
X176290598Y-87620833D01*
X176230264Y-87766496D01*
X176230257Y-87766527D01*
X176199500Y-87921150D01*
X176199500Y-87921153D01*
X176199500Y-88078846D01*
X176199500Y-88078848D01*
X176199499Y-88078848D01*
X176230257Y-88233471D01*
X176230264Y-88233502D01*
X176290598Y-88379165D01*
X176290603Y-88379174D01*
X176290613Y-88379191D01*
X176378211Y-88510290D01*
X176378212Y-88510291D01*
X176378217Y-88510297D01*
X176489701Y-88621781D01*
X176489707Y-88621786D01*
X176489711Y-88621789D01*
X176620817Y-88709392D01*
X176620819Y-88709393D01*
X176620821Y-88709394D01*
X176621919Y-88709848D01*
X176622259Y-88710050D01*
X176622823Y-88710308D01*
X176622795Y-88710368D01*
X176652289Y-88727864D01*
X176664464Y-88737675D01*
X176704309Y-88795062D01*
X176706629Y-88802032D01*
X176710592Y-88865387D01*
X176701480Y-88911193D01*
X176694840Y-88933437D01*
X176688287Y-88949662D01*
X176644929Y-89004451D01*
X176578832Y-89027102D01*
X176512424Y-89011248D01*
X176503106Y-89005996D01*
X176476311Y-88985654D01*
X175749426Y-88258769D01*
X175728274Y-88230513D01*
X175715667Y-88207424D01*
X175700500Y-88147999D01*
X175700500Y-85680603D01*
X175702346Y-85659284D01*
X175705854Y-85639185D01*
X175793332Y-85137944D01*
X175794662Y-85129949D01*
X175794717Y-85129601D01*
X175798180Y-85093685D01*
X175799990Y-85081405D01*
X175800500Y-85078842D01*
X175800500Y-85075606D01*
X175800618Y-85073133D01*
X175800560Y-85062349D01*
X175800565Y-85062348D01*
X175800500Y-85061131D01*
X175800500Y-84920973D01*
X175800065Y-84918972D01*
X175791262Y-84874717D01*
X175791262Y-84874716D01*
X175769739Y-84766510D01*
X175769737Y-84766506D01*
X175769737Y-84766503D01*
X175751357Y-84722129D01*
X175709397Y-84620827D01*
X175709390Y-84620814D01*
X175621789Y-84489711D01*
X175621786Y-84489707D01*
X175621781Y-84489701D01*
X175510297Y-84378217D01*
X175510291Y-84378212D01*
X175510290Y-84378211D01*
X175379191Y-84290613D01*
X175379190Y-84290612D01*
X175379185Y-84290609D01*
X175379172Y-84290602D01*
X175379165Y-84290598D01*
X175233502Y-84230264D01*
X175233471Y-84230257D01*
X175078847Y-84199500D01*
X175078845Y-84199500D01*
X175078842Y-84199500D01*
X174921158Y-84199500D01*
X174921155Y-84199500D01*
X174921153Y-84199500D01*
X174766527Y-84230257D01*
X174766496Y-84230264D01*
X174620833Y-84290598D01*
X174620824Y-84290603D01*
X174620807Y-84290613D01*
X174489708Y-84378211D01*
X174489707Y-84378212D01*
X174489701Y-84378217D01*
X174378217Y-84489701D01*
X174378212Y-84489707D01*
X174378211Y-84489708D01*
X174290613Y-84620807D01*
X174290603Y-84620824D01*
X174290598Y-84620833D01*
X174230264Y-84766496D01*
X174230257Y-84766527D01*
X174199500Y-84921150D01*
X174199500Y-85078847D01*
X174203835Y-85100639D01*
X174206161Y-85121111D01*
X174206667Y-85137945D01*
X174297654Y-85659284D01*
X174297654Y-85659285D01*
X174299500Y-85680604D01*
X174299500Y-88524627D01*
X174294237Y-88542547D01*
X174326416Y-88704314D01*
X174326418Y-88704322D01*
X174326421Y-88704332D01*
X174326423Y-88704336D01*
X174326426Y-88704347D01*
X174379220Y-88831803D01*
X174379222Y-88831807D01*
X174455887Y-88946545D01*
X174455888Y-88946546D01*
X175270341Y-89760999D01*
X176084554Y-90575211D01*
X176105703Y-90603461D01*
X176111124Y-90613388D01*
X176125978Y-90681661D01*
X176101564Y-90747126D01*
X176045632Y-90788999D01*
X176045628Y-90789001D01*
X176038440Y-90791682D01*
X175995106Y-90799500D01*
X173941048Y-90799500D01*
X173838747Y-90819848D01*
X173838748Y-90819849D01*
X173838738Y-90819851D01*
X173838617Y-90819875D01*
X173805723Y-90826419D01*
X173805720Y-90826420D01*
X173678243Y-90879222D01*
X173678236Y-90879226D01*
X173563499Y-90955890D01*
X172103252Y-92416137D01*
X172089886Y-92427720D01*
X172068875Y-92443449D01*
X172068866Y-92443457D01*
X172002784Y-92509538D01*
X172002770Y-92509553D01*
X171974325Y-92544219D01*
X171966154Y-92553235D01*
X171955894Y-92563496D01*
X171955886Y-92563505D01*
X171947784Y-92575630D01*
X171940573Y-92585356D01*
X171939860Y-92586225D01*
X171937328Y-92590016D01*
X171937316Y-92590035D01*
X171936809Y-92590985D01*
X171930573Y-92601387D01*
X171879223Y-92678240D01*
X171879218Y-92678249D01*
X171826421Y-92805715D01*
X171826414Y-92805746D01*
X171811019Y-92883143D01*
X171809304Y-92890565D01*
X171805690Y-92904270D01*
X171805681Y-92904309D01*
X171711127Y-93341782D01*
X171707634Y-93359460D01*
X171707496Y-93360228D01*
X171707495Y-93360241D01*
X171703307Y-93399440D01*
X171701628Y-93410447D01*
X171699500Y-93421145D01*
X171699500Y-93421153D01*
X171699500Y-93578846D01*
X171699500Y-93578848D01*
X171699499Y-93578848D01*
X168800499Y-93578848D01*
X168800500Y-93578842D01*
X168800500Y-93421158D01*
X168800500Y-93421155D01*
X168800499Y-93421153D01*
X168776139Y-93298690D01*
X168769737Y-93266503D01*
X168721836Y-93150858D01*
X168709397Y-93120827D01*
X168709390Y-93120814D01*
X168621789Y-92989711D01*
X168621786Y-92989707D01*
X168621781Y-92989701D01*
X168510297Y-92878217D01*
X168510291Y-92878212D01*
X168510290Y-92878211D01*
X168379191Y-92790613D01*
X168379190Y-92790612D01*
X168379185Y-92790609D01*
X168379172Y-92790602D01*
X168379165Y-92790598D01*
X168233502Y-92730264D01*
X168233471Y-92730257D01*
X168078847Y-92699500D01*
X168078845Y-92699500D01*
X168078842Y-92699500D01*
X167921158Y-92699500D01*
X167921155Y-92699500D01*
X167921153Y-92699500D01*
X167766527Y-92730257D01*
X167766496Y-92730264D01*
X167620833Y-92790598D01*
X167620815Y-92790608D01*
X167583716Y-92815398D01*
X167551874Y-92830632D01*
X167536955Y-92835303D01*
X167467106Y-92836551D01*
X167462556Y-92835303D01*
X167453974Y-92832948D01*
X167417885Y-92816468D01*
X167379191Y-92790613D01*
X167379190Y-92790612D01*
X167379185Y-92790609D01*
X167379172Y-92790602D01*
X167379165Y-92790598D01*
X167233502Y-92730264D01*
X167233471Y-92730257D01*
X167078847Y-92699500D01*
X167078845Y-92699500D01*
X167078842Y-92699500D01*
X166921158Y-92699500D01*
X166921155Y-92699500D01*
X166921152Y-92699500D01*
X166866178Y-92710435D01*
X166830936Y-92712325D01*
X166817111Y-92711088D01*
X166752093Y-92685507D01*
X166711226Y-92628835D01*
X166707560Y-92618442D01*
X166700500Y-92577198D01*
X166700500Y-87407714D01*
X166720185Y-87340675D01*
X166753194Y-87306267D01*
X166963429Y-87158512D01*
X166969828Y-87153940D01*
X166970113Y-87153733D01*
X166998126Y-87130658D01*
X167008072Y-87123269D01*
X167010289Y-87121789D01*
X167012541Y-87119535D01*
X167014358Y-87117888D01*
X167022024Y-87110139D01*
X167022027Y-87110142D01*
X167022827Y-87109249D01*
X167121789Y-87010289D01*
X167209394Y-86879179D01*
X167269737Y-86733497D01*
X167300500Y-86578842D01*
X167300500Y-86421158D01*
X167300500Y-86421155D01*
X167300500Y-86420972D01*
X167300065Y-86418972D01*
X167296767Y-86402393D01*
X167296767Y-86402391D01*
X167269739Y-86266510D01*
X167269736Y-86266501D01*
X167259388Y-86241518D01*
X167209402Y-86120840D01*
X167209397Y-86120827D01*
X167209390Y-86120814D01*
X167121789Y-85989711D01*
X167121786Y-85989707D01*
X167121785Y-85989706D01*
X167121781Y-85989701D01*
X167010297Y-85878217D01*
X167010291Y-85878212D01*
X167010290Y-85878211D01*
X166879191Y-85790613D01*
X166879190Y-85790612D01*
X166879185Y-85790609D01*
X166879172Y-85790602D01*
X166879165Y-85790598D01*
X166733502Y-85730264D01*
X166733471Y-85730257D01*
X166578847Y-85699500D01*
X166578845Y-85699500D01*
X166578842Y-85699500D01*
X166421158Y-85699500D01*
X166421155Y-85699500D01*
X166421153Y-85699500D01*
X166266527Y-85730257D01*
X166266496Y-85730264D01*
X166120833Y-85790598D01*
X166120824Y-85790603D01*
X166120807Y-85790613D01*
X165989708Y-85878211D01*
X165989707Y-85878212D01*
X165989701Y-85878217D01*
X165878217Y-85989701D01*
X165878213Y-85989706D01*
X165878206Y-85989715D01*
X165865862Y-86008189D01*
X165853037Y-86024304D01*
X165841488Y-86036567D01*
X165841482Y-86036575D01*
X165537186Y-86469541D01*
X165523419Y-86485919D01*
X165455890Y-86553450D01*
X165455886Y-86553454D01*
X165379225Y-86668186D01*
X165379218Y-86668199D01*
X165326424Y-86795657D01*
X165326423Y-86795658D01*
X165326421Y-86795667D01*
X165326418Y-86795678D01*
X165302259Y-86917142D01*
X165301294Y-86921992D01*
X165301292Y-86921999D01*
X165299500Y-86931005D01*
X165299500Y-94319392D01*
X165297653Y-94340711D01*
X165207040Y-94859915D01*
X165207040Y-94859918D01*
X165205203Y-94887190D01*
X165203101Y-94903042D01*
X165199500Y-94921146D01*
X165199500Y-94921153D01*
X165199500Y-95078846D01*
X165199500Y-95078848D01*
X165199499Y-95078848D01*
X165230257Y-95233471D01*
X165230264Y-95233502D01*
X165290598Y-95379165D01*
X165290603Y-95379174D01*
X165290613Y-95379191D01*
X165378211Y-95510290D01*
X165378212Y-95510291D01*
X165378217Y-95510297D01*
X165489701Y-95621781D01*
X165489707Y-95621786D01*
X165489711Y-95621789D01*
X165620814Y-95709390D01*
X165620827Y-95709397D01*
X165766498Y-95769735D01*
X165766503Y-95769737D01*
X165896982Y-95795691D01*
X165913520Y-95798980D01*
X165916248Y-95799703D01*
X165921155Y-95800500D01*
X166078844Y-95800500D01*
X166082965Y-95800500D01*
X166090820Y-95798116D01*
X166209207Y-95774568D01*
X166219971Y-95772915D01*
X166240157Y-95770718D01*
X166240158Y-95770720D01*
X166259426Y-95768623D01*
X166328197Y-95780942D01*
X166379394Y-95828487D01*
X166382061Y-95832969D01*
X166399500Y-95896378D01*
X166399500Y-110411590D01*
X166399499Y-110411664D01*
X166399499Y-110536960D01*
X166393600Y-110557046D01*
X166425655Y-110676672D01*
X166440423Y-110731785D01*
X166445383Y-110740375D01*
X166445401Y-110740410D01*
X166519470Y-110868702D01*
X166519477Y-110868712D01*
X166519482Y-110868718D01*
X166519488Y-110868725D01*
X166640314Y-110989551D01*
X166640359Y-110989594D01*
X168433584Y-112782819D01*
X168467069Y-112844142D01*
X168462085Y-112913834D01*
X168420213Y-112969767D01*
X168354749Y-112994184D01*
X168345903Y-112994500D01*
X166612756Y-112994500D01*
X166602907Y-112994620D01*
X166600358Y-112994652D01*
X166594245Y-112994802D01*
X166591118Y-112994917D01*
X166586588Y-112995000D01*
X166413412Y-112995000D01*
X166408883Y-112994917D01*
X166405759Y-112994802D01*
X166399639Y-112994652D01*
X166397913Y-112994630D01*
X166387244Y-112994500D01*
X166387213Y-112994500D01*
X164137330Y-112994500D01*
X164083306Y-112997395D01*
X164056937Y-113000230D01*
X164003571Y-113008875D01*
X164003553Y-113008879D01*
X163995998Y-113010522D01*
X163995973Y-113010529D01*
X163877094Y-113052474D01*
X163877084Y-113052479D01*
X163822210Y-113079956D01*
X163822189Y-113079968D01*
X163717396Y-113150024D01*
X163717388Y-113150030D01*
X163716018Y-113151218D01*
X163621878Y-113259911D01*
X163621875Y-113259915D01*
X163584137Y-113318655D01*
X163524403Y-113449479D01*
X163521363Y-113459830D01*
X163520001Y-113464472D01*
X163513716Y-113493360D01*
X163504667Y-113534953D01*
X163499645Y-113569888D01*
X163494500Y-113641826D01*
X162500500Y-113641826D01*
X162500500Y-82938384D01*
X164874500Y-82938384D01*
X164874500Y-83061614D01*
X164898533Y-83182437D01*
X164898534Y-83182441D01*
X164898535Y-83182444D01*
X164898538Y-83182454D01*
X164898541Y-83182462D01*
X164898546Y-83182476D01*
X164945681Y-83296272D01*
X164945696Y-83296299D01*
X165014145Y-83398738D01*
X165101257Y-83485850D01*
X165101263Y-83485855D01*
X165101264Y-83485856D01*
X165203710Y-83554309D01*
X165203713Y-83554310D01*
X165203714Y-83554311D01*
X165317548Y-83601463D01*
X165371237Y-83612142D01*
X165419680Y-83621778D01*
X165419700Y-83621781D01*
X165419722Y-83621786D01*
X165435428Y-83624910D01*
X165437654Y-83625409D01*
X165438391Y-83625500D01*
X165561607Y-83625500D01*
X165565729Y-83625500D01*
X165573583Y-83623117D01*
X165682452Y-83601463D01*
X165796286Y-83554311D01*
X165898733Y-83485858D01*
X165985858Y-83398733D01*
X166054311Y-83296286D01*
X166101463Y-83182452D01*
X166125500Y-83061606D01*
X166125500Y-82938394D01*
X166125498Y-82938384D01*
X166674500Y-82938384D01*
X166674500Y-83061614D01*
X166698533Y-83182437D01*
X166698534Y-83182441D01*
X166698535Y-83182444D01*
X166698538Y-83182454D01*
X166698541Y-83182462D01*
X166698546Y-83182476D01*
X166745681Y-83296272D01*
X166745696Y-83296299D01*
X166814145Y-83398738D01*
X166901257Y-83485850D01*
X166901263Y-83485855D01*
X166901264Y-83485856D01*
X167003710Y-83554309D01*
X167003713Y-83554310D01*
X167003714Y-83554311D01*
X167117548Y-83601463D01*
X167171237Y-83612142D01*
X167219680Y-83621778D01*
X167219700Y-83621781D01*
X167219722Y-83621786D01*
X167235428Y-83624910D01*
X167237654Y-83625409D01*
X167238391Y-83625500D01*
X167361607Y-83625500D01*
X167365729Y-83625500D01*
X167373583Y-83623117D01*
X167482452Y-83601463D01*
X167596286Y-83554311D01*
X167698733Y-83485858D01*
X167785858Y-83398733D01*
X167854311Y-83296286D01*
X167901463Y-83182452D01*
X167925500Y-83061606D01*
X167925500Y-82938394D01*
X167925498Y-82938384D01*
X170574500Y-82938384D01*
X170574500Y-83061614D01*
X170598533Y-83182437D01*
X170598534Y-83182441D01*
X170598535Y-83182444D01*
X170598538Y-83182454D01*
X170598541Y-83182462D01*
X170598546Y-83182476D01*
X170645681Y-83296272D01*
X170645696Y-83296299D01*
X170714145Y-83398738D01*
X170801257Y-83485850D01*
X170801263Y-83485855D01*
X170801264Y-83485856D01*
X170903710Y-83554309D01*
X170903713Y-83554310D01*
X170903714Y-83554311D01*
X171017548Y-83601463D01*
X171071237Y-83612142D01*
X171119680Y-83621778D01*
X171119700Y-83621781D01*
X171119722Y-83621786D01*
X171135428Y-83624910D01*
X171137654Y-83625409D01*
X171138391Y-83625500D01*
X171261607Y-83625500D01*
X171265729Y-83625500D01*
X171273583Y-83623117D01*
X171382452Y-83601463D01*
X171496286Y-83554311D01*
X171598733Y-83485858D01*
X171685858Y-83398733D01*
X171754311Y-83296286D01*
X171801463Y-83182452D01*
X171825500Y-83061606D01*
X171825500Y-82938394D01*
X171825498Y-82938384D01*
X172374500Y-82938384D01*
X172374500Y-83061614D01*
X172398533Y-83182437D01*
X172398534Y-83182441D01*
X172398535Y-83182444D01*
X172398538Y-83182454D01*
X172398541Y-83182462D01*
X172398546Y-83182476D01*
X172445681Y-83296272D01*
X172445696Y-83296299D01*
X172514145Y-83398738D01*
X172601257Y-83485850D01*
X172601263Y-83485855D01*
X172601264Y-83485856D01*
X172703710Y-83554309D01*
X172703713Y-83554310D01*
X172703714Y-83554311D01*
X172817548Y-83601463D01*
X172871237Y-83612142D01*
X172919680Y-83621778D01*
X172919700Y-83621781D01*
X172919722Y-83621786D01*
X172935428Y-83624910D01*
X172937654Y-83625409D01*
X172938391Y-83625500D01*
X173061607Y-83625500D01*
X173065729Y-83625500D01*
X173073583Y-83623117D01*
X173182452Y-83601463D01*
X173296286Y-83554311D01*
X173398733Y-83485858D01*
X173485858Y-83398733D01*
X173554311Y-83296286D01*
X173601463Y-83182452D01*
X173625500Y-83061606D01*
X173625500Y-82938394D01*
X173601463Y-82817548D01*
X173557017Y-82710248D01*
X173557017Y-82710244D01*
X173557016Y-82710245D01*
X173554314Y-82703720D01*
X173554302Y-82703699D01*
X173485853Y-82601260D01*
X173398738Y-82514145D01*
X173305241Y-82451671D01*
X176025000Y-82451671D01*
X176025000Y-82451677D01*
X176025000Y-82475000D01*
X176750000Y-82475000D01*
X176750000Y-81775000D01*
X176749999Y-81774998D01*
X176749998Y-81774998D01*
X176701713Y-81774999D01*
X176701685Y-81775000D01*
X176701651Y-81775003D01*
X176602390Y-81785144D01*
X176441520Y-81838451D01*
X176441508Y-81838456D01*
X176441505Y-81838458D01*
X176297286Y-81927413D01*
X176297264Y-81927429D01*
X176297261Y-81927431D01*
X176177431Y-82047261D01*
X176177429Y-82047264D01*
X176177413Y-82047286D01*
X176088458Y-82191505D01*
X176088456Y-82191508D01*
X176088449Y-82191522D01*
X176035143Y-82352394D01*
X176025000Y-82451671D01*
X173305241Y-82451671D01*
X173296299Y-82445696D01*
X173296294Y-82445693D01*
X173296292Y-82445692D01*
X173296283Y-82445687D01*
X173203477Y-82407246D01*
X173203476Y-82407245D01*
X173182474Y-82398546D01*
X173182455Y-82398538D01*
X173182453Y-82398537D01*
X173182452Y-82398537D01*
X173182448Y-82398536D01*
X173182444Y-82398535D01*
X173182437Y-82398533D01*
X173182418Y-82398529D01*
X173061614Y-82374500D01*
X173061610Y-82374500D01*
X173061606Y-82374500D01*
X172938394Y-82374500D01*
X172938389Y-82374500D01*
X172938384Y-82374500D01*
X172817561Y-82398533D01*
X172817555Y-82398535D01*
X172817545Y-82398538D01*
X172817540Y-82398539D01*
X172817522Y-82398546D01*
X172703726Y-82445681D01*
X172703699Y-82445696D01*
X172601260Y-82514145D01*
X172514145Y-82601260D01*
X172445696Y-82703699D01*
X172445681Y-82703726D01*
X172398546Y-82817522D01*
X172398533Y-82817561D01*
X172374500Y-82938384D01*
X171825498Y-82938384D01*
X171821451Y-82918039D01*
X171804570Y-82833170D01*
X171801463Y-82817548D01*
X171757017Y-82710248D01*
X171757017Y-82710244D01*
X171757016Y-82710245D01*
X171754314Y-82703720D01*
X171754302Y-82703699D01*
X171685853Y-82601260D01*
X171598738Y-82514145D01*
X171496299Y-82445696D01*
X171496294Y-82445693D01*
X171496292Y-82445692D01*
X171496283Y-82445687D01*
X171403477Y-82407246D01*
X171403476Y-82407245D01*
X171382474Y-82398546D01*
X171382455Y-82398538D01*
X171382453Y-82398537D01*
X171382452Y-82398537D01*
X171382448Y-82398536D01*
X171382444Y-82398535D01*
X171382437Y-82398533D01*
X171382418Y-82398529D01*
X171261614Y-82374500D01*
X171261610Y-82374500D01*
X171261606Y-82374500D01*
X171138394Y-82374500D01*
X171138389Y-82374500D01*
X171138384Y-82374500D01*
X171017561Y-82398533D01*
X171017555Y-82398535D01*
X171017545Y-82398538D01*
X171017540Y-82398539D01*
X171017522Y-82398546D01*
X170903726Y-82445681D01*
X170903699Y-82445696D01*
X170801260Y-82514145D01*
X170714145Y-82601260D01*
X170645696Y-82703699D01*
X170645681Y-82703726D01*
X170598546Y-82817522D01*
X170598533Y-82817561D01*
X170574500Y-82938384D01*
X167925498Y-82938384D01*
X167921451Y-82918039D01*
X167904570Y-82833170D01*
X167901463Y-82817548D01*
X167857017Y-82710248D01*
X167857017Y-82710244D01*
X167857016Y-82710245D01*
X167854314Y-82703720D01*
X167854302Y-82703699D01*
X167785853Y-82601260D01*
X167698738Y-82514145D01*
X167596299Y-82445696D01*
X167596294Y-82445693D01*
X167596292Y-82445692D01*
X167596283Y-82445687D01*
X167503477Y-82407246D01*
X167503476Y-82407245D01*
X167482474Y-82398546D01*
X167482455Y-82398538D01*
X167482453Y-82398537D01*
X167482452Y-82398537D01*
X167482448Y-82398536D01*
X167482444Y-82398535D01*
X167482437Y-82398533D01*
X167482418Y-82398529D01*
X167361614Y-82374500D01*
X167361610Y-82374500D01*
X167361606Y-82374500D01*
X167238394Y-82374500D01*
X167238389Y-82374500D01*
X167238384Y-82374500D01*
X167117561Y-82398533D01*
X167117555Y-82398535D01*
X167117545Y-82398538D01*
X167117540Y-82398539D01*
X167117522Y-82398546D01*
X167003726Y-82445681D01*
X167003699Y-82445696D01*
X166901260Y-82514145D01*
X166814145Y-82601260D01*
X166745696Y-82703699D01*
X166745681Y-82703726D01*
X166698546Y-82817522D01*
X166698533Y-82817561D01*
X166674500Y-82938384D01*
X166125498Y-82938384D01*
X166121451Y-82918039D01*
X166104570Y-82833170D01*
X166101463Y-82817548D01*
X166057017Y-82710248D01*
X166057017Y-82710244D01*
X166057016Y-82710245D01*
X166054314Y-82703720D01*
X166054302Y-82703699D01*
X165985853Y-82601260D01*
X165898738Y-82514145D01*
X165796299Y-82445696D01*
X165796294Y-82445693D01*
X165796292Y-82445692D01*
X165796283Y-82445687D01*
X165703477Y-82407246D01*
X165703476Y-82407245D01*
X165682474Y-82398546D01*
X165682455Y-82398538D01*
X165682453Y-82398537D01*
X165682452Y-82398537D01*
X165682448Y-82398536D01*
X165682444Y-82398535D01*
X165682437Y-82398533D01*
X165682418Y-82398529D01*
X165561614Y-82374500D01*
X165561610Y-82374500D01*
X165561606Y-82374500D01*
X165438394Y-82374500D01*
X165438389Y-82374500D01*
X165438384Y-82374500D01*
X165317561Y-82398533D01*
X165317555Y-82398535D01*
X165317545Y-82398538D01*
X165317540Y-82398539D01*
X165317522Y-82398546D01*
X165203726Y-82445681D01*
X165203699Y-82445696D01*
X165101260Y-82514145D01*
X165014145Y-82601260D01*
X164945696Y-82703699D01*
X164945681Y-82703726D01*
X164898546Y-82817522D01*
X164898533Y-82817561D01*
X164874500Y-82938384D01*
X162500500Y-82938384D01*
X162500500Y-69141829D01*
X162505523Y-69106893D01*
X162509927Y-69091895D01*
X162547672Y-69033144D01*
X162549041Y-69031957D01*
X162603920Y-69004477D01*
X162604192Y-69004418D01*
X162605541Y-69004124D01*
X162611479Y-69002833D01*
X162637832Y-69000000D01*
X176734957Y-69000000D01*
X176769892Y-69005023D01*
G37*
%TD.AperFunction*%
%TD*%
%TA.AperFunction,Conductor*%
%TO.N,+5V*%
G36*
X190943039Y-121519685D02*
G01*
X190988794Y-121572489D01*
X191000000Y-121624000D01*
X191000000Y-125876000D01*
X190980315Y-125943039D01*
X190927511Y-125988794D01*
X190876000Y-126000000D01*
X183624000Y-126000000D01*
X183556961Y-125980315D01*
X183511206Y-125927511D01*
X183500000Y-125876000D01*
X183500000Y-121624000D01*
X183519685Y-121556961D01*
X183572489Y-121511206D01*
X183624000Y-121500000D01*
X190876000Y-121500000D01*
X190943039Y-121519685D01*
G37*
%TD.AperFunction*%
%TD*%
%TA.AperFunction,Conductor*%
%TO.N,+3.3V*%
G36*
X208893106Y-87005023D02*
G01*
X208908104Y-87009427D01*
X208966855Y-87047172D01*
X208968042Y-87048541D01*
X208995518Y-87103402D01*
X208997163Y-87110960D01*
X209000000Y-87137331D01*
X209000000Y-88387243D01*
X208999851Y-88393320D01*
X208999500Y-88400473D01*
X208999500Y-88599540D01*
X208999850Y-88606655D01*
X209000000Y-88612748D01*
X209000000Y-95858170D01*
X208994975Y-95893114D01*
X208990570Y-95908112D01*
X208952827Y-95966855D01*
X208951458Y-95968042D01*
X208896597Y-95995518D01*
X208889039Y-95997163D01*
X208862668Y-96000000D01*
X207059849Y-96000000D01*
X207024913Y-95994977D01*
X206999671Y-95987565D01*
X206946926Y-95956269D01*
X205746546Y-94755888D01*
X205746545Y-94755887D01*
X205631810Y-94679224D01*
X205631809Y-94679223D01*
X205631807Y-94679222D01*
X205631805Y-94679221D01*
X205631803Y-94679220D01*
X205504347Y-94626426D01*
X205504336Y-94626423D01*
X205504332Y-94626421D01*
X205504322Y-94626418D01*
X205504317Y-94626416D01*
X205368998Y-94599500D01*
X205368996Y-94599500D01*
X205368994Y-94599500D01*
X205368993Y-94599500D01*
X204641830Y-94599500D01*
X204606889Y-94594475D01*
X204591890Y-94590070D01*
X204533144Y-94552327D01*
X204531957Y-94550958D01*
X204504477Y-94496083D01*
X204502832Y-94488521D01*
X204500000Y-94462168D01*
X204500000Y-93292328D01*
X204505023Y-93257392D01*
X204509427Y-93242394D01*
X204547172Y-93183643D01*
X204548541Y-93182456D01*
X204603420Y-93154976D01*
X204610979Y-93153332D01*
X204637332Y-93150499D01*
X206847871Y-93150499D01*
X206847872Y-93150499D01*
X206907483Y-93144091D01*
X207042331Y-93093796D01*
X207157546Y-93007546D01*
X207243796Y-92892331D01*
X207294091Y-92757483D01*
X207300500Y-92697873D01*
X207300499Y-90002128D01*
X207294091Y-89942517D01*
X207243796Y-89807669D01*
X207243795Y-89807668D01*
X207243793Y-89807664D01*
X207243778Y-89807623D01*
X207243199Y-89806703D01*
X207242249Y-89805164D01*
X207241397Y-89803937D01*
X207241391Y-89803928D01*
X207238489Y-89800579D01*
X207157547Y-89692455D01*
X207157544Y-89692452D01*
X207157542Y-89692450D01*
X207099616Y-89649086D01*
X207042335Y-89606206D01*
X207042332Y-89606204D01*
X207042330Y-89606203D01*
X207042328Y-89606202D01*
X206992844Y-89587746D01*
X206957497Y-89561284D01*
X206855583Y-89550328D01*
X206850742Y-89549500D01*
X206847881Y-89549500D01*
X206847873Y-89549500D01*
X206847865Y-89549500D01*
X204641830Y-89549500D01*
X204606889Y-89544475D01*
X204591890Y-89540070D01*
X204533144Y-89502327D01*
X204531957Y-89500958D01*
X204504477Y-89446083D01*
X204502832Y-89438521D01*
X204500000Y-89412168D01*
X204500000Y-87141829D01*
X204505023Y-87106893D01*
X204509427Y-87091895D01*
X204547172Y-87033144D01*
X204548541Y-87031957D01*
X204603420Y-87004477D01*
X204610979Y-87002833D01*
X204637332Y-87000000D01*
X208858170Y-87000000D01*
X208893106Y-87005023D01*
G37*
%TD.AperFunction*%
%TD*%
%TA.AperFunction,Conductor*%
%TO.N,+3.3V*%
G36*
X188393106Y-112505023D02*
G01*
X188408104Y-112509427D01*
X188466855Y-112547172D01*
X188468042Y-112548541D01*
X188495518Y-112603402D01*
X188497163Y-112610960D01*
X188500000Y-112637331D01*
X188500000Y-115657670D01*
X188494975Y-115692614D01*
X188490570Y-115707612D01*
X188452827Y-115766355D01*
X188451458Y-115767542D01*
X188396597Y-115795018D01*
X188389039Y-115796663D01*
X188362668Y-115799500D01*
X182624000Y-115799500D01*
X182556961Y-115779815D01*
X182511206Y-115727011D01*
X182500000Y-115675500D01*
X182500000Y-112641829D01*
X182505023Y-112606893D01*
X182509427Y-112591895D01*
X182547172Y-112533144D01*
X182548541Y-112531957D01*
X182603420Y-112504477D01*
X182610979Y-112502833D01*
X182637332Y-112500000D01*
X188358170Y-112500000D01*
X188393106Y-112505023D01*
G37*
%TD.AperFunction*%
%TD*%
%TA.AperFunction,Conductor*%
%TO.N,+3.3V*%
G36*
X166393321Y-113500149D02*
G01*
X166396027Y-113500281D01*
X166400469Y-113500500D01*
X166401459Y-113500500D01*
X166599526Y-113500500D01*
X166599531Y-113500500D01*
X166603972Y-113500281D01*
X166606679Y-113500149D01*
X166612756Y-113500000D01*
X168798729Y-113500000D01*
X168833661Y-113505021D01*
X168858905Y-113512434D01*
X168911649Y-113543728D01*
X168989707Y-113621786D01*
X168989711Y-113621789D01*
X169120814Y-113709390D01*
X169120827Y-113709397D01*
X169266498Y-113769735D01*
X169266503Y-113769737D01*
X169413513Y-113798979D01*
X169416247Y-113799703D01*
X169421155Y-113800500D01*
X169578844Y-113800500D01*
X169582964Y-113800500D01*
X169590814Y-113798118D01*
X169733497Y-113769737D01*
X169879179Y-113709394D01*
X170010289Y-113621789D01*
X170010292Y-113621786D01*
X170083154Y-113548925D01*
X170111407Y-113527774D01*
X170134497Y-113515167D01*
X170193922Y-113500000D01*
X182376000Y-113500000D01*
X182443039Y-113519685D01*
X182488794Y-113572489D01*
X182500000Y-113624000D01*
X182500000Y-115675500D01*
X182480315Y-115742539D01*
X182427511Y-115788294D01*
X182376000Y-115799500D01*
X182180607Y-115799500D01*
X182159288Y-115797654D01*
X182091830Y-115785880D01*
X181640081Y-115707039D01*
X181640078Y-115707038D01*
X181640068Y-115707037D01*
X181612870Y-115705211D01*
X181596993Y-115703109D01*
X181583110Y-115700348D01*
X181578845Y-115699500D01*
X181578844Y-115699500D01*
X181421153Y-115699500D01*
X181266527Y-115730257D01*
X181266496Y-115730264D01*
X181120833Y-115790598D01*
X181120824Y-115790603D01*
X181120807Y-115790613D01*
X180989715Y-115878207D01*
X180989707Y-115878213D01*
X180989697Y-115878221D01*
X180916844Y-115951075D01*
X180888592Y-115972225D01*
X180865507Y-115984831D01*
X180806078Y-116000000D01*
X164141830Y-116000000D01*
X164106889Y-115994975D01*
X164091890Y-115990570D01*
X164033144Y-115952827D01*
X164031957Y-115951458D01*
X164004477Y-115896583D01*
X164002832Y-115889021D01*
X164000000Y-115862668D01*
X164000000Y-113641829D01*
X164005023Y-113606893D01*
X164009427Y-113591895D01*
X164047172Y-113533144D01*
X164048541Y-113531957D01*
X164103420Y-113504477D01*
X164110979Y-113502833D01*
X164137332Y-113500000D01*
X166387244Y-113500000D01*
X166393321Y-113500149D01*
G37*
%TD.AperFunction*%
%TD*%
%TA.AperFunction,Conductor*%
%TO.N,Net-(H1-+)*%
G36*
X203206860Y-90353809D02*
G01*
X204982577Y-91339771D01*
X204988146Y-91346783D01*
X204987126Y-91355680D01*
X204982577Y-91360229D01*
X203206860Y-92346190D01*
X203197963Y-92347210D01*
X203193871Y-92345097D01*
X202204391Y-91553512D01*
X202200072Y-91545668D01*
X202200000Y-91544376D01*
X202200000Y-91155623D01*
X202203427Y-91147350D01*
X202204391Y-91146487D01*
X203193873Y-90354901D01*
X203202472Y-90352410D01*
X203206860Y-90353809D01*
G37*
%TD.AperFunction*%
%TD*%
%TA.AperFunction,Conductor*%
%TO.N,Net-(H1-+)*%
G36*
X185451961Y-87323757D02*
G01*
X185453586Y-87325673D01*
X185557244Y-87478693D01*
X185815810Y-87860387D01*
X185817612Y-87869159D01*
X185814396Y-87875222D01*
X185544449Y-88145169D01*
X185536176Y-88148596D01*
X185530781Y-88147278D01*
X185174950Y-87962374D01*
X185169189Y-87955518D01*
X185169045Y-87955025D01*
X185005644Y-87346143D01*
X185006809Y-87337264D01*
X185013911Y-87331810D01*
X185016639Y-87331414D01*
X185443605Y-87320542D01*
X185451961Y-87323757D01*
G37*
%TD.AperFunction*%
%TD*%
%TA.AperFunction,Conductor*%
%TO.N,Net-(IC1-X2)*%
G36*
X188451081Y-88153287D02*
G01*
X188454217Y-88156541D01*
X188975212Y-88964551D01*
X188976815Y-88973361D01*
X188973652Y-88979164D01*
X188700965Y-89251851D01*
X188692692Y-89255278D01*
X188692567Y-89255277D01*
X188206373Y-89250097D01*
X188198137Y-89246583D01*
X188195102Y-89241046D01*
X188130866Y-88964551D01*
X187964582Y-88248799D01*
X187966047Y-88239968D01*
X187973330Y-88234758D01*
X187973919Y-88234637D01*
X188442337Y-88151362D01*
X188451081Y-88153287D01*
G37*
%TD.AperFunction*%
%TD*%
%TA.AperFunction,Conductor*%
%TO.N,Net-(IC1-X2)*%
G36*
X188936757Y-88925344D02*
G01*
X189473895Y-89211709D01*
X189677046Y-89320015D01*
X189682735Y-89326931D01*
X189682360Y-89334796D01*
X189502735Y-89770783D01*
X189496415Y-89777127D01*
X189495661Y-89777411D01*
X189034519Y-89933180D01*
X189025585Y-89932581D01*
X189020384Y-89927471D01*
X188650198Y-89211709D01*
X188649441Y-89202786D01*
X188652315Y-89198063D01*
X188922983Y-88927395D01*
X188931255Y-88923969D01*
X188936757Y-88925344D01*
G37*
%TD.AperFunction*%
%TD*%
%TA.AperFunction,Conductor*%
%TO.N,Net-(IC1-X2)*%
G36*
X185442337Y-86189513D02*
G01*
X185446684Y-86190901D01*
X185450099Y-86192790D01*
X185454122Y-86196465D01*
X185789026Y-86690849D01*
X185814504Y-86728459D01*
X185816278Y-86732667D01*
X185816765Y-86735038D01*
X185815641Y-86742872D01*
X185815218Y-86743670D01*
X185813154Y-86746463D01*
X185546745Y-87012872D01*
X185542947Y-87015409D01*
X185540657Y-87016357D01*
X185532860Y-87016765D01*
X185532080Y-87016534D01*
X185529012Y-87015117D01*
X185036577Y-86694040D01*
X185033315Y-86690851D01*
X185030988Y-86687452D01*
X185029122Y-86682880D01*
X184934920Y-86149499D01*
X184935020Y-86144934D01*
X184935405Y-86143198D01*
X184940536Y-86135866D01*
X184941156Y-86135470D01*
X184948758Y-86133711D01*
X185442337Y-86189513D01*
G37*
%TD.AperFunction*%
%TD*%
%TA.AperFunction,Conductor*%
%TO.N,Net-(IC1-X2)*%
G36*
X186708768Y-87623273D02*
G01*
X186711356Y-87624244D01*
X187261308Y-87908702D01*
X187716218Y-88143999D01*
X187719785Y-88146848D01*
X187720834Y-88148091D01*
X187721125Y-88148436D01*
X187723869Y-88156463D01*
X187723811Y-88157858D01*
X187722937Y-88161833D01*
X187505199Y-88689812D01*
X187502668Y-88693612D01*
X187500909Y-88695376D01*
X187493884Y-88698747D01*
X187493090Y-88698833D01*
X187489737Y-88698712D01*
X186560043Y-88529643D01*
X186555797Y-88527966D01*
X186553251Y-88526325D01*
X186548154Y-88518963D01*
X186548136Y-88518877D01*
X186547221Y-88514485D01*
X186473719Y-88161833D01*
X186421432Y-87910973D01*
X186421392Y-87906414D01*
X186422036Y-87903015D01*
X186425255Y-87896926D01*
X186694820Y-87627361D01*
X186698613Y-87624828D01*
X186701206Y-87623754D01*
X186708464Y-87623199D01*
X186708768Y-87623273D01*
G37*
%TD.AperFunction*%
%TD*%
%TA.AperFunction,Conductor*%
%TO.N,Net-(IC1-X1)*%
G36*
X189164699Y-84795493D02*
G01*
X189169279Y-84799040D01*
X189495401Y-85217811D01*
X189497781Y-85226444D01*
X189495401Y-85232189D01*
X189169279Y-85650959D01*
X189161492Y-85655381D01*
X189155746Y-85654650D01*
X188582398Y-85427925D01*
X188575964Y-85421696D01*
X188575000Y-85417045D01*
X188575000Y-85032954D01*
X188578427Y-85024681D01*
X188582395Y-85022075D01*
X189155748Y-84795349D01*
X189164699Y-84795493D01*
G37*
%TD.AperFunction*%
%TD*%
%TA.AperFunction,Conductor*%
%TO.N,Net-(IC1-X1)*%
G36*
X188455223Y-84752611D02*
G01*
X188993532Y-85021766D01*
X188999400Y-85028531D01*
X189000000Y-85032231D01*
X189000000Y-85418577D01*
X188996573Y-85426850D01*
X188994581Y-85428448D01*
X188455991Y-85771187D01*
X188447172Y-85772737D01*
X188443852Y-85771444D01*
X187517816Y-85235882D01*
X187512370Y-85228774D01*
X187513546Y-85219896D01*
X187518446Y-85215287D01*
X188444770Y-84752611D01*
X188453702Y-84751981D01*
X188455223Y-84752611D01*
G37*
%TD.AperFunction*%
%TD*%
%TA.AperFunction,Conductor*%
%TO.N,Net-(IC1-X1)*%
G36*
X185767500Y-84892115D02*
G01*
X185773992Y-84898283D01*
X185775000Y-84903035D01*
X185775000Y-85286964D01*
X185771573Y-85295237D01*
X185767500Y-85297884D01*
X185454461Y-85418284D01*
X185445614Y-85418102D01*
X185142584Y-85286964D01*
X184723812Y-85105737D01*
X184717582Y-85099307D01*
X184717722Y-85090353D01*
X184723813Y-85084262D01*
X185445616Y-84771896D01*
X185454459Y-84771715D01*
X185767500Y-84892115D01*
G37*
%TD.AperFunction*%
%TD*%
%TA.AperFunction,Conductor*%
%TO.N,Net-(IC1-X1)*%
G36*
X186548761Y-84751035D02*
G01*
X186551648Y-84751164D01*
X186555107Y-84751852D01*
X187475217Y-85085645D01*
X187479124Y-85088012D01*
X187480217Y-85089012D01*
X187484007Y-85097125D01*
X187481288Y-85105158D01*
X187480596Y-85105984D01*
X187477485Y-85108598D01*
X186558162Y-85640278D01*
X186553841Y-85641749D01*
X186550657Y-85642171D01*
X186542839Y-85640443D01*
X186007384Y-85299698D01*
X186004085Y-85296543D01*
X186002120Y-85293740D01*
X186000000Y-85287024D01*
X186000000Y-84906341D01*
X186000889Y-84901866D01*
X186001902Y-84899421D01*
X186006875Y-84893759D01*
X186007367Y-84893475D01*
X186010214Y-84892306D01*
X186544738Y-84751386D01*
X186548243Y-84751012D01*
X186548761Y-84751035D01*
G37*
%TD.AperFunction*%
%TD*%
%TA.AperFunction,Conductor*%
%TO.N,+3.3V*%
G36*
X177507077Y-83357455D02*
G01*
X177917599Y-83767977D01*
X177921026Y-83776250D01*
X177919004Y-83782825D01*
X177479997Y-84429040D01*
X177472513Y-84433957D01*
X177466575Y-84433550D01*
X177004338Y-84277411D01*
X176997596Y-84271516D01*
X176997264Y-84270783D01*
X176817196Y-83833719D01*
X176817213Y-83824764D01*
X176821360Y-83819639D01*
X177492153Y-83356102D01*
X177500907Y-83354219D01*
X177507077Y-83357455D01*
G37*
%TD.AperFunction*%
%TD*%
%TA.AperFunction,Conductor*%
%TO.N,+3.3V*%
G36*
X187931307Y-77508500D02*
G01*
X187936363Y-77515891D01*
X187936497Y-77516651D01*
X188005043Y-77998352D01*
X188005043Y-78001648D01*
X187936497Y-78483348D01*
X187931939Y-78491056D01*
X187923266Y-78493283D01*
X187922506Y-78493149D01*
X187013570Y-78301954D01*
X187006179Y-78296898D01*
X187004278Y-78290505D01*
X187004278Y-77709494D01*
X187007705Y-77701221D01*
X187013568Y-77698045D01*
X187922507Y-77506850D01*
X187931307Y-77508500D01*
G37*
%TD.AperFunction*%
%TD*%
%TA.AperFunction,Conductor*%
%TO.N,RTC_SDA*%
G36*
X180367500Y-88702115D02*
G01*
X180373992Y-88708283D01*
X180375000Y-88713035D01*
X180375000Y-89096964D01*
X180371573Y-89105237D01*
X180367500Y-89107884D01*
X180054461Y-89228284D01*
X180045614Y-89228102D01*
X179742584Y-89096964D01*
X179323812Y-88915737D01*
X179317582Y-88909307D01*
X179317722Y-88900353D01*
X179323813Y-88894262D01*
X180045616Y-88581896D01*
X180054459Y-88581715D01*
X180367500Y-88702115D01*
G37*
%TD.AperFunction*%
%TD*%
%TA.AperFunction,Conductor*%
%TO.N,RTC_SDA*%
G36*
X182682902Y-83506240D02*
G01*
X183054071Y-83846310D01*
X183057856Y-83854426D01*
X183057200Y-83858831D01*
X182877755Y-84367194D01*
X182871770Y-84373855D01*
X182866722Y-84375000D01*
X182483278Y-84375000D01*
X182475005Y-84371573D01*
X182472245Y-84367194D01*
X182292799Y-83858831D01*
X182293277Y-83849889D01*
X182295925Y-83846312D01*
X182667097Y-83506240D01*
X182675511Y-83503179D01*
X182682902Y-83506240D01*
G37*
%TD.AperFunction*%
%TD*%
%TA.AperFunction,Conductor*%
%TO.N,RTC_SCL*%
G36*
X180142943Y-87084050D02*
G01*
X180143380Y-87084305D01*
X180145756Y-87086137D01*
X180412750Y-87353131D01*
X180415287Y-87356927D01*
X180416213Y-87359163D01*
X180416586Y-87367078D01*
X180416321Y-87367940D01*
X180414825Y-87371064D01*
X180054708Y-87902667D01*
X180051459Y-87905874D01*
X180048488Y-87907832D01*
X180042265Y-87909761D01*
X179599306Y-87917885D01*
X179594808Y-87917075D01*
X179593148Y-87916422D01*
X179586711Y-87910221D01*
X179586497Y-87909731D01*
X179586390Y-87909486D01*
X179585745Y-87902027D01*
X179715817Y-87369612D01*
X179728630Y-87317163D01*
X179730556Y-87313031D01*
X179732999Y-87309697D01*
X179736662Y-87306439D01*
X180128623Y-87084302D01*
X180132951Y-87082872D01*
X180135614Y-87082543D01*
X180142943Y-87084050D01*
G37*
%TD.AperFunction*%
%TD*%
%TA.AperFunction,Conductor*%
%TO.N,RTC_SCL*%
G36*
X182329145Y-81607401D02*
G01*
X182669155Y-81992253D01*
X182672065Y-82000722D01*
X182669155Y-82007747D01*
X182329145Y-82392598D01*
X182321099Y-82396529D01*
X182314212Y-82394795D01*
X182019390Y-82212021D01*
X182014164Y-82204749D01*
X182015611Y-82195912D01*
X182015935Y-82195636D01*
X182016419Y-82193197D01*
X182016421Y-82193197D01*
X181778464Y-81955240D01*
X181775037Y-81946967D01*
X181778464Y-81938694D01*
X181856936Y-81860221D01*
X181860727Y-81857689D01*
X182000000Y-81800000D01*
X182314213Y-81605203D01*
X182323049Y-81603757D01*
X182329145Y-81607401D01*
G37*
%TD.AperFunction*%
%TD*%
%TA.AperFunction,Conductor*%
%TO.N,+3.3V*%
G36*
X177474414Y-84117418D02*
G01*
X177479616Y-84122529D01*
X177849801Y-84838290D01*
X177850558Y-84847213D01*
X177847682Y-84851938D01*
X177577017Y-85122603D01*
X177568744Y-85126030D01*
X177563240Y-85124654D01*
X176822953Y-84729984D01*
X176817264Y-84723068D01*
X176817638Y-84715206D01*
X176997265Y-84279214D01*
X177003584Y-84272872D01*
X177004316Y-84272596D01*
X177465481Y-84116819D01*
X177474414Y-84117418D01*
G37*
%TD.AperFunction*%
%TD*%
%TA.AperFunction,Conductor*%
%TO.N,+3.3V*%
G36*
X178554383Y-84771896D02*
G01*
X178991120Y-84960897D01*
X179276186Y-85084262D01*
X179282417Y-85090693D01*
X179282277Y-85099647D01*
X179276186Y-85105738D01*
X178554385Y-85418102D01*
X178545538Y-85418284D01*
X178232500Y-85297884D01*
X178226008Y-85291716D01*
X178225000Y-85286964D01*
X178225000Y-84903035D01*
X178228427Y-84894762D01*
X178232498Y-84892115D01*
X178545540Y-84771715D01*
X178554383Y-84771896D01*
G37*
%TD.AperFunction*%
%TD*%
%TA.AperFunction,Conductor*%
%TO.N,RTC_SCL*%
G36*
X178552088Y-87311849D02*
G01*
X178556488Y-87312807D01*
X178862792Y-87445362D01*
X178991120Y-87500897D01*
X179274051Y-87623338D01*
X179277811Y-87625939D01*
X179278744Y-87626903D01*
X179282035Y-87635231D01*
X179278610Y-87643313D01*
X179277765Y-87644158D01*
X179274139Y-87646623D01*
X178556494Y-87957189D01*
X178552086Y-87958149D01*
X178547831Y-87958236D01*
X178543392Y-87957458D01*
X178234672Y-87838719D01*
X178230812Y-87836280D01*
X178228640Y-87834216D01*
X178225004Y-87826033D01*
X178225000Y-87825735D01*
X178225000Y-87445362D01*
X178225891Y-87440884D01*
X178227038Y-87438115D01*
X178233370Y-87431784D01*
X178233647Y-87431673D01*
X178543399Y-87312538D01*
X178547829Y-87311761D01*
X178552088Y-87311849D01*
G37*
%TD.AperFunction*%
%TD*%
%TA.AperFunction,Conductor*%
%TO.N,RTC_SCL*%
G36*
X177442818Y-87438427D02*
G01*
X177446245Y-87446700D01*
X177446245Y-87801345D01*
X177446245Y-87801346D01*
X177471114Y-87791044D01*
X177480068Y-87791044D01*
X177486400Y-87797376D01*
X177486401Y-87806331D01*
X177485352Y-87808304D01*
X177244846Y-88172275D01*
X177237426Y-88177288D01*
X177228635Y-88175586D01*
X177228083Y-88175198D01*
X176998819Y-88003526D01*
X176996473Y-88001180D01*
X176824808Y-87771925D01*
X176822593Y-87763250D01*
X176827161Y-87755549D01*
X176827710Y-87755162D01*
X177222646Y-87494194D01*
X177224612Y-87493151D01*
X177362849Y-87435891D01*
X177367326Y-87435000D01*
X177434545Y-87435000D01*
X177442818Y-87438427D01*
G37*
%TD.AperFunction*%
%TD*%
%TA.AperFunction,Conductor*%
%TO.N,RTC_SDA*%
G36*
X178554383Y-88676896D02*
G01*
X179229468Y-88969044D01*
X179271838Y-88987380D01*
X179278069Y-88993811D01*
X179277929Y-89002765D01*
X179271498Y-89008996D01*
X179270617Y-89009305D01*
X178552204Y-89229324D01*
X178547703Y-89229787D01*
X178235625Y-89200980D01*
X178227701Y-89196808D01*
X178225000Y-89189330D01*
X178225000Y-88808035D01*
X178228427Y-88799762D01*
X178232498Y-88797115D01*
X178545540Y-88676715D01*
X178554383Y-88676896D01*
G37*
%TD.AperFunction*%
%TD*%
%TA.AperFunction,Conductor*%
%TO.N,RTC_SDA*%
G36*
X178085454Y-88797909D02*
G01*
X178089710Y-88799556D01*
X178091705Y-88800822D01*
X178096587Y-88807161D01*
X178096885Y-88808104D01*
X178097433Y-88811639D01*
X178097433Y-89187836D01*
X178096542Y-89192315D01*
X178095637Y-89194499D01*
X178090226Y-89200400D01*
X178089353Y-89200854D01*
X178085967Y-89202000D01*
X177553328Y-89294958D01*
X177548768Y-89294851D01*
X177547029Y-89294463D01*
X177539701Y-89289317D01*
X177538835Y-89287953D01*
X177537134Y-89283352D01*
X177524937Y-89198437D01*
X177496791Y-89002491D01*
X177496672Y-89000827D01*
X177496672Y-88999171D01*
X177496791Y-88997507D01*
X177523749Y-88809835D01*
X177537112Y-88716803D01*
X177538628Y-88712501D01*
X177539538Y-88710967D01*
X177546700Y-88705603D01*
X177548268Y-88705202D01*
X177553172Y-88705012D01*
X178085454Y-88797909D01*
G37*
%TD.AperFunction*%
%TD*%
%TA.AperFunction,Conductor*%
%TO.N,+5V*%
G36*
X177961553Y-69220360D02*
G01*
X179468687Y-69518136D01*
X179476139Y-69523101D01*
X179478119Y-69529614D01*
X179478119Y-70510385D01*
X179474692Y-70518658D01*
X179468687Y-70521863D01*
X177961574Y-70819635D01*
X177952793Y-70817877D01*
X177947828Y-70810425D01*
X177947669Y-70809374D01*
X177865246Y-70021217D01*
X177865246Y-70018783D01*
X177947669Y-69230625D01*
X177951938Y-69222753D01*
X177960523Y-69220205D01*
X177961553Y-69220360D01*
G37*
%TD.AperFunction*%
%TD*%
%TA.AperFunction,Conductor*%
%TO.N,+5V*%
G36*
X196787623Y-69281885D02*
G01*
X196792301Y-69289520D01*
X196792371Y-69290036D01*
X196874619Y-70017689D01*
X196874238Y-70022234D01*
X196639125Y-70840524D01*
X196633547Y-70847529D01*
X196625138Y-70848667D01*
X195270839Y-70522159D01*
X195263599Y-70516889D01*
X195261881Y-70510785D01*
X195261881Y-69529993D01*
X195265308Y-69521720D01*
X195271750Y-69518437D01*
X196778915Y-69279794D01*
X196787623Y-69281885D01*
G37*
%TD.AperFunction*%
%TD*%
%TA.AperFunction,Conductor*%
%TO.N,+5V*%
G36*
X196961553Y-69280360D02*
G01*
X198468687Y-69578136D01*
X198476139Y-69583101D01*
X198478119Y-69589614D01*
X198478119Y-70570385D01*
X198474692Y-70578658D01*
X198468687Y-70581863D01*
X196961574Y-70879635D01*
X196952793Y-70877877D01*
X196947828Y-70870425D01*
X196947669Y-70869374D01*
X196865246Y-70081217D01*
X196865246Y-70078783D01*
X196947669Y-69290625D01*
X196951938Y-69282753D01*
X196960523Y-69280205D01*
X196961553Y-69280360D01*
G37*
%TD.AperFunction*%
%TD*%
%TA.AperFunction,Conductor*%
%TO.N,BTN_START*%
G36*
X181551035Y-117204639D02*
G01*
X182087745Y-117298309D01*
X182095305Y-117303107D01*
X182097433Y-117309835D01*
X182097433Y-117690164D01*
X182094006Y-117698437D01*
X182087745Y-117701690D01*
X181551036Y-117795359D01*
X181542296Y-117793405D01*
X181537498Y-117785845D01*
X181537443Y-117785497D01*
X181524937Y-117698437D01*
X181496672Y-117501663D01*
X181496672Y-117498336D01*
X181523749Y-117309835D01*
X181537443Y-117214500D01*
X181542011Y-117206801D01*
X181550688Y-117204585D01*
X181551035Y-117204639D01*
G37*
%TD.AperFunction*%
%TD*%
%TA.AperFunction,Conductor*%
%TO.N,BTN_START*%
G36*
X208198438Y-119905994D02*
G01*
X208201691Y-119912255D01*
X208295359Y-120448963D01*
X208293405Y-120457703D01*
X208285845Y-120462501D01*
X208285497Y-120462556D01*
X208001664Y-120503327D01*
X207998336Y-120503327D01*
X207714502Y-120462556D01*
X207706801Y-120457988D01*
X207704585Y-120449311D01*
X207704640Y-120448963D01*
X207798309Y-119912255D01*
X207803107Y-119904695D01*
X207809835Y-119902567D01*
X208190165Y-119902567D01*
X208198438Y-119905994D01*
G37*
%TD.AperFunction*%
%TD*%
%TA.AperFunction,Conductor*%
%TO.N,+3.3V*%
G36*
X185113580Y-83197448D02*
G01*
X185117754Y-83199294D01*
X185119815Y-83200742D01*
X185124321Y-83207040D01*
X185124533Y-83207770D01*
X185125000Y-83211039D01*
X185125000Y-83788296D01*
X185124109Y-83792774D01*
X185123145Y-83795101D01*
X185117973Y-83800875D01*
X185117311Y-83801239D01*
X185114225Y-83802406D01*
X184686405Y-83897986D01*
X184681840Y-83898091D01*
X184679756Y-83897727D01*
X184678625Y-83897530D01*
X184671873Y-83893752D01*
X184590849Y-83802043D01*
X184332383Y-83509489D01*
X184330087Y-83505546D01*
X184329372Y-83503464D01*
X184329629Y-83495184D01*
X184330100Y-83494048D01*
X184332137Y-83490789D01*
X184582184Y-83207765D01*
X184671278Y-83106919D01*
X184674909Y-83104155D01*
X184677841Y-83102722D01*
X184685525Y-83101816D01*
X185113580Y-83197448D01*
G37*
%TD.AperFunction*%
%TD*%
%TA.AperFunction,Conductor*%
%TO.N,+3.3V*%
G36*
X208495722Y-93434737D02*
G01*
X208000000Y-93505278D01*
X207504278Y-93434737D01*
X207700000Y-92504278D01*
X208300000Y-92504278D01*
X208495722Y-93434737D01*
G37*
%TD.AperFunction*%
%TD*%
%TA.AperFunction,Conductor*%
%TO.N,+3.3V*%
G36*
X200983348Y-79063502D02*
G01*
X200991056Y-79068060D01*
X200993283Y-79076733D01*
X200993149Y-79077493D01*
X200801955Y-79986430D01*
X200796899Y-79993821D01*
X200790506Y-79995722D01*
X200209494Y-79995722D01*
X200201221Y-79992295D01*
X200198045Y-79986430D01*
X200006850Y-79077491D01*
X200008500Y-79068692D01*
X200015891Y-79063636D01*
X200016641Y-79063503D01*
X200498356Y-78994956D01*
X200501644Y-78994956D01*
X200983348Y-79063502D01*
G37*
%TD.AperFunction*%
%TD*%
%TA.AperFunction,Conductor*%
%TO.N,+3.3V*%
G36*
X184623362Y-82628427D02*
G01*
X184626630Y-82634777D01*
X184723778Y-83217668D01*
X184721758Y-83226391D01*
X184718882Y-83229221D01*
X184331645Y-83496414D01*
X184322889Y-83498292D01*
X184318355Y-83496414D01*
X183931117Y-83229221D01*
X183926254Y-83221702D01*
X183926221Y-83217673D01*
X184023370Y-82634775D01*
X184028111Y-82627179D01*
X184034911Y-82625000D01*
X184615089Y-82625000D01*
X184623362Y-82628427D01*
G37*
%TD.AperFunction*%
%TD*%
%TA.AperFunction,Conductor*%
%TO.N,+3.3V*%
G36*
X184331644Y-82003584D02*
G01*
X184718882Y-82270779D01*
X184723745Y-82278297D01*
X184723778Y-82282331D01*
X184626630Y-82865223D01*
X184621889Y-82872821D01*
X184615089Y-82875000D01*
X184034911Y-82875000D01*
X184026638Y-82871573D01*
X184023370Y-82865223D01*
X183926221Y-82282328D01*
X183928241Y-82273608D01*
X183931112Y-82270782D01*
X184318355Y-82003584D01*
X184327111Y-82001707D01*
X184331644Y-82003584D01*
G37*
%TD.AperFunction*%
%TD*%
%TA.AperFunction,Conductor*%
%TO.N,+3.3V*%
G36*
X184553919Y-81038235D02*
G01*
X184963349Y-81447665D01*
X184966776Y-81455938D01*
X184964957Y-81462203D01*
X184728463Y-81835221D01*
X184721139Y-81840373D01*
X184718531Y-81840656D01*
X184167852Y-81838233D01*
X184159594Y-81834770D01*
X184158318Y-81833242D01*
X183989251Y-81591683D01*
X183987314Y-81582940D01*
X183990625Y-81576640D01*
X184537440Y-81038169D01*
X184545736Y-81034808D01*
X184553919Y-81038235D01*
G37*
%TD.AperFunction*%
%TD*%
%TA.AperFunction,Conductor*%
%TO.N,+3.3V*%
G36*
X187612685Y-77702680D02*
G01*
X187613317Y-77703123D01*
X188002399Y-77995269D01*
X188004730Y-77997600D01*
X188296876Y-78386682D01*
X188299103Y-78395355D01*
X188294545Y-78403063D01*
X188293913Y-78403506D01*
X187516002Y-78911026D01*
X187507201Y-78912676D01*
X187501336Y-78909500D01*
X187090499Y-78498663D01*
X187087072Y-78490390D01*
X187088971Y-78484001D01*
X187596495Y-77706084D01*
X187603884Y-77701030D01*
X187612685Y-77702680D01*
G37*
%TD.AperFunction*%
%TD*%
%TA.AperFunction,Conductor*%
%TO.N,MCP_INT*%
G36*
X170287981Y-109943084D02*
G01*
X170556915Y-110212018D01*
X170560342Y-110220291D01*
X170558214Y-110227019D01*
X170244938Y-110672763D01*
X170237378Y-110677561D01*
X170228638Y-110675607D01*
X170228353Y-110675400D01*
X170224831Y-110672763D01*
X169998819Y-110503526D01*
X169996473Y-110501180D01*
X169824598Y-110271645D01*
X169822383Y-110262969D01*
X169826951Y-110255268D01*
X169827217Y-110255074D01*
X170272981Y-109941784D01*
X170281720Y-109939831D01*
X170287981Y-109943084D01*
G37*
%TD.AperFunction*%
%TD*%
%TA.AperFunction,Conductor*%
%TO.N,MCP_INT*%
G36*
X206727019Y-96441785D02*
G01*
X207172763Y-96755061D01*
X207177561Y-96762621D01*
X207175607Y-96771361D01*
X207175400Y-96771646D01*
X207003529Y-97001177D01*
X207001177Y-97003529D01*
X206771646Y-97175400D01*
X206762969Y-97177616D01*
X206755268Y-97173048D01*
X206755061Y-97172763D01*
X206441785Y-96727019D01*
X206439831Y-96718279D01*
X206443082Y-96712020D01*
X206712019Y-96443083D01*
X206720291Y-96439657D01*
X206727019Y-96441785D01*
G37*
%TD.AperFunction*%
%TD*%
%TA.AperFunction,Conductor*%
%TO.N,MCP_INT*%
G36*
X194051035Y-95004639D02*
G01*
X194587745Y-95098309D01*
X194595305Y-95103107D01*
X194597433Y-95109835D01*
X194597433Y-95490164D01*
X194594006Y-95498437D01*
X194587745Y-95501690D01*
X194051036Y-95595359D01*
X194042296Y-95593405D01*
X194037498Y-95585845D01*
X194037443Y-95585497D01*
X194024937Y-95498437D01*
X193996672Y-95301663D01*
X193996672Y-95298336D01*
X194023749Y-95109835D01*
X194037443Y-95014500D01*
X194042011Y-95006801D01*
X194050688Y-95004585D01*
X194051035Y-95004639D01*
G37*
%TD.AperFunction*%
%TD*%
%TA.AperFunction,Conductor*%
%TO.N,MCP_INT*%
G36*
X188271361Y-101824392D02*
G01*
X188271629Y-101824587D01*
X188501180Y-101996473D01*
X188503526Y-101998819D01*
X188675400Y-102228353D01*
X188677616Y-102237030D01*
X188673048Y-102244731D01*
X188672763Y-102244938D01*
X188227019Y-102558214D01*
X188218279Y-102560168D01*
X188212018Y-102556915D01*
X187943084Y-102287981D01*
X187939657Y-102279708D01*
X187941784Y-102272981D01*
X188255061Y-101827235D01*
X188262621Y-101822438D01*
X188271361Y-101824392D01*
G37*
%TD.AperFunction*%
%TD*%
%TA.AperFunction,Conductor*%
%TO.N,CH1_TXD*%
G36*
X180285497Y-80037443D02*
G01*
X180293198Y-80042011D01*
X180295414Y-80050688D01*
X180295359Y-80051036D01*
X180201691Y-80587745D01*
X180196893Y-80595305D01*
X180190165Y-80597433D01*
X179809835Y-80597433D01*
X179801562Y-80594006D01*
X179798309Y-80587745D01*
X179704640Y-80051036D01*
X179706594Y-80042296D01*
X179714154Y-80037498D01*
X179714461Y-80037449D01*
X179998336Y-79996672D01*
X180001664Y-79996672D01*
X180285497Y-80037443D01*
G37*
%TD.AperFunction*%
%TD*%
%TA.AperFunction,Conductor*%
%TO.N,CH1_TXD*%
G36*
X180198438Y-82405994D02*
G01*
X180201691Y-82412255D01*
X180295359Y-82948963D01*
X180293405Y-82957703D01*
X180285845Y-82962501D01*
X180285497Y-82962556D01*
X180001664Y-83003327D01*
X179998336Y-83003327D01*
X179714502Y-82962556D01*
X179706801Y-82957988D01*
X179704585Y-82949311D01*
X179704640Y-82948963D01*
X179798309Y-82412255D01*
X179803107Y-82404695D01*
X179809835Y-82402567D01*
X180190165Y-82402567D01*
X180198438Y-82405994D01*
G37*
%TD.AperFunction*%
%TD*%
%TA.AperFunction,Conductor*%
%TO.N,Net-(U1-EN)*%
G36*
X166271361Y-86324392D02*
G01*
X166271629Y-86324587D01*
X166501180Y-86496473D01*
X166503526Y-86498819D01*
X166675400Y-86728353D01*
X166677616Y-86737030D01*
X166673048Y-86744731D01*
X166672763Y-86744938D01*
X166227019Y-87058214D01*
X166218279Y-87060168D01*
X166212018Y-87056915D01*
X165943084Y-86787981D01*
X165939657Y-86779708D01*
X165941784Y-86772981D01*
X166255061Y-86327235D01*
X166262621Y-86322438D01*
X166271361Y-86324392D01*
G37*
%TD.AperFunction*%
%TD*%
%TA.AperFunction,Conductor*%
%TO.N,Net-(U1-EN)*%
G36*
X166192313Y-94403456D02*
G01*
X166194497Y-94404361D01*
X166200401Y-94409773D01*
X166200855Y-94410646D01*
X166202001Y-94414032D01*
X166294958Y-94946670D01*
X166294851Y-94951230D01*
X166294463Y-94952969D01*
X166289317Y-94960297D01*
X166289314Y-94960299D01*
X166287956Y-94961161D01*
X166283350Y-94962864D01*
X166002492Y-95003208D01*
X166000828Y-95003327D01*
X165999172Y-95003327D01*
X165997508Y-95003208D01*
X165716805Y-94962886D01*
X165712504Y-94961370D01*
X165710972Y-94960462D01*
X165705603Y-94953297D01*
X165705201Y-94951726D01*
X165705013Y-94946824D01*
X165797909Y-94414545D01*
X165799555Y-94410291D01*
X165800823Y-94408292D01*
X165807174Y-94403408D01*
X165808115Y-94403110D01*
X165811640Y-94402567D01*
X166187838Y-94402567D01*
X166192313Y-94403456D01*
G37*
%TD.AperFunction*%
%TD*%
%TA.AperFunction,Conductor*%
%TO.N,D-*%
G36*
X176383714Y-121227030D02*
G01*
X176389558Y-121233052D01*
X176501604Y-121495405D01*
X176501702Y-121504359D01*
X176501604Y-121504595D01*
X176389558Y-121766947D01*
X176383157Y-121773210D01*
X176374766Y-121773335D01*
X175910235Y-121602814D01*
X175903650Y-121596747D01*
X175902567Y-121591831D01*
X175902567Y-121408168D01*
X175905994Y-121399895D01*
X175910234Y-121397185D01*
X176374766Y-121226664D01*
X176383714Y-121227030D01*
G37*
%TD.AperFunction*%
%TD*%
%TA.AperFunction,Conductor*%
%TO.N,D-*%
G36*
X176593980Y-126403456D02*
G01*
X176596704Y-126404585D01*
X176602092Y-126409103D01*
X176602136Y-126409172D01*
X176603254Y-126411431D01*
X176772532Y-126872580D01*
X176773239Y-126877090D01*
X176773159Y-126879048D01*
X176769620Y-126886963D01*
X176768506Y-126888044D01*
X176764952Y-126890410D01*
X176506733Y-127000690D01*
X176502267Y-127001629D01*
X176498096Y-127001675D01*
X176493373Y-127000736D01*
X176389588Y-126956411D01*
X176235193Y-126890472D01*
X176231426Y-126887895D01*
X176230056Y-126886495D01*
X176226719Y-126878485D01*
X176226698Y-126877090D01*
X176226696Y-126876930D01*
X176227412Y-126872727D01*
X176227466Y-126872580D01*
X176396384Y-126412416D01*
X176398758Y-126408527D01*
X176400760Y-126406354D01*
X176406868Y-126402853D01*
X176406953Y-126402834D01*
X176409441Y-126402567D01*
X176589505Y-126402567D01*
X176593980Y-126403456D01*
G37*
%TD.AperFunction*%
%TD*%
%TA.AperFunction,Conductor*%
%TO.N,D-*%
G36*
X176504557Y-121498379D02*
G01*
X176766947Y-121610441D01*
X176773210Y-121616842D01*
X176773335Y-121625233D01*
X176602815Y-122089765D01*
X176596748Y-122096350D01*
X176591832Y-122097433D01*
X176408168Y-122097433D01*
X176399895Y-122094006D01*
X176397185Y-122089765D01*
X176226664Y-121625233D01*
X176227030Y-121616285D01*
X176233050Y-121610442D01*
X176495406Y-121498394D01*
X176504359Y-121498297D01*
X176504557Y-121498379D01*
G37*
%TD.AperFunction*%
%TD*%
%TA.AperFunction,Conductor*%
%TO.N,D-*%
G36*
X174275809Y-120889431D02*
G01*
X174281830Y-120895274D01*
X174460794Y-121281831D01*
X174489727Y-121344324D01*
X174490093Y-121353272D01*
X174487383Y-121357513D01*
X174357513Y-121487383D01*
X174349240Y-121490810D01*
X174344325Y-121489727D01*
X173895274Y-121281830D01*
X173889208Y-121275246D01*
X173889332Y-121266856D01*
X173995616Y-121002114D01*
X174001879Y-120995714D01*
X174002084Y-120995628D01*
X174266856Y-120889333D01*
X174275809Y-120889431D01*
G37*
%TD.AperFunction*%
%TD*%
%TA.AperFunction,Conductor*%
%TO.N,BTN_STOP*%
G36*
X193957703Y-116206594D02*
G01*
X193962501Y-116214154D01*
X193962556Y-116214502D01*
X194003327Y-116498336D01*
X194003327Y-116501664D01*
X193962556Y-116785497D01*
X193957988Y-116793198D01*
X193949311Y-116795414D01*
X193948963Y-116795359D01*
X193412255Y-116701690D01*
X193404695Y-116696892D01*
X193402567Y-116690164D01*
X193402567Y-116309835D01*
X193405994Y-116301562D01*
X193412254Y-116298309D01*
X193948963Y-116204640D01*
X193957703Y-116206594D01*
G37*
%TD.AperFunction*%
%TD*%
%TA.AperFunction,Conductor*%
%TO.N,BTN_STOP*%
G36*
X182085454Y-116297909D02*
G01*
X182089710Y-116299556D01*
X182091705Y-116300822D01*
X182096587Y-116307161D01*
X182096885Y-116308104D01*
X182097433Y-116311639D01*
X182097433Y-116687836D01*
X182096542Y-116692315D01*
X182095637Y-116694499D01*
X182090226Y-116700400D01*
X182089353Y-116700854D01*
X182085967Y-116702000D01*
X181553328Y-116794958D01*
X181548768Y-116794851D01*
X181547029Y-116794463D01*
X181539701Y-116789317D01*
X181538835Y-116787953D01*
X181537134Y-116783352D01*
X181524937Y-116698437D01*
X181496791Y-116502491D01*
X181496672Y-116500827D01*
X181496672Y-116499171D01*
X181496791Y-116497507D01*
X181523749Y-116309835D01*
X181537112Y-116216803D01*
X181538628Y-116212501D01*
X181539538Y-116210967D01*
X181546700Y-116205603D01*
X181548268Y-116205202D01*
X181553172Y-116205012D01*
X182085454Y-116297909D01*
G37*
%TD.AperFunction*%
%TD*%
%TA.AperFunction,Conductor*%
%TO.N,Net-(U5-OSC2)*%
G36*
X192642313Y-82997219D02*
G01*
X192648941Y-83003239D01*
X192650059Y-83008230D01*
X192650059Y-83391769D01*
X192646632Y-83400042D01*
X192642312Y-83402781D01*
X191731396Y-83729807D01*
X191722452Y-83729377D01*
X191716676Y-83723375D01*
X191496007Y-83204580D01*
X191495923Y-83195625D01*
X191496007Y-83195420D01*
X191580312Y-82997218D01*
X191716677Y-82676622D01*
X191723068Y-82670353D01*
X191731395Y-82670192D01*
X192642313Y-82997219D01*
G37*
%TD.AperFunction*%
%TD*%
%TA.AperFunction,Conductor*%
%TO.N,Net-(U5-OSC2)*%
G36*
X196727019Y-83441785D02*
G01*
X197172763Y-83755061D01*
X197177561Y-83762621D01*
X197175607Y-83771361D01*
X197175400Y-83771646D01*
X197003529Y-84001177D01*
X197001177Y-84003529D01*
X196771646Y-84175400D01*
X196762969Y-84177616D01*
X196755268Y-84173048D01*
X196755061Y-84172763D01*
X196441785Y-83727019D01*
X196439831Y-83718279D01*
X196443082Y-83712020D01*
X196712019Y-83443083D01*
X196720291Y-83439657D01*
X196727019Y-83441785D01*
G37*
%TD.AperFunction*%
%TD*%
%TA.AperFunction,Conductor*%
%TO.N,CH2_TXD*%
G36*
X202551035Y-78704639D02*
G01*
X203087745Y-78798309D01*
X203095305Y-78803107D01*
X203097433Y-78809835D01*
X203097433Y-79190164D01*
X203094006Y-79198437D01*
X203087745Y-79201690D01*
X202551036Y-79295359D01*
X202542296Y-79293405D01*
X202537498Y-79285845D01*
X202537443Y-79285497D01*
X202524937Y-79198437D01*
X202496672Y-79001663D01*
X202496672Y-78998336D01*
X202523749Y-78809835D01*
X202537443Y-78714500D01*
X202542011Y-78706801D01*
X202550688Y-78704585D01*
X202551035Y-78704639D01*
G37*
%TD.AperFunction*%
%TD*%
%TA.AperFunction,Conductor*%
%TO.N,CH2_TXD*%
G36*
X204727019Y-78941785D02*
G01*
X205172763Y-79255061D01*
X205177561Y-79262621D01*
X205175607Y-79271361D01*
X205175400Y-79271646D01*
X205003529Y-79501177D01*
X205001177Y-79503529D01*
X204771646Y-79675400D01*
X204762969Y-79677616D01*
X204755268Y-79673048D01*
X204755061Y-79672763D01*
X204441785Y-79227019D01*
X204439831Y-79218279D01*
X204443082Y-79212020D01*
X204712019Y-78943083D01*
X204720291Y-78939657D01*
X204727019Y-78941785D01*
G37*
%TD.AperFunction*%
%TD*%
%TA.AperFunction,Conductor*%
%TO.N,SD_MISO*%
G36*
X172442854Y-92800900D02*
G01*
X172685941Y-93043987D01*
X172685942Y-93043988D01*
X172685942Y-93043986D01*
X172686426Y-93043891D01*
X172691998Y-93038320D01*
X172700953Y-93038319D01*
X172707285Y-93044651D01*
X172707912Y-93046657D01*
X172713590Y-93072928D01*
X172713384Y-93072972D01*
X172713639Y-93075349D01*
X172714093Y-93075252D01*
X172794781Y-93448573D01*
X172793179Y-93457384D01*
X172785817Y-93462481D01*
X172785009Y-93462626D01*
X172501664Y-93503327D01*
X172498336Y-93503327D01*
X172214990Y-93462626D01*
X172207289Y-93458058D01*
X172205073Y-93449381D01*
X172205214Y-93448594D01*
X172299780Y-93011066D01*
X172300400Y-93009082D01*
X172357689Y-92870777D01*
X172360221Y-92866986D01*
X172426308Y-92800900D01*
X172434581Y-92797473D01*
X172442854Y-92800900D01*
G37*
%TD.AperFunction*%
%TD*%
%TA.AperFunction,Conductor*%
%TO.N,SD_MISO*%
G36*
X205725243Y-98441223D02*
G01*
X205725299Y-98441241D01*
X205728495Y-98442823D01*
X206170860Y-98753724D01*
X206174009Y-98757025D01*
X206174962Y-98758526D01*
X206176504Y-98767347D01*
X206176503Y-98767352D01*
X206176151Y-98768925D01*
X206174098Y-98773383D01*
X206004029Y-99000508D01*
X206002937Y-99001768D01*
X206001768Y-99002937D01*
X206000508Y-99004029D01*
X205773509Y-99174004D01*
X205769392Y-99175975D01*
X205767666Y-99176416D01*
X205758807Y-99175146D01*
X205757421Y-99174325D01*
X205753814Y-99170989D01*
X205443122Y-98728922D01*
X205441277Y-98724748D01*
X205440761Y-98722440D01*
X205441795Y-98714496D01*
X205442253Y-98713614D01*
X205444356Y-98710745D01*
X205710375Y-98444726D01*
X205714165Y-98442193D01*
X205716355Y-98441286D01*
X205724360Y-98440944D01*
X205725243Y-98441223D01*
G37*
%TD.AperFunction*%
%TD*%
%TA.AperFunction,Conductor*%
%TO.N,BOOT*%
G36*
X175285497Y-85037443D02*
G01*
X175293198Y-85042011D01*
X175295414Y-85050688D01*
X175295359Y-85051036D01*
X175201691Y-85587745D01*
X175196893Y-85595305D01*
X175190165Y-85597433D01*
X174809835Y-85597433D01*
X174801562Y-85594006D01*
X174798309Y-85587745D01*
X174704640Y-85051036D01*
X174706594Y-85042296D01*
X174714154Y-85037498D01*
X174714461Y-85037449D01*
X174998336Y-84996672D01*
X175001664Y-84996672D01*
X175285497Y-85037443D01*
G37*
%TD.AperFunction*%
%TD*%
%TA.AperFunction,Conductor*%
%TO.N,BOOT*%
G36*
X181227019Y-90441785D02*
G01*
X181672763Y-90755061D01*
X181677561Y-90762621D01*
X181675607Y-90771361D01*
X181675400Y-90771646D01*
X181503529Y-91001177D01*
X181501177Y-91003529D01*
X181271646Y-91175400D01*
X181262969Y-91177616D01*
X181255268Y-91173048D01*
X181255061Y-91172763D01*
X180941785Y-90727019D01*
X180939831Y-90718279D01*
X180943082Y-90712020D01*
X181212019Y-90443083D01*
X181220291Y-90439657D01*
X181227019Y-90441785D01*
G37*
%TD.AperFunction*%
%TD*%
%TA.AperFunction,Conductor*%
%TO.N,SD_MOSI*%
G36*
X203725243Y-98441223D02*
G01*
X203725299Y-98441241D01*
X203728495Y-98442823D01*
X204170860Y-98753724D01*
X204174009Y-98757025D01*
X204174962Y-98758526D01*
X204176504Y-98767347D01*
X204176503Y-98767352D01*
X204176151Y-98768925D01*
X204174098Y-98773383D01*
X204004029Y-99000508D01*
X204002937Y-99001768D01*
X204001768Y-99002937D01*
X204000508Y-99004029D01*
X203773509Y-99174004D01*
X203769392Y-99175975D01*
X203767666Y-99176416D01*
X203758807Y-99175146D01*
X203757421Y-99174325D01*
X203753814Y-99170989D01*
X203443122Y-98728922D01*
X203441277Y-98724748D01*
X203440761Y-98722440D01*
X203441795Y-98714496D01*
X203442253Y-98713614D01*
X203444356Y-98710745D01*
X203710375Y-98444726D01*
X203714165Y-98442193D01*
X203716355Y-98441286D01*
X203724360Y-98440944D01*
X203725243Y-98441223D01*
G37*
%TD.AperFunction*%
%TD*%
%TA.AperFunction,Conductor*%
%TO.N,SD_MOSI*%
G36*
X178744731Y-94826951D02*
G01*
X178744938Y-94827236D01*
X179058214Y-95272980D01*
X179060168Y-95281720D01*
X179056915Y-95287981D01*
X178787981Y-95556915D01*
X178779708Y-95560342D01*
X178772980Y-95558214D01*
X178327236Y-95244938D01*
X178322438Y-95237378D01*
X178324392Y-95228638D01*
X178324563Y-95228402D01*
X178496476Y-94998815D01*
X178498815Y-94996476D01*
X178728355Y-94824598D01*
X178737030Y-94822383D01*
X178744731Y-94826951D01*
G37*
%TD.AperFunction*%
%TD*%
%TA.AperFunction,Conductor*%
%TO.N,SD_SCK*%
G36*
X204727019Y-98441785D02*
G01*
X205172763Y-98755061D01*
X205177561Y-98762621D01*
X205175607Y-98771361D01*
X205175400Y-98771646D01*
X205003529Y-99001177D01*
X205001177Y-99003529D01*
X204771646Y-99175400D01*
X204762969Y-99177616D01*
X204755268Y-99173048D01*
X204755061Y-99172763D01*
X204441785Y-98727019D01*
X204439831Y-98718279D01*
X204443082Y-98712020D01*
X204712019Y-98443083D01*
X204720291Y-98439657D01*
X204727019Y-98441785D01*
G37*
%TD.AperFunction*%
%TD*%
%TA.AperFunction,Conductor*%
%TO.N,SD_SCK*%
G36*
X173785501Y-92441795D02*
G01*
X173786379Y-92442252D01*
X173789257Y-92444360D01*
X174055269Y-92710372D01*
X174057805Y-92714167D01*
X174058528Y-92715913D01*
X174058711Y-92716354D01*
X174059054Y-92724361D01*
X174058757Y-92725299D01*
X174057175Y-92728495D01*
X173746274Y-93170860D01*
X173742973Y-93174009D01*
X173741472Y-93174962D01*
X173732651Y-93176504D01*
X173732646Y-93176503D01*
X173731073Y-93176151D01*
X173726617Y-93174100D01*
X173724832Y-93172764D01*
X173724830Y-93172762D01*
X173499487Y-93004026D01*
X173498227Y-93002934D01*
X173497064Y-93001771D01*
X173495972Y-93000511D01*
X173325993Y-92773508D01*
X173324023Y-92769393D01*
X173323582Y-92767666D01*
X173324851Y-92758807D01*
X173325681Y-92757408D01*
X173329010Y-92753813D01*
X173771079Y-92443120D01*
X173775249Y-92441277D01*
X173777561Y-92440760D01*
X173785501Y-92441795D01*
G37*
%TD.AperFunction*%
%TD*%
%TA.AperFunction,Conductor*%
%TO.N,Net-(J4-DAT1)*%
G36*
X197077475Y-109006846D02*
G01*
X197986430Y-109198045D01*
X197993821Y-109203101D01*
X197995722Y-109209494D01*
X197995722Y-109790505D01*
X197992295Y-109798778D01*
X197986430Y-109801954D01*
X197077493Y-109993149D01*
X197068692Y-109991499D01*
X197063636Y-109984108D01*
X197063502Y-109983348D01*
X197037238Y-109798778D01*
X196994956Y-109501644D01*
X196994956Y-109498355D01*
X197063502Y-109016650D01*
X197068060Y-109008943D01*
X197076733Y-109006716D01*
X197077475Y-109006846D01*
G37*
%TD.AperFunction*%
%TD*%
%TA.AperFunction,Conductor*%
%TO.N,Net-(J4-DAT1)*%
G36*
X199015999Y-109588972D02*
G01*
X199793913Y-110096493D01*
X199798969Y-110103884D01*
X199797319Y-110112685D01*
X199796876Y-110113317D01*
X199504730Y-110502399D01*
X199502399Y-110504730D01*
X199113317Y-110796876D01*
X199104644Y-110799103D01*
X199096936Y-110794545D01*
X199096500Y-110793924D01*
X198588972Y-110015999D01*
X198587323Y-110007201D01*
X198590497Y-110001338D01*
X199001337Y-109590498D01*
X199009609Y-109587072D01*
X199015999Y-109588972D01*
G37*
%TD.AperFunction*%
%TD*%
%TA.AperFunction,Conductor*%
%TO.N,Net-(J1-CC2)*%
G36*
X178275809Y-127389431D02*
G01*
X178281830Y-127395274D01*
X178460794Y-127781831D01*
X178489727Y-127844324D01*
X178490093Y-127853272D01*
X178487383Y-127857513D01*
X178357513Y-127987383D01*
X178349240Y-127990810D01*
X178344325Y-127989727D01*
X177895274Y-127781830D01*
X177889208Y-127775246D01*
X177889332Y-127766856D01*
X177995616Y-127502114D01*
X178001879Y-127495714D01*
X178002084Y-127495628D01*
X178266856Y-127389333D01*
X178275809Y-127389431D01*
G37*
%TD.AperFunction*%
%TD*%
%TA.AperFunction,Conductor*%
%TO.N,Net-(J1-CC2)*%
G36*
X181883714Y-127727030D02*
G01*
X181889558Y-127733052D01*
X182001604Y-127995405D01*
X182001702Y-128004359D01*
X182001604Y-128004595D01*
X181889558Y-128266947D01*
X181883157Y-128273210D01*
X181874766Y-128273335D01*
X181410235Y-128102814D01*
X181403650Y-128096747D01*
X181402567Y-128091831D01*
X181402567Y-127908168D01*
X181405994Y-127899895D01*
X181410234Y-127897185D01*
X181874766Y-127726664D01*
X181883714Y-127727030D01*
G37*
%TD.AperFunction*%
%TD*%
%TA.AperFunction,Conductor*%
%TO.N,UART_RXD*%
G36*
X169666650Y-111895434D02*
G01*
X169668973Y-111896226D01*
X169900289Y-112003318D01*
X170114759Y-112102611D01*
X170118448Y-112105299D01*
X170119775Y-112106739D01*
X170122870Y-112114841D01*
X170122847Y-112116393D01*
X170122006Y-112120579D01*
X170017399Y-112381144D01*
X170014905Y-112384967D01*
X170011985Y-112387952D01*
X170007980Y-112390628D01*
X169747451Y-112495220D01*
X169742966Y-112496061D01*
X169741010Y-112496040D01*
X169732989Y-112492738D01*
X169731872Y-112491654D01*
X169729406Y-112488176D01*
X169523398Y-112043204D01*
X169522325Y-112038766D01*
X169522205Y-112035824D01*
X169524006Y-112029094D01*
X169524049Y-112029026D01*
X169525661Y-112027011D01*
X169652992Y-111899679D01*
X169656782Y-111897146D01*
X169659508Y-111896017D01*
X169666567Y-111895416D01*
X169666650Y-111895434D01*
G37*
%TD.AperFunction*%
%TD*%
%TA.AperFunction,Conductor*%
%TO.N,UART_RXD*%
G36*
X168006625Y-93499262D02*
G01*
X168264805Y-93609526D01*
X168268572Y-93612103D01*
X168269942Y-93613503D01*
X168273279Y-93621513D01*
X168273302Y-93623066D01*
X168272586Y-93627271D01*
X168103617Y-94087579D01*
X168101238Y-94091476D01*
X168099240Y-94093644D01*
X168093299Y-94097108D01*
X168093222Y-94097126D01*
X168090559Y-94097433D01*
X167910495Y-94097433D01*
X167906017Y-94096542D01*
X167903294Y-94095414D01*
X167897908Y-94090897D01*
X167897860Y-94090822D01*
X167896747Y-94088572D01*
X167727465Y-93627417D01*
X167726759Y-93622908D01*
X167726839Y-93620951D01*
X167730380Y-93613032D01*
X167731494Y-93611951D01*
X167735047Y-93609589D01*
X167735195Y-93609526D01*
X167993270Y-93499306D01*
X167997731Y-93498368D01*
X168001906Y-93498323D01*
X168006625Y-93499262D01*
G37*
%TD.AperFunction*%
%TD*%
%TA.AperFunction,Conductor*%
%TO.N,UART_TXD*%
G36*
X167004557Y-93498379D02*
G01*
X167266947Y-93610441D01*
X167273210Y-93616842D01*
X167273335Y-93625233D01*
X167102815Y-94089765D01*
X167096748Y-94096350D01*
X167091832Y-94097433D01*
X166908168Y-94097433D01*
X166899895Y-94094006D01*
X166897185Y-94089765D01*
X166726664Y-93625233D01*
X166727030Y-93616285D01*
X166733050Y-93610442D01*
X166995406Y-93498394D01*
X167004359Y-93498297D01*
X167004557Y-93498379D01*
G37*
%TD.AperFunction*%
%TD*%
%TA.AperFunction,Conductor*%
%TO.N,UART_TXD*%
G36*
X169155670Y-112510271D02*
G01*
X169604725Y-112718169D01*
X169610791Y-112724753D01*
X169610666Y-112733144D01*
X169504383Y-112997884D01*
X169498120Y-113004285D01*
X169497884Y-113004383D01*
X169233144Y-113110666D01*
X169224190Y-113110568D01*
X169218169Y-113104725D01*
X169010271Y-112655672D01*
X169009906Y-112646727D01*
X169012614Y-112642488D01*
X169142487Y-112512615D01*
X169150759Y-112509189D01*
X169155670Y-112510271D01*
G37*
%TD.AperFunction*%
%TD*%
%TA.AperFunction,Conductor*%
%TO.N,Net-(J1-CC1)*%
G36*
X172089765Y-127897185D02*
G01*
X172096350Y-127903252D01*
X172097433Y-127908168D01*
X172097433Y-128091831D01*
X172094006Y-128100104D01*
X172089765Y-128102814D01*
X171625233Y-128273335D01*
X171616285Y-128272969D01*
X171610441Y-128266947D01*
X171539185Y-128100104D01*
X171498394Y-128004593D01*
X171498297Y-127995641D01*
X171498395Y-127995405D01*
X171610442Y-127733050D01*
X171616842Y-127726789D01*
X171625233Y-127726664D01*
X172089765Y-127897185D01*
G37*
%TD.AperFunction*%
%TD*%
%TA.AperFunction,Conductor*%
%TO.N,Net-(J1-CC1)*%
G36*
X175233143Y-127389332D02*
G01*
X175497884Y-127495616D01*
X175504285Y-127501879D01*
X175504383Y-127502115D01*
X175610666Y-127766855D01*
X175610568Y-127775809D01*
X175604724Y-127781831D01*
X175155675Y-127989727D01*
X175146727Y-127990093D01*
X175142486Y-127987383D01*
X175012616Y-127857513D01*
X175009189Y-127849240D01*
X175010270Y-127844329D01*
X175218170Y-127395272D01*
X175224753Y-127389208D01*
X175233143Y-127389332D01*
G37*
%TD.AperFunction*%
%TD*%
%TA.AperFunction,Conductor*%
%TO.N,MCP_MISO*%
G36*
X172085454Y-110297909D02*
G01*
X172089710Y-110299556D01*
X172091705Y-110300822D01*
X172096587Y-110307161D01*
X172096885Y-110308104D01*
X172097433Y-110311639D01*
X172097433Y-110687836D01*
X172096542Y-110692315D01*
X172095637Y-110694499D01*
X172090226Y-110700400D01*
X172089353Y-110700854D01*
X172085967Y-110702000D01*
X171553328Y-110794958D01*
X171548768Y-110794851D01*
X171547029Y-110794463D01*
X171539701Y-110789317D01*
X171538835Y-110787953D01*
X171537134Y-110783352D01*
X171524937Y-110698437D01*
X171496791Y-110502491D01*
X171496672Y-110500827D01*
X171496672Y-110499171D01*
X171496791Y-110497507D01*
X171523749Y-110309835D01*
X171537112Y-110216803D01*
X171538628Y-110212501D01*
X171539538Y-110210967D01*
X171546700Y-110205603D01*
X171548268Y-110205202D01*
X171553172Y-110205012D01*
X172085454Y-110297909D01*
G37*
%TD.AperFunction*%
%TD*%
%TA.AperFunction,Conductor*%
%TO.N,MCP_MISO*%
G36*
X188271361Y-105324392D02*
G01*
X188271629Y-105324587D01*
X188501180Y-105496473D01*
X188503526Y-105498819D01*
X188675400Y-105728353D01*
X188677616Y-105737030D01*
X188673048Y-105744731D01*
X188672763Y-105744938D01*
X188227019Y-106058214D01*
X188218279Y-106060168D01*
X188212018Y-106056915D01*
X187943084Y-105787981D01*
X187939657Y-105779708D01*
X187941784Y-105772981D01*
X188255061Y-105327235D01*
X188262621Y-105322438D01*
X188271361Y-105324392D01*
G37*
%TD.AperFunction*%
%TD*%
%TA.AperFunction,Conductor*%
%TO.N,MCP_SCK*%
G36*
X188268923Y-102823847D02*
G01*
X188273379Y-102825897D01*
X188500511Y-102995972D01*
X188501771Y-102997064D01*
X188502934Y-102998227D01*
X188504026Y-102999487D01*
X188674004Y-103226489D01*
X188675975Y-103230606D01*
X188676416Y-103232332D01*
X188675146Y-103241191D01*
X188674325Y-103242577D01*
X188670987Y-103246186D01*
X188228923Y-103556875D01*
X188224749Y-103558721D01*
X188222442Y-103559237D01*
X188214495Y-103558202D01*
X188213621Y-103557748D01*
X188210741Y-103555638D01*
X187944729Y-103289626D01*
X187942193Y-103285831D01*
X187941287Y-103283645D01*
X187940941Y-103275648D01*
X187941238Y-103274707D01*
X187942820Y-103271506D01*
X188253724Y-102829136D01*
X188257022Y-102825990D01*
X188258528Y-102825034D01*
X188267345Y-102823494D01*
X188268923Y-102823847D01*
G37*
%TD.AperFunction*%
%TD*%
%TA.AperFunction,Conductor*%
%TO.N,MCP_SCK*%
G36*
X178551035Y-109504639D02*
G01*
X179087745Y-109598309D01*
X179095305Y-109603107D01*
X179097433Y-109609835D01*
X179097433Y-109990164D01*
X179094006Y-109998437D01*
X179087745Y-110001690D01*
X178551036Y-110095359D01*
X178542296Y-110093405D01*
X178537498Y-110085845D01*
X178537443Y-110085497D01*
X178524937Y-109998437D01*
X178496672Y-109801663D01*
X178496672Y-109798336D01*
X178523749Y-109609835D01*
X178537443Y-109514500D01*
X178542011Y-109506801D01*
X178550688Y-109504585D01*
X178551035Y-109504639D01*
G37*
%TD.AperFunction*%
%TD*%
M02*
