M48
; DRILL file KiCad 10.0.5 date 2026-08-16T21:16:03
; FORMAT={-:-/ absolute / metric / decimal}
; #@! TF.CreationDate,2026-08-16T21:16:03+09:00
; #@! TF.GenerationSoftware,Kicad,Pcbnew,10.0.5
; #@! TF.FileFunction,Plated,1,2,PTH
FMAT,2
METRIC
; #@! TA.AperFunction,Plated,PTH,ComponentDrill
T1C0.200
; #@! TA.AperFunction,Plated,PTH,ViaDrill
T2C0.300
; #@! TA.AperFunction,Plated,PTH,ViaDrill
T3C0.500
; #@! TA.AperFunction,Plated,PTH,ComponentDrill
T4C0.600
; #@! TA.AperFunction,Plated,PTH,ComponentDrill
T5C0.630
; #@! TA.AperFunction,Plated,PTH,ComponentDrill
T6C0.950
; #@! TA.AperFunction,Plated,PTH,ComponentDrill
T7C1.075
%
G90
G05
T1
X169.56Y-100.55
X169.56Y-101.95
X170.26Y-99.85
X170.26Y-101.25
X170.26Y-102.65
X170.96Y-100.55
X170.96Y-101.95
X171.66Y-99.85
X171.66Y-101.25
X171.66Y-102.65
X172.36Y-100.55
X172.36Y-101.95
T2
X166.0Y-95.0
X166.5Y-86.5
X167.0Y-93.5
X168.0Y-93.5
X169.5Y-113.0
X170.0Y-110.5
X170.012Y-112.385
X171.5Y-110.5
X171.5Y-128.0
X172.5Y-93.5
X173.5Y-93.0
X174.0Y-121.0
X175.0Y-85.0
X175.0Y-93.0
X175.5Y-127.5
X176.5Y-121.5
X176.5Y-127.0
X177.0Y-88.0
X177.5Y-89.0
X178.0Y-127.5
X178.5Y-95.0
X178.5Y-109.8
X180.0Y-80.0
X180.0Y-83.0
X181.5Y-91.0
X181.5Y-116.5
X181.5Y-117.5
X182.0Y-128.0
X188.5Y-102.0
X188.5Y-103.0
X188.5Y-105.5
X194.0Y-95.3
X194.0Y-116.5
X197.0Y-84.0
X202.5Y-79.0
X203.0Y-99.0
X204.0Y-99.0
X205.0Y-79.5
X205.0Y-99.0
X206.0Y-99.0
X207.0Y-97.0
X208.0Y-120.5
T3
X165.0Y-115.0
X165.5Y-73.0
X165.5Y-76.0
X166.5Y-112.5
X166.5Y-115.0
X168.0Y-115.0
X169.0Y-73.0
X169.0Y-76.0
X169.5Y-115.0
X175.5Y-100.5
X175.5Y-102.0
X177.0Y-100.5
X177.0Y-102.0
X178.5Y-100.5
X178.5Y-102.0
X181.5Y-112.0
X183.0Y-100.5
X183.0Y-102.0
X183.5Y-113.5
X183.5Y-115.0
X184.5Y-100.5
X184.5Y-102.0
X184.5Y-125.0
X185.0Y-113.5
X185.0Y-115.0
X186.0Y-100.5
X186.0Y-102.0
X186.0Y-123.5
X187.5Y-123.5
X188.0Y-78.0
X189.5Y-118.5
X190.5Y-77.0
X190.5Y-78.5
X190.5Y-93.5
X191.0Y-86.5
X192.0Y-110.5
X192.0Y-112.0
X192.0Y-113.5
X192.5Y-77.0
X192.5Y-78.5
X192.5Y-93.5
X194.5Y-93.5
X197.0Y-109.5
X199.5Y-100.5
X199.5Y-107.225
X199.5Y-110.5
X200.5Y-79.0
X206.5Y-93.5
X206.5Y-95.0
X208.0Y-93.5
X208.0Y-95.0
X210.0Y-88.5
X213.0Y-72.0
X213.0Y-74.5
X215.5Y-72.0
X215.5Y-74.5
T5
X191.5Y-83.2
X191.5Y-88.0
T6
X182.0Y-51.0
X184.5Y-51.0
X201.0Y-51.0
X203.5Y-51.0
T7
X177.87Y-64.94
X177.87Y-67.48
X177.87Y-70.02
X177.87Y-72.56
X196.87Y-65.0
X196.87Y-67.54
X196.87Y-70.08
X196.87Y-72.62
T4
X172.36Y-125.27G85X172.36Y-126.37
G05
X172.36Y-129.6G85X172.36Y-130.4
G05
X181.0Y-125.27G85X181.0Y-126.37
G05
X181.0Y-129.6G85X181.0Y-130.4
G05
M30
