%TF.GenerationSoftware,KiCad,Pcbnew,10.0.5*%
%TF.CreationDate,2026-08-16T21:16:09+09:00*%
%TF.ProjectId,CANLogger,43414e4c-6f67-4676-9572-2e6b69636164,rev?*%
%TF.SameCoordinates,Original*%
%TF.FileFunction,Legend,Bot*%
%TF.FilePolarity,Positive*%
%FSLAX46Y46*%
G04 Gerber Fmt 4.6, Leading zero omitted, Abs format (unit mm)*
G04 Created by KiCad (PCBNEW 10.0.5) date 2026-08-16 21:16:09*
%MOMM*%
%LPD*%
G01*
G04 APERTURE LIST*
%ADD10C,0.100000*%
%ADD11C,0.150000*%
%ADD12C,0.254000*%
%ADD13C,0.120000*%
%ADD14C,0.200000*%
G04 APERTURE END LIST*
D10*
X187518771Y-91476190D02*
X187042580Y-91476190D01*
X188042580Y-91809523D02*
X187518771Y-91476190D01*
X187518771Y-91476190D02*
X188042580Y-91142857D01*
X187947342Y-90857142D02*
X187994961Y-90809523D01*
X187994961Y-90809523D02*
X188042580Y-90714285D01*
X188042580Y-90714285D02*
X188042580Y-90476190D01*
X188042580Y-90476190D02*
X187994961Y-90380952D01*
X187994961Y-90380952D02*
X187947342Y-90333333D01*
X187947342Y-90333333D02*
X187852104Y-90285714D01*
X187852104Y-90285714D02*
X187756866Y-90285714D01*
X187756866Y-90285714D02*
X187614009Y-90333333D01*
X187614009Y-90333333D02*
X187042580Y-90904761D01*
X187042580Y-90904761D02*
X187042580Y-90285714D01*
D11*
X187142857Y-83954819D02*
X187476190Y-83478628D01*
X187714285Y-83954819D02*
X187714285Y-82954819D01*
X187714285Y-82954819D02*
X187333333Y-82954819D01*
X187333333Y-82954819D02*
X187238095Y-83002438D01*
X187238095Y-83002438D02*
X187190476Y-83050057D01*
X187190476Y-83050057D02*
X187142857Y-83145295D01*
X187142857Y-83145295D02*
X187142857Y-83288152D01*
X187142857Y-83288152D02*
X187190476Y-83383390D01*
X187190476Y-83383390D02*
X187238095Y-83431009D01*
X187238095Y-83431009D02*
X187333333Y-83478628D01*
X187333333Y-83478628D02*
X187714285Y-83478628D01*
X186190476Y-83954819D02*
X186761904Y-83954819D01*
X186476190Y-83954819D02*
X186476190Y-82954819D01*
X186476190Y-82954819D02*
X186571428Y-83097676D01*
X186571428Y-83097676D02*
X186666666Y-83192914D01*
X186666666Y-83192914D02*
X186761904Y-83240533D01*
X185285714Y-82954819D02*
X185761904Y-82954819D01*
X185761904Y-82954819D02*
X185809523Y-83431009D01*
X185809523Y-83431009D02*
X185761904Y-83383390D01*
X185761904Y-83383390D02*
X185666666Y-83335771D01*
X185666666Y-83335771D02*
X185428571Y-83335771D01*
X185428571Y-83335771D02*
X185333333Y-83383390D01*
X185333333Y-83383390D02*
X185285714Y-83431009D01*
X185285714Y-83431009D02*
X185238095Y-83526247D01*
X185238095Y-83526247D02*
X185238095Y-83764342D01*
X185238095Y-83764342D02*
X185285714Y-83859580D01*
X185285714Y-83859580D02*
X185333333Y-83907200D01*
X185333333Y-83907200D02*
X185428571Y-83954819D01*
X185428571Y-83954819D02*
X185666666Y-83954819D01*
X185666666Y-83954819D02*
X185761904Y-83907200D01*
X185761904Y-83907200D02*
X185809523Y-83859580D01*
X189859580Y-91357142D02*
X189907200Y-91309523D01*
X189907200Y-91309523D02*
X189954819Y-91166666D01*
X189954819Y-91166666D02*
X189954819Y-91071428D01*
X189954819Y-91071428D02*
X189907200Y-90928571D01*
X189907200Y-90928571D02*
X189811961Y-90833333D01*
X189811961Y-90833333D02*
X189716723Y-90785714D01*
X189716723Y-90785714D02*
X189526247Y-90738095D01*
X189526247Y-90738095D02*
X189383390Y-90738095D01*
X189383390Y-90738095D02*
X189192914Y-90785714D01*
X189192914Y-90785714D02*
X189097676Y-90833333D01*
X189097676Y-90833333D02*
X189002438Y-90928571D01*
X189002438Y-90928571D02*
X188954819Y-91071428D01*
X188954819Y-91071428D02*
X188954819Y-91166666D01*
X188954819Y-91166666D02*
X189002438Y-91309523D01*
X189002438Y-91309523D02*
X189050057Y-91357142D01*
X189288152Y-92214285D02*
X189954819Y-92214285D01*
X188907200Y-91976190D02*
X189621485Y-91738095D01*
X189621485Y-91738095D02*
X189621485Y-92357142D01*
X189050057Y-92690476D02*
X189002438Y-92738095D01*
X189002438Y-92738095D02*
X188954819Y-92833333D01*
X188954819Y-92833333D02*
X188954819Y-93071428D01*
X188954819Y-93071428D02*
X189002438Y-93166666D01*
X189002438Y-93166666D02*
X189050057Y-93214285D01*
X189050057Y-93214285D02*
X189145295Y-93261904D01*
X189145295Y-93261904D02*
X189240533Y-93261904D01*
X189240533Y-93261904D02*
X189383390Y-93214285D01*
X189383390Y-93214285D02*
X189954819Y-92642857D01*
X189954819Y-92642857D02*
X189954819Y-93261904D01*
D12*
X185239762Y-92074318D02*
X185239762Y-90804318D01*
X183909285Y-91953365D02*
X183969761Y-92013842D01*
X183969761Y-92013842D02*
X184151190Y-92074318D01*
X184151190Y-92074318D02*
X184272142Y-92074318D01*
X184272142Y-92074318D02*
X184453571Y-92013842D01*
X184453571Y-92013842D02*
X184574523Y-91892889D01*
X184574523Y-91892889D02*
X184635000Y-91771937D01*
X184635000Y-91771937D02*
X184695476Y-91530032D01*
X184695476Y-91530032D02*
X184695476Y-91348603D01*
X184695476Y-91348603D02*
X184635000Y-91106699D01*
X184635000Y-91106699D02*
X184574523Y-90985746D01*
X184574523Y-90985746D02*
X184453571Y-90864794D01*
X184453571Y-90864794D02*
X184272142Y-90804318D01*
X184272142Y-90804318D02*
X184151190Y-90804318D01*
X184151190Y-90804318D02*
X183969761Y-90864794D01*
X183969761Y-90864794D02*
X183909285Y-90925270D01*
X182699761Y-92074318D02*
X183425476Y-92074318D01*
X183062619Y-92074318D02*
X183062619Y-90804318D01*
X183062619Y-90804318D02*
X183183571Y-90985746D01*
X183183571Y-90985746D02*
X183304523Y-91106699D01*
X183304523Y-91106699D02*
X183425476Y-91167175D01*
D11*
X189859580Y-82357142D02*
X189907200Y-82309523D01*
X189907200Y-82309523D02*
X189954819Y-82166666D01*
X189954819Y-82166666D02*
X189954819Y-82071428D01*
X189954819Y-82071428D02*
X189907200Y-81928571D01*
X189907200Y-81928571D02*
X189811961Y-81833333D01*
X189811961Y-81833333D02*
X189716723Y-81785714D01*
X189716723Y-81785714D02*
X189526247Y-81738095D01*
X189526247Y-81738095D02*
X189383390Y-81738095D01*
X189383390Y-81738095D02*
X189192914Y-81785714D01*
X189192914Y-81785714D02*
X189097676Y-81833333D01*
X189097676Y-81833333D02*
X189002438Y-81928571D01*
X189002438Y-81928571D02*
X188954819Y-82071428D01*
X188954819Y-82071428D02*
X188954819Y-82166666D01*
X188954819Y-82166666D02*
X189002438Y-82309523D01*
X189002438Y-82309523D02*
X189050057Y-82357142D01*
X189050057Y-82738095D02*
X189002438Y-82785714D01*
X189002438Y-82785714D02*
X188954819Y-82880952D01*
X188954819Y-82880952D02*
X188954819Y-83119047D01*
X188954819Y-83119047D02*
X189002438Y-83214285D01*
X189002438Y-83214285D02*
X189050057Y-83261904D01*
X189050057Y-83261904D02*
X189145295Y-83309523D01*
X189145295Y-83309523D02*
X189240533Y-83309523D01*
X189240533Y-83309523D02*
X189383390Y-83261904D01*
X189383390Y-83261904D02*
X189954819Y-82690476D01*
X189954819Y-82690476D02*
X189954819Y-83309523D01*
X188954819Y-84166666D02*
X188954819Y-83976190D01*
X188954819Y-83976190D02*
X189002438Y-83880952D01*
X189002438Y-83880952D02*
X189050057Y-83833333D01*
X189050057Y-83833333D02*
X189192914Y-83738095D01*
X189192914Y-83738095D02*
X189383390Y-83690476D01*
X189383390Y-83690476D02*
X189764342Y-83690476D01*
X189764342Y-83690476D02*
X189859580Y-83738095D01*
X189859580Y-83738095D02*
X189907200Y-83785714D01*
X189907200Y-83785714D02*
X189954819Y-83880952D01*
X189954819Y-83880952D02*
X189954819Y-84071428D01*
X189954819Y-84071428D02*
X189907200Y-84166666D01*
X189907200Y-84166666D02*
X189859580Y-84214285D01*
X189859580Y-84214285D02*
X189764342Y-84261904D01*
X189764342Y-84261904D02*
X189526247Y-84261904D01*
X189526247Y-84261904D02*
X189431009Y-84214285D01*
X189431009Y-84214285D02*
X189383390Y-84166666D01*
X189383390Y-84166666D02*
X189335771Y-84071428D01*
X189335771Y-84071428D02*
X189335771Y-83880952D01*
X189335771Y-83880952D02*
X189383390Y-83785714D01*
X189383390Y-83785714D02*
X189431009Y-83738095D01*
X189431009Y-83738095D02*
X189526247Y-83690476D01*
D12*
X195074318Y-105032380D02*
X193804318Y-105032380D01*
X194409080Y-105032380D02*
X194409080Y-105758095D01*
X195074318Y-105758095D02*
X193804318Y-105758095D01*
X195074318Y-107028095D02*
X195074318Y-106302380D01*
X195074318Y-106665237D02*
X193804318Y-106665237D01*
X193804318Y-106665237D02*
X193985746Y-106544285D01*
X193985746Y-106544285D02*
X194106699Y-106423333D01*
X194106699Y-106423333D02*
X194167175Y-106302380D01*
D11*
X187142857Y-82454819D02*
X187476190Y-81978628D01*
X187714285Y-82454819D02*
X187714285Y-81454819D01*
X187714285Y-81454819D02*
X187333333Y-81454819D01*
X187333333Y-81454819D02*
X187238095Y-81502438D01*
X187238095Y-81502438D02*
X187190476Y-81550057D01*
X187190476Y-81550057D02*
X187142857Y-81645295D01*
X187142857Y-81645295D02*
X187142857Y-81788152D01*
X187142857Y-81788152D02*
X187190476Y-81883390D01*
X187190476Y-81883390D02*
X187238095Y-81931009D01*
X187238095Y-81931009D02*
X187333333Y-81978628D01*
X187333333Y-81978628D02*
X187714285Y-81978628D01*
X186190476Y-82454819D02*
X186761904Y-82454819D01*
X186476190Y-82454819D02*
X186476190Y-81454819D01*
X186476190Y-81454819D02*
X186571428Y-81597676D01*
X186571428Y-81597676D02*
X186666666Y-81692914D01*
X186666666Y-81692914D02*
X186761904Y-81740533D01*
X185333333Y-81788152D02*
X185333333Y-82454819D01*
X185571428Y-81407200D02*
X185809523Y-82121485D01*
X185809523Y-82121485D02*
X185190476Y-82121485D01*
X177359580Y-79857142D02*
X177407200Y-79809523D01*
X177407200Y-79809523D02*
X177454819Y-79666666D01*
X177454819Y-79666666D02*
X177454819Y-79571428D01*
X177454819Y-79571428D02*
X177407200Y-79428571D01*
X177407200Y-79428571D02*
X177311961Y-79333333D01*
X177311961Y-79333333D02*
X177216723Y-79285714D01*
X177216723Y-79285714D02*
X177026247Y-79238095D01*
X177026247Y-79238095D02*
X176883390Y-79238095D01*
X176883390Y-79238095D02*
X176692914Y-79285714D01*
X176692914Y-79285714D02*
X176597676Y-79333333D01*
X176597676Y-79333333D02*
X176502438Y-79428571D01*
X176502438Y-79428571D02*
X176454819Y-79571428D01*
X176454819Y-79571428D02*
X176454819Y-79666666D01*
X176454819Y-79666666D02*
X176502438Y-79809523D01*
X176502438Y-79809523D02*
X176550057Y-79857142D01*
X176454819Y-80190476D02*
X176454819Y-80809523D01*
X176454819Y-80809523D02*
X176835771Y-80476190D01*
X176835771Y-80476190D02*
X176835771Y-80619047D01*
X176835771Y-80619047D02*
X176883390Y-80714285D01*
X176883390Y-80714285D02*
X176931009Y-80761904D01*
X176931009Y-80761904D02*
X177026247Y-80809523D01*
X177026247Y-80809523D02*
X177264342Y-80809523D01*
X177264342Y-80809523D02*
X177359580Y-80761904D01*
X177359580Y-80761904D02*
X177407200Y-80714285D01*
X177407200Y-80714285D02*
X177454819Y-80619047D01*
X177454819Y-80619047D02*
X177454819Y-80333333D01*
X177454819Y-80333333D02*
X177407200Y-80238095D01*
X177407200Y-80238095D02*
X177359580Y-80190476D01*
X176454819Y-81142857D02*
X176454819Y-81761904D01*
X176454819Y-81761904D02*
X176835771Y-81428571D01*
X176835771Y-81428571D02*
X176835771Y-81571428D01*
X176835771Y-81571428D02*
X176883390Y-81666666D01*
X176883390Y-81666666D02*
X176931009Y-81714285D01*
X176931009Y-81714285D02*
X177026247Y-81761904D01*
X177026247Y-81761904D02*
X177264342Y-81761904D01*
X177264342Y-81761904D02*
X177359580Y-81714285D01*
X177359580Y-81714285D02*
X177407200Y-81666666D01*
X177407200Y-81666666D02*
X177454819Y-81571428D01*
X177454819Y-81571428D02*
X177454819Y-81285714D01*
X177454819Y-81285714D02*
X177407200Y-81190476D01*
X177407200Y-81190476D02*
X177359580Y-81142857D01*
%TO.C,R15*%
D13*
X183737258Y-82977500D02*
X183262742Y-82977500D01*
X183737258Y-84022500D02*
X183262742Y-84022500D01*
%TO.C,C42*%
X188990000Y-88859420D02*
X188990000Y-89140580D01*
X190010000Y-88859420D02*
X190010000Y-89140580D01*
%TO.C,IC1*%
D14*
X180400000Y-84550000D02*
X180400000Y-89450000D01*
X180400000Y-89450000D02*
X183600000Y-89450000D01*
X183600000Y-84550000D02*
X180400000Y-84550000D01*
X183600000Y-89450000D02*
X183600000Y-84550000D01*
X185450000Y-84420000D02*
X183950000Y-84420000D01*
%TO.C,C26*%
D13*
X190010000Y-86140580D02*
X190010000Y-85859420D01*
X188990000Y-86140580D02*
X188990000Y-85859420D01*
%TO.C,H1*%
D14*
X197000000Y-95000000D02*
X197000000Y-117000000D01*
X197000000Y-117000000D02*
X201500000Y-117000000D01*
X201500000Y-91800000D02*
X201500000Y-95000000D01*
X201500000Y-95000000D02*
X197000000Y-95000000D01*
X201500000Y-117000000D02*
X201500000Y-120200000D01*
X201500000Y-120200000D02*
X202800000Y-120200000D01*
X202800000Y-91800000D02*
X201500000Y-91800000D01*
D10*
X205000000Y-89500000D02*
X205000000Y-89500000D01*
X205000000Y-89600000D02*
X205000000Y-89600000D01*
D14*
X207200000Y-91800000D02*
X208500000Y-91800000D01*
X208500000Y-91800000D02*
X208500000Y-95000000D01*
X208500000Y-95000000D02*
X213000000Y-95000000D01*
X208500000Y-117000000D02*
X208500000Y-120200000D01*
X208500000Y-120200000D02*
X207200000Y-120200000D01*
X213000000Y-95000000D02*
X213000000Y-117000000D01*
X213000000Y-117000000D02*
X208500000Y-117000000D01*
D10*
X205000000Y-89500000D02*
G75*
G02*
X205000000Y-89600000I0J-50000D01*
G01*
X205000000Y-89600000D02*
G75*
G02*
X205000000Y-89500000I0J50000D01*
G01*
%TO.C,R14*%
D13*
X183737258Y-81477500D02*
X183262742Y-81477500D01*
X183737258Y-82522500D02*
X183262742Y-82522500D01*
%TO.C,C33*%
X176490000Y-83640580D02*
X176490000Y-83359420D01*
X177510000Y-83640580D02*
X177510000Y-83359420D01*
%TD*%
M02*
