%TF.GenerationSoftware,KiCad,Pcbnew,10.0.5*%
%TF.CreationDate,2026-08-16T21:16:08+09:00*%
%TF.ProjectId,CANLogger,43414e4c-6f67-4676-9572-2e6b69636164,rev?*%
%TF.SameCoordinates,Original*%
%TF.FileFunction,Paste,Top*%
%TF.FilePolarity,Positive*%
%FSLAX46Y46*%
G04 Gerber Fmt 4.6, Leading zero omitted, Abs format (unit mm)*
G04 Created by KiCad (PCBNEW 10.0.5) date 2026-08-16 21:16:08*
%MOMM*%
%LPD*%
G01*
G04 APERTURE LIST*
G04 Aperture macros list*
%AMRoundRect*
0 Rectangle with rounded corners*
0 $1 Rounding radius*
0 $2 $3 $4 $5 $6 $7 $8 $9 X,Y pos of 4 corners*
0 Add a 4 corners polygon primitive as box body*
4,1,4,$2,$3,$4,$5,$6,$7,$8,$9,$2,$3,0*
0 Add four circle primitives for the rounded corners*
1,1,$1+$1,$2,$3*
1,1,$1+$1,$4,$5*
1,1,$1+$1,$6,$7*
1,1,$1+$1,$8,$9*
0 Add four rect primitives between the rounded corners*
20,1,$1+$1,$2,$3,$4,$5,0*
20,1,$1+$1,$4,$5,$6,$7,0*
20,1,$1+$1,$6,$7,$8,$9,0*
20,1,$1+$1,$8,$9,$2,$3,0*%
G04 Aperture macros list end*
%ADD10C,0.010000*%
%ADD11R,1.600000X1.050000*%
%ADD12RoundRect,0.200000X0.200000X0.275000X-0.200000X0.275000X-0.200000X-0.275000X0.200000X-0.275000X0*%
%ADD13RoundRect,0.200000X-0.200000X-0.275000X0.200000X-0.275000X0.200000X0.275000X-0.200000X0.275000X0*%
%ADD14RoundRect,0.200000X-0.275000X0.200000X-0.275000X-0.200000X0.275000X-0.200000X0.275000X0.200000X0*%
%ADD15RoundRect,0.225000X0.250000X-0.225000X0.250000X0.225000X-0.250000X0.225000X-0.250000X-0.225000X0*%
%ADD16RoundRect,0.225000X-0.250000X0.225000X-0.250000X-0.225000X0.250000X-0.225000X0.250000X0.225000X0*%
%ADD17RoundRect,0.250000X0.250000X0.475000X-0.250000X0.475000X-0.250000X-0.475000X0.250000X-0.475000X0*%
%ADD18RoundRect,0.250000X0.312500X1.075000X-0.312500X1.075000X-0.312500X-1.075000X0.312500X-1.075000X0*%
%ADD19RoundRect,0.050000X0.545000X0.150000X-0.545000X0.150000X-0.545000X-0.150000X0.545000X-0.150000X0*%
%ADD20RoundRect,0.200000X0.275000X-0.200000X0.275000X0.200000X-0.275000X0.200000X-0.275000X-0.200000X0*%
%ADD21R,0.599999X1.799999*%
%ADD22RoundRect,0.250000X-0.650000X0.325000X-0.650000X-0.325000X0.650000X-0.325000X0.650000X0.325000X0*%
%ADD23R,0.770000X1.070000*%
%ADD24RoundRect,0.073750X-0.551250X-0.221250X0.551250X-0.221250X0.551250X0.221250X-0.551250X0.221250X0*%
%ADD25RoundRect,0.225000X0.225000X0.250000X-0.225000X0.250000X-0.225000X-0.250000X0.225000X-0.250000X0*%
%ADD26R,1.200000X0.700000*%
%ADD27R,0.800000X1.000000*%
%ADD28R,1.200000X1.000000*%
%ADD29R,2.800000X1.000000*%
%ADD30R,1.900000X1.300000*%
%ADD31RoundRect,0.250000X-0.325000X-1.100000X0.325000X-1.100000X0.325000X1.100000X-0.325000X1.100000X0*%
%ADD32R,0.900000X1.350000*%
%ADD33R,0.900000X0.600000*%
%ADD34R,0.700000X0.950000*%
%ADD35RoundRect,0.225000X-0.225000X-0.250000X0.225000X-0.250000X0.225000X0.250000X-0.225000X0.250000X0*%
%ADD36R,0.900000X1.500000*%
%ADD37R,1.500000X0.900000*%
%ADD38R,0.900000X0.900000*%
%ADD39R,0.600000X3.010000*%
%ADD40R,0.300000X3.010000*%
%ADD41R,0.762000X1.778000*%
%ADD42R,2.810000X1.370000*%
G04 APERTURE END LIST*
D10*
%TO.C,U6*%
X174875000Y-119825000D02*
X175125000Y-119825000D01*
X175125000Y-120700000D01*
X174875000Y-120700000D01*
X174875000Y-119825000D01*
G36*
X175125000Y-120700000D02*
G01*
X174875000Y-120700000D01*
X174875000Y-119825000D01*
X175125000Y-119825000D01*
X175125000Y-120700000D01*
G37*
X175125000Y-116175000D02*
X174875000Y-116175000D01*
X174875000Y-115300000D01*
X175125000Y-115300000D01*
X175125000Y-116175000D01*
G36*
X175125000Y-116175000D02*
G01*
X174875000Y-116175000D01*
X174875000Y-115300000D01*
X175125000Y-115300000D01*
X175125000Y-116175000D01*
G37*
X175375000Y-119825000D02*
X175625000Y-119825000D01*
X175625000Y-120700000D01*
X175375000Y-120700000D01*
X175375000Y-119825000D01*
G36*
X175625000Y-120700000D02*
G01*
X175375000Y-120700000D01*
X175375000Y-119825000D01*
X175625000Y-119825000D01*
X175625000Y-120700000D01*
G37*
X175625000Y-116175000D02*
X175375000Y-116175000D01*
X175375000Y-115300000D01*
X175625000Y-115300000D01*
X175625000Y-116175000D01*
G36*
X175625000Y-116175000D02*
G01*
X175375000Y-116175000D01*
X175375000Y-115300000D01*
X175625000Y-115300000D01*
X175625000Y-116175000D01*
G37*
X175875000Y-119825000D02*
X176125000Y-119825000D01*
X176125000Y-120700000D01*
X175875000Y-120700000D01*
X175875000Y-119825000D01*
G36*
X176125000Y-120700000D02*
G01*
X175875000Y-120700000D01*
X175875000Y-119825000D01*
X176125000Y-119825000D01*
X176125000Y-120700000D01*
G37*
X176125000Y-116175000D02*
X175875000Y-116175000D01*
X175875000Y-115300000D01*
X176125000Y-115300000D01*
X176125000Y-116175000D01*
G36*
X176125000Y-116175000D02*
G01*
X175875000Y-116175000D01*
X175875000Y-115300000D01*
X176125000Y-115300000D01*
X176125000Y-116175000D01*
G37*
X176375000Y-119825000D02*
X176625000Y-119825000D01*
X176625000Y-120700000D01*
X176375000Y-120700000D01*
X176375000Y-119825000D01*
G36*
X176625000Y-120700000D02*
G01*
X176375000Y-120700000D01*
X176375000Y-119825000D01*
X176625000Y-119825000D01*
X176625000Y-120700000D01*
G37*
X176625000Y-116175000D02*
X176375000Y-116175000D01*
X176375000Y-115300000D01*
X176625000Y-115300000D01*
X176625000Y-116175000D01*
G36*
X176625000Y-116175000D02*
G01*
X176375000Y-116175000D01*
X176375000Y-115300000D01*
X176625000Y-115300000D01*
X176625000Y-116175000D01*
G37*
X176875000Y-119825000D02*
X177125000Y-119825000D01*
X177125000Y-120700000D01*
X176875000Y-120700000D01*
X176875000Y-119825000D01*
G36*
X177125000Y-120700000D02*
G01*
X176875000Y-120700000D01*
X176875000Y-119825000D01*
X177125000Y-119825000D01*
X177125000Y-120700000D01*
G37*
X177125000Y-116175000D02*
X176875000Y-116175000D01*
X176875000Y-115300000D01*
X177125000Y-115300000D01*
X177125000Y-116175000D01*
G36*
X177125000Y-116175000D02*
G01*
X176875000Y-116175000D01*
X176875000Y-115300000D01*
X177125000Y-115300000D01*
X177125000Y-116175000D01*
G37*
%TD*%
D11*
%TO.C,SW3*%
X204900000Y-125725000D03*
X204900000Y-121275000D03*
%TD*%
D12*
%TO.C,R16*%
X205325000Y-96000000D03*
X203675000Y-96000000D03*
%TD*%
D13*
%TO.C,R13*%
X181175000Y-77000000D03*
X182825000Y-77000000D03*
%TD*%
D14*
%TO.C,R10*%
X196500000Y-103175000D03*
X196500000Y-104825000D03*
%TD*%
D15*
%TO.C,C37*%
X206500000Y-91775000D03*
X206500000Y-90225000D03*
%TD*%
D16*
%TO.C,C41*%
X199000000Y-65225000D03*
X199000000Y-66775000D03*
%TD*%
D17*
%TO.C,C3*%
X196950000Y-77000000D03*
X195050000Y-77000000D03*
%TD*%
D18*
%TO.C,R4*%
X197462500Y-58000000D03*
X194537500Y-58000000D03*
%TD*%
D11*
%TO.C,SW1*%
X166400000Y-80775000D03*
X166400000Y-85225000D03*
%TD*%
D19*
%TO.C,U8*%
X172000000Y-122150000D03*
X172000000Y-120850000D03*
X170080000Y-121500000D03*
%TD*%
D11*
%TO.C,SW4*%
X199100000Y-125725000D03*
X199100000Y-121275000D03*
%TD*%
D18*
%TO.C,R3*%
X178462500Y-58000000D03*
X175537500Y-58000000D03*
%TD*%
D15*
%TO.C,C24*%
X188500000Y-84775000D03*
X188500000Y-83225000D03*
%TD*%
D16*
%TO.C,C34*%
X208000000Y-122725000D03*
X208000000Y-124275000D03*
%TD*%
D20*
%TO.C,R19*%
X206500000Y-87325000D03*
X206500000Y-85675000D03*
%TD*%
D21*
%TO.C,U4*%
X201095000Y-74449999D03*
X202365000Y-74449999D03*
X203635000Y-74449999D03*
X204905000Y-74449999D03*
X204905000Y-63550001D03*
X203635000Y-63550001D03*
X202365000Y-63550001D03*
X201095000Y-63550001D03*
%TD*%
D12*
%TO.C,R12*%
X180325000Y-118000000D03*
X178675000Y-118000000D03*
%TD*%
D16*
%TO.C,C21*%
X172000000Y-117225000D03*
X172000000Y-118775000D03*
%TD*%
%TO.C,C35*%
X202000000Y-122725000D03*
X202000000Y-124275000D03*
%TD*%
D14*
%TO.C,R24*%
X181000000Y-59175000D03*
X181000000Y-60825000D03*
%TD*%
D21*
%TO.C,U2*%
X182095000Y-74449999D03*
X183365000Y-74449999D03*
X184635000Y-74449999D03*
X185905000Y-74449999D03*
X185905000Y-63550001D03*
X184635000Y-63550001D03*
X183365000Y-63550001D03*
X182095000Y-63550001D03*
%TD*%
D14*
%TO.C,R8*%
X169000000Y-82175000D03*
X169000000Y-83825000D03*
%TD*%
D22*
%TO.C,C10*%
X188500000Y-125025000D03*
X188500000Y-127975000D03*
%TD*%
D13*
%TO.C,R21*%
X174675000Y-111500000D03*
X176325000Y-111500000D03*
%TD*%
D23*
%TO.C,F1*%
X182100000Y-123500000D03*
X183900000Y-123500000D03*
%TD*%
D14*
%TO.C,R23*%
X195000000Y-106175000D03*
X195000000Y-107825000D03*
%TD*%
D20*
%TO.C,R18*%
X208000000Y-87325000D03*
X208000000Y-85675000D03*
%TD*%
D16*
%TO.C,C31*%
X190500000Y-124725000D03*
X190500000Y-126275000D03*
%TD*%
D13*
%TO.C,R26*%
X200175000Y-77000000D03*
X201825000Y-77000000D03*
%TD*%
D11*
%TO.C,SW2*%
X172100000Y-80775000D03*
X172100000Y-85225000D03*
%TD*%
D17*
%TO.C,C4*%
X196950000Y-61000000D03*
X195050000Y-61000000D03*
%TD*%
D24*
%TO.C,U3*%
X189745000Y-120050000D03*
X189745000Y-121000000D03*
X189745000Y-121950000D03*
X192255000Y-121950000D03*
X192255000Y-121000000D03*
X192255000Y-120050000D03*
%TD*%
D25*
%TO.C,C30*%
X167775000Y-111000000D03*
X166225000Y-111000000D03*
%TD*%
D12*
%TO.C,R20*%
X205325000Y-94500000D03*
X203675000Y-94500000D03*
%TD*%
D16*
%TO.C,C36*%
X198000000Y-106225000D03*
X198000000Y-107775000D03*
%TD*%
D26*
%TO.C,J4*%
X201275000Y-101725000D03*
X201275000Y-102825000D03*
X201275000Y-103925000D03*
X201275000Y-105025000D03*
X201275000Y-106125000D03*
X201275000Y-107225000D03*
X201275000Y-108325000D03*
X201275000Y-109425000D03*
X201275000Y-110375000D03*
D27*
X211775000Y-111325000D03*
D28*
X205575000Y-111325000D03*
D29*
X215925000Y-111325000D03*
D28*
X201275000Y-100175000D03*
D30*
X216375000Y-97825000D03*
%TD*%
D14*
%TO.C,R25*%
X200000000Y-59175000D03*
X200000000Y-60825000D03*
%TD*%
%TO.C,R1*%
X183000000Y-127175000D03*
X183000000Y-128825000D03*
%TD*%
D16*
%TO.C,C25*%
X188500000Y-86725000D03*
X188500000Y-88275000D03*
%TD*%
D31*
%TO.C,C13*%
X187025000Y-116000000D03*
X189975000Y-116000000D03*
%TD*%
D14*
%TO.C,R5*%
X193500000Y-124675000D03*
X193500000Y-126325000D03*
%TD*%
D17*
%TO.C,C1*%
X177950000Y-77000000D03*
X176050000Y-77000000D03*
%TD*%
D32*
%TO.C,FL2*%
X182750000Y-61275000D03*
X185250000Y-61275000D03*
X185250000Y-56725000D03*
X182750000Y-56725000D03*
%TD*%
D33*
%TO.C,D2*%
X196200000Y-51950000D03*
X196200000Y-50050000D03*
X193800000Y-51000000D03*
%TD*%
D22*
%TO.C,C9*%
X186000000Y-125025000D03*
X186000000Y-127975000D03*
%TD*%
D31*
%TO.C,C14*%
X187025000Y-112500000D03*
X189975000Y-112500000D03*
%TD*%
D14*
%TO.C,R9*%
X198000000Y-103175000D03*
X198000000Y-104825000D03*
%TD*%
D34*
%TO.C,D4*%
X179900000Y-111500000D03*
X178100000Y-111500000D03*
%TD*%
D17*
%TO.C,C2*%
X177950000Y-61000000D03*
X176050000Y-61000000D03*
%TD*%
D35*
%TO.C,C29*%
X180225000Y-89000000D03*
X181775000Y-89000000D03*
%TD*%
D14*
%TO.C,R2*%
X170000000Y-127175000D03*
X170000000Y-128825000D03*
%TD*%
D25*
%TO.C,C28*%
X164775000Y-111000000D03*
X163225000Y-111000000D03*
%TD*%
D14*
%TO.C,R28*%
X187000000Y-59175000D03*
X187000000Y-60825000D03*
%TD*%
D36*
%TO.C,U1*%
X163240000Y-108500000D03*
X164510000Y-108500000D03*
X165780000Y-108500000D03*
X167050000Y-108500000D03*
X168320000Y-108500000D03*
X169590000Y-108500000D03*
X170860000Y-108500000D03*
X172130000Y-108500000D03*
X173400000Y-108500000D03*
X174670000Y-108500000D03*
X175940000Y-108500000D03*
X177210000Y-108500000D03*
X178480000Y-108500000D03*
X179750000Y-108500000D03*
D37*
X181000000Y-105465000D03*
X181000000Y-104195000D03*
X181000000Y-102925000D03*
X181000000Y-101655000D03*
X181000000Y-100385000D03*
X181000000Y-99115000D03*
X181000000Y-97845000D03*
X181000000Y-96575000D03*
X181000000Y-95305000D03*
X181000000Y-94035000D03*
D36*
X179750000Y-91000000D03*
X178480000Y-91000000D03*
X177210000Y-91000000D03*
X175940000Y-91000000D03*
X174670000Y-91000000D03*
X173400000Y-91000000D03*
X172130000Y-91000000D03*
X170860000Y-91000000D03*
X169590000Y-91000000D03*
X168320000Y-91000000D03*
X167050000Y-91000000D03*
X165780000Y-91000000D03*
X164510000Y-91000000D03*
X163240000Y-91000000D03*
D38*
X169560000Y-102650000D03*
X170960000Y-102650000D03*
X172360000Y-102650000D03*
X169560000Y-101250000D03*
X170960000Y-101250000D03*
X172360000Y-101250000D03*
X169560000Y-99850000D03*
X170960000Y-99850000D03*
X172360000Y-99850000D03*
%TD*%
D16*
%TO.C,C40*%
X180000000Y-65225000D03*
X180000000Y-66775000D03*
%TD*%
D33*
%TO.C,D1*%
X177200000Y-51950000D03*
X177200000Y-50050000D03*
X174800000Y-51000000D03*
%TD*%
D14*
%TO.C,R22*%
X196500000Y-106175000D03*
X196500000Y-107825000D03*
%TD*%
%TO.C,R29*%
X206000000Y-59175000D03*
X206000000Y-60825000D03*
%TD*%
D25*
%TO.C,C32*%
X192775000Y-118500000D03*
X191225000Y-118500000D03*
%TD*%
D20*
%TO.C,R17*%
X208000000Y-91825000D03*
X208000000Y-90175000D03*
%TD*%
D15*
%TO.C,C39*%
X207000000Y-75775000D03*
X207000000Y-74225000D03*
%TD*%
D39*
%TO.C,J1*%
X173480000Y-124325000D03*
X174280000Y-124325000D03*
D40*
X175430000Y-124325000D03*
X176430000Y-124325000D03*
X176930000Y-124325000D03*
X177930000Y-124325000D03*
D39*
X179880000Y-124325000D03*
X179080000Y-124325000D03*
D40*
X178430000Y-124325000D03*
X177430000Y-124325000D03*
X175930000Y-124325000D03*
X174930000Y-124325000D03*
%TD*%
D41*
%TO.C,U5*%
X205080000Y-81585100D03*
X203810000Y-81585100D03*
X202540000Y-81585100D03*
X201270000Y-81585100D03*
X200000000Y-81585100D03*
X198730000Y-81585100D03*
X197460000Y-81585100D03*
X196190000Y-81585100D03*
X194920000Y-81585100D03*
X194920000Y-91414900D03*
X196190000Y-91414900D03*
X197460000Y-91414900D03*
X198730000Y-91414900D03*
X200000000Y-91414900D03*
X201270000Y-91414900D03*
X202540000Y-91414900D03*
X203810000Y-91414900D03*
X205080000Y-91414900D03*
%TD*%
D34*
%TO.C,D3*%
X178600000Y-119500000D03*
X180400000Y-119500000D03*
%TD*%
D16*
%TO.C,C27*%
X173500000Y-117225000D03*
X173500000Y-118775000D03*
%TD*%
D14*
%TO.C,R27*%
X192000000Y-124675000D03*
X192000000Y-126325000D03*
%TD*%
%TO.C,R11*%
X175000000Y-82175000D03*
X175000000Y-83825000D03*
%TD*%
D42*
%TO.C,L1*%
X186500000Y-121421000D03*
X186500000Y-118579000D03*
%TD*%
D32*
%TO.C,FL3*%
X201750000Y-61275000D03*
X204250000Y-61275000D03*
X204250000Y-56725000D03*
X201750000Y-56725000D03*
%TD*%
D15*
%TO.C,C38*%
X188000000Y-75775000D03*
X188000000Y-74225000D03*
%TD*%
M02*
